<svg xmlns="http://www.w3.org/2000/svg" xmlns:xlink="http://www.w3.org/1999/xlink" version="1.1" x="0px" y="0px" width="90px" height="90px" viewBox="0 0 90 90" enable-background="new 0 0 90 90" xml:space="preserve">
<g>
	<path fill-rule="evenodd" clip-rule="evenodd" d="M81.838,48.859c-0.101-0.306-1.324-3.535-2.375-6.405   c-0.916-2.165-1.543-2.583-2.957-2.583l-1.262,0.008l-1.261-0.008c-1.415,0-2.041,0.418-2.957,2.583   c-1.05,2.87-2.273,6.1-2.375,6.405c-0.2,0.604-0.521,1.777,0.336,2.1c0.857,0.323,1.247-0.408,1.613-1.362   c0.365-0.955,1.134-3.824,1.785-5.498c0.056-0.144,0.12-0.283,0.18-0.425c0.025,0.006,0.05,0.012,0.074,0.018   c-0.04,0.703-0.099,3.274-0.116,3.978c-0.081,3.152-1.333,13.131-1.692,15.22c-0.181,1.266,0.079,1.888,0.902,1.888   c0.824,0,1.186-0.153,1.441-1.456c0.375-2.619,1.084-8.098,1.325-9.963c0.051-0.401,0.132-0.876,0.746-0.881   c0.614,0.005,0.695,0.48,0.747,0.881c0.24,1.865,0.949,7.344,1.325,9.963c0.255,1.303,0.617,1.456,1.44,1.456   s1.083-0.622,0.902-1.888c-0.358-2.089-1.611-12.068-1.692-15.22c-0.018-0.703-0.077-3.275-0.116-3.978   c0.024-0.006,0.049-0.012,0.074-0.018c0.06,0.142,0.124,0.281,0.18,0.425c0.651,1.674,1.419,4.543,1.785,5.498   c0.366,0.954,0.755,1.685,1.612,1.362C82.359,50.636,82.038,49.463,81.838,48.859z"/>
	<path fill-rule="evenodd" clip-rule="evenodd" d="M75.287,39.254c1.438-0.004,2.668-1.286,2.666-2.777   c-0.002-1.471-1.209-2.723-2.651-2.75C73.85,33.701,72.58,35,72.587,36.502C72.595,37.987,73.842,39.259,75.287,39.254z"/>
	<path fill-rule="evenodd" clip-rule="evenodd" d="M64.132,42.454c-0.916-2.165-1.542-2.583-2.957-2.583l-1.262,0.008l-1.261-0.008   c-1.415,0-2.041,0.418-2.957,2.583c-1.05,2.87-2.273,6.1-2.375,6.405c-0.2,0.604-0.521,1.777,0.336,2.1   c0.857,0.323,1.247-0.408,1.612-1.362c0.365-0.955,1.134-3.824,1.785-5.498c0.056-0.144,0.12-0.283,0.18-0.425   c0.025,0.006,0.05,0.012,0.074,0.018c-0.04,0.703-0.098,3.274-0.116,3.978c-0.081,3.152-1.333,13.131-1.692,15.22   c-0.181,1.266,0.079,1.888,0.902,1.888s1.185-0.153,1.44-1.456c0.375-2.619,1.084-8.098,1.325-9.963   c0.051-0.401,0.132-0.876,0.746-0.881c0.614,0.005,0.695,0.48,0.747,0.881c0.24,1.865,0.949,7.344,1.325,9.963   c0.255,1.303,0.617,1.456,1.441,1.456s1.083-0.622,0.902-1.888c-0.358-2.089-1.611-12.068-1.691-15.22   c-0.018-0.703-0.077-3.275-0.117-3.978c0.025-0.006,0.049-0.012,0.074-0.018c0.06,0.142,0.124,0.281,0.18,0.425   c0.651,1.674,1.419,4.543,1.785,5.498c0.366,0.954,0.756,1.685,1.613,1.362c0.857-0.322,0.536-1.496,0.336-2.1   C66.406,48.553,65.183,45.324,64.132,42.454z"/>
	<path fill-rule="evenodd" clip-rule="evenodd" d="M57.256,36.502c0.007,1.485,1.255,2.756,2.7,2.752   c1.438-0.004,2.668-1.286,2.666-2.777c-0.002-1.471-1.209-2.723-2.651-2.75C58.519,33.701,57.249,35,57.256,36.502z"/>
	<path fill-rule="evenodd" clip-rule="evenodd" d="M48.801,42.454c-0.916-2.165-1.542-2.583-2.957-2.583l-1.262,0.008l-1.261-0.008   c-1.414,0-2.041,0.418-2.957,2.583c-1.05,2.87-2.273,6.1-2.375,6.405c-0.2,0.604-0.521,1.777,0.336,2.1   c0.857,0.323,1.247-0.408,1.612-1.362c0.366-0.955,1.134-3.824,1.785-5.498c0.056-0.144,0.12-0.283,0.18-0.425   c0.025,0.006,0.049,0.012,0.074,0.018c-0.04,0.703-0.098,3.274-0.116,3.978c-0.081,3.152-1.333,13.131-1.691,15.22   c-0.181,1.266,0.078,1.888,0.902,1.888s1.185-0.153,1.44-1.456c0.375-2.619,1.084-8.098,1.325-9.963   c0.051-0.401,0.132-0.876,0.746-0.881c0.614,0.005,0.695,0.48,0.747,0.881c0.24,1.865,0.949,7.344,1.324,9.963   c0.255,1.303,0.617,1.456,1.441,1.456s1.083-0.622,0.902-1.888c-0.358-2.089-1.611-12.068-1.691-15.22   c-0.018-0.703-0.077-3.275-0.117-3.978c0.025-0.006,0.049-0.012,0.074-0.018c0.06,0.142,0.125,0.281,0.18,0.425   c0.65,1.674,1.419,4.543,1.785,5.498c0.365,0.954,0.755,1.685,1.612,1.362c0.857-0.322,0.537-1.496,0.336-2.1   C51.075,48.553,49.852,45.324,48.801,42.454z"/>
	<path fill-rule="evenodd" clip-rule="evenodd" d="M44.625,39.254c1.438-0.004,2.668-1.286,2.666-2.777   c-0.002-1.471-1.209-2.723-2.651-2.75c-1.452-0.026-2.723,1.272-2.715,2.775C41.933,37.987,43.18,39.259,44.625,39.254z"/>
	<path fill-rule="evenodd" clip-rule="evenodd" d="M33.47,42.454c-0.916-2.165-1.542-2.583-2.957-2.583l-1.261,0.008l-1.261-0.008   c-1.415,0-2.042,0.418-2.957,2.583c-1.051,2.87-2.273,6.1-2.375,6.405c-0.2,0.604-0.521,1.777,0.336,2.1   c0.857,0.323,1.247-0.408,1.612-1.362c0.366-0.955,1.134-3.824,1.785-5.498c0.056-0.144,0.12-0.283,0.18-0.425   c0.025,0.006,0.049,0.012,0.074,0.018c-0.04,0.703-0.098,3.274-0.116,3.978c-0.081,3.152-1.333,13.131-1.691,15.22   c-0.181,1.266,0.078,1.888,0.902,1.888s1.186-0.153,1.441-1.456c0.375-2.619,1.084-8.098,1.324-9.963   c0.052-0.401,0.132-0.876,0.747-0.881c0.614,0.005,0.695,0.48,0.747,0.881c0.24,1.865,0.949,7.344,1.324,9.963   c0.256,1.303,0.617,1.456,1.441,1.456s1.083-0.622,0.902-1.888c-0.358-2.089-1.611-12.068-1.691-15.22   c-0.018-0.703-0.077-3.275-0.116-3.978c0.024-0.006,0.049-0.012,0.074-0.018c0.06,0.142,0.125,0.281,0.18,0.425   c0.651,1.674,1.419,4.543,1.785,5.498c0.366,0.954,0.755,1.685,1.612,1.362c0.857-0.322,0.537-1.496,0.336-2.1   C35.744,48.553,34.521,45.324,33.47,42.454z"/>
	<path fill-rule="evenodd" clip-rule="evenodd" d="M29.294,39.254c1.438-0.004,2.668-1.286,2.666-2.777   c-0.002-1.471-1.209-2.723-2.651-2.75c-1.452-0.026-2.723,1.272-2.715,2.775C26.602,37.987,27.849,39.259,29.294,39.254z"/>
	<path fill-rule="evenodd" clip-rule="evenodd" d="M18.14,42.454c-0.916-2.165-1.543-2.583-2.957-2.583l-1.262,0.008l-1.261-0.008   c-1.415,0-2.042,0.418-2.957,2.583c-1.051,2.87-2.273,6.1-2.375,6.405c-0.201,0.604-0.521,1.777,0.336,2.1   c0.857,0.323,1.247-0.408,1.612-1.362c0.366-0.955,1.134-3.824,1.785-5.498c0.056-0.144,0.12-0.283,0.18-0.425   c0.025,0.006,0.049,0.012,0.074,0.018c-0.04,0.703-0.099,3.274-0.117,3.978c-0.081,3.152-1.333,13.131-1.691,15.22   c-0.181,1.266,0.078,1.888,0.902,1.888s1.186-0.153,1.441-1.456c0.375-2.619,1.084-8.098,1.324-9.963   c0.052-0.401,0.132-0.876,0.747-0.881c0.614,0.005,0.695,0.48,0.747,0.881c0.24,1.865,0.949,7.344,1.325,9.963   c0.255,1.303,0.617,1.456,1.44,1.456s1.083-0.622,0.902-1.888c-0.358-2.089-1.61-12.068-1.691-15.22   c-0.018-0.703-0.077-3.275-0.116-3.978c0.024-0.006,0.049-0.012,0.074-0.018c0.061,0.142,0.125,0.281,0.18,0.425   c0.651,1.674,1.419,4.543,1.785,5.498c0.366,0.954,0.755,1.685,1.612,1.362c0.857-0.322,0.537-1.496,0.336-2.1   C20.413,48.553,19.19,45.324,18.14,42.454z"/>
	<path fill-rule="evenodd" clip-rule="evenodd" d="M13.963,39.254c1.438-0.004,2.668-1.286,2.666-2.777   c-0.002-1.471-1.209-2.723-2.651-2.75c-1.452-0.026-2.723,1.272-2.714,2.775C11.271,37.987,12.518,39.259,13.963,39.254z"/>
	<path fill-rule="evenodd" clip-rule="evenodd" d="M23.221,32.715c0.113,0.16,0.42,0.011,0.42-0.263   c-0.001-1.201-0.987-2.223-2.165-2.245c-1.185-0.021-2.223,1.039-2.216,2.266c0.001,0.268,0.337,0.355,0.474,0.176   c0.412-0.542,1.051-0.897,1.742-0.885C22.186,31.777,22.824,32.155,23.221,32.715z"/>
	<path fill-rule="evenodd" clip-rule="evenodd" d="M38.551,32.715c0.113,0.16,0.421,0.011,0.42-0.263   c-0.001-1.201-0.987-2.223-2.165-2.245c-1.186-0.021-2.223,1.039-2.216,2.266c0.001,0.268,0.337,0.355,0.474,0.176   c0.412-0.542,1.051-0.897,1.742-0.885C37.517,31.777,38.155,32.155,38.551,32.715z"/>
	<path fill-rule="evenodd" clip-rule="evenodd" d="M53.882,32.715c0.113,0.16,0.421,0.011,0.42-0.263   c-0.001-1.201-0.987-2.223-2.165-2.245c-1.186-0.021-2.223,1.039-2.216,2.266c0.001,0.268,0.337,0.355,0.474,0.176   c0.412-0.542,1.052-0.897,1.743-0.885C52.848,31.777,53.486,32.155,53.882,32.715z"/>
	<path fill-rule="evenodd" clip-rule="evenodd" d="M69.213,32.715c0.113,0.16,0.421,0.011,0.42-0.263   c-0.002-1.201-0.987-2.223-2.165-2.245c-1.186-0.021-2.223,1.039-2.217,2.266c0.001,0.268,0.337,0.355,0.474,0.176   c0.412-0.542,1.052-0.897,1.743-0.885C68.179,31.777,68.817,32.155,69.213,32.715z"/>
	<path fill-rule="evenodd" clip-rule="evenodd" d="M28.096,28.81c0.373-0.49,0.952-0.812,1.578-0.801   c0.643,0.011,1.221,0.353,1.58,0.86c0.103,0.145,0.381,0.01,0.381-0.237c-0.001-1.088-0.894-2.014-1.96-2.033   c-1.073-0.02-2.013,0.94-2.007,2.052C27.668,28.893,27.973,28.972,28.096,28.81z"/>
	<path fill-rule="evenodd" clip-rule="evenodd" d="M42.849,28.81c0.373-0.49,0.952-0.812,1.578-0.801   c0.642,0.011,1.221,0.353,1.579,0.86c0.103,0.145,0.381,0.01,0.381-0.237c-0.001-1.088-0.894-2.014-1.96-2.033   c-1.074-0.02-2.013,0.94-2.008,2.052C42.42,28.893,42.725,28.972,42.849,28.81z"/>
	<path fill-rule="evenodd" clip-rule="evenodd" d="M57.602,28.81c0.373-0.49,0.952-0.812,1.578-0.801   c0.643,0.011,1.221,0.353,1.58,0.86c0.103,0.145,0.381,0.01,0.381-0.237c-0.001-1.088-0.894-2.014-1.96-2.033   c-1.074-0.02-2.013,0.94-2.007,2.052C57.174,28.893,57.478,28.972,57.602,28.81z"/>
	<path fill-rule="evenodd" clip-rule="evenodd" d="M35.426,25.487c0.309-0.406,0.789-0.673,1.308-0.664   c0.533,0.009,1.012,0.292,1.309,0.713c0.085,0.12,0.316,0.008,0.315-0.197c-0.001-0.901-0.741-1.668-1.625-1.685   c-0.89-0.016-1.668,0.779-1.663,1.7C35.071,25.556,35.323,25.622,35.426,25.487z"/>
	<path fill-rule="evenodd" clip-rule="evenodd" d="M51.905,25.333c0.309-0.406,0.789-0.673,1.308-0.664   c0.533,0.009,1.012,0.292,1.309,0.713c0.085,0.12,0.316,0.008,0.316-0.197c-0.001-0.902-0.741-1.668-1.625-1.685   c-0.889-0.016-1.668,0.779-1.663,1.7C51.55,25.401,51.802,25.467,51.905,25.333z"/>
</g>
</svg>