<?xml version="1.0" encoding="utf-8"?>
<!-- Generator: Adobe Illustrator 16.0.4, SVG Export Plug-In . SVG Version: 6.00 Build 0)  -->
<!DOCTYPE svg PUBLIC "-//W3C//DTD SVG 1.1//EN" "http://www.w3.org/Graphics/SVG/1.1/DTD/svg11.dtd">
<svg version="1.1" xmlns="http://www.w3.org/2000/svg" xmlns:xlink="http://www.w3.org/1999/xlink" x="0px" y="0px"
	 width="134.658px" height="131.646px" viewBox="0 0 134.658 131.646" enable-background="new 0 0 134.658 131.646"
	 xml:space="preserve">
<g>
</g>
<polygon points="100.389,47.863 94.919,47.863 94.919,58.943 83.869,58.943 83.869,64.473 94.919,64.473 94.919,75.613 
	100.389,75.613 100.389,64.473 111.509,64.473 111.509,58.943 100.389,58.943 "/>
<path d="M72.479,71.843l-3.98-3.09c-1.22-1.01-2.88-2.34-2.88-4.77c0-2.44,1.66-3.99,3.1-5.43c4.641-3.65,9.28-7.53,9.28-15.73
	c0-8.42-5.3-12.85-7.84-14.95h6.85l7.19-4.52h-21.78c-5.98,0-14.59,1.42-20.89,6.62c-4.76,4.1-7.07,9.75-7.07,14.84
	c0,8.64,6.63,17.4,18.34,17.4c1.11,0,2.32-0.11,3.54-0.22c-0.55,1.33-1.1,2.44-1.1,4.32c0,3.43,1.76,5.529,3.31,7.52
	c-4.97,0.351-14.26,0.9-21.11,5.11c-6.53,3.88-8.51,9.52-8.51,13.51c0,8.2,7.73,15.84,23.76,15.84c19.01,0,29.07-10.52,29.07-20.93
	C81.77,79.713,77.339,75.943,72.479,71.843z M57.999,59.103c-9.51,0-13.82-12.29-13.82-19.71c0-2.89,0.55-5.87,2.43-8.2
	c1.77-2.21,4.86-3.65,7.74-3.65c9.17,0,13.93,12.4,13.93,20.38c0,1.99-0.22,5.53-2.76,8.09
	C63.739,57.783,60.759,59.103,57.999,59.103z M58.109,103.653c-11.83,0-19.45-5.66-19.45-13.53c0-7.859,7.07-10.52,9.5-11.399
	c4.64-1.561,10.61-1.78,11.61-1.78c1.1,0,1.66,0,2.54,0.11c8.4,5.979,12.05,8.97,12.05,14.63
	C74.359,98.543,68.719,103.653,58.109,103.653z"/>
</svg>
