<?xml version="1.0" encoding="utf-8"?>
<!-- Generator: Adobe Illustrator 16.0.4, SVG Export Plug-In . SVG Version: 6.00 Build 0)  -->
<!DOCTYPE svg PUBLIC "-//W3C//DTD SVG 1.1//EN" "http://www.w3.org/Graphics/SVG/1.1/DTD/svg11.dtd">
<svg version="1.1" xmlns="http://www.w3.org/2000/svg" xmlns:xlink="http://www.w3.org/1999/xlink" x="0px" y="0px"
	 width="100px" height="100px" viewBox="0 0 100 100" enable-background="new 0 0 100 100" xml:space="preserve">
<g>
	<path d="M99.345,66.998c0,0-7.755,1.871-10.171,2.418c-0.435,0-0.547,0-0.663-0.113c-0.342-0.32-0.66-1.095-0.66-1.415
		l-5.018-22.67l1.733-0.317l-0.661-2.509l-1.614,0.375l-2.65-11.982l12.589-3.17l-0.661-2.417l-15.007,3.832l0.558,2.511
		l-6.236,1.639l0.162,0.619c-1.371-0.549-3.156-1.258-5.016-1.994l-0.757-2.89c-0.229-0.547-0.547-2.076-1.208-2.737
		c-0.753-0.867-2.189-1.095-2.623-1.095l-10.833-0.867c-0.205,0-1.961-0.228-3.056,0s-3.056,1.437-3.603,1.756l-9.533,5.906
		c-0.205,0.114-2.189,1.209-3.056,1.643c-0.388,0.171-0.799,0.199-1.113,0.185l0.109-0.413l-6.308-1.658l0.63-2.834L9.034,24.648
		l-0.661,2.417l13.341,3.603l-8.21,37.105v0.113c0,0.32-0.228,1.094-0.661,1.415c-0.114,0.113-0.343,0.228-0.662,0.113
		c-2.417-0.547-10.833-2.737-10.947-2.737l-0.661,2.419c0.433,0.113,8.643,2.303,11.061,2.85c0.229,0.114,0.547,0.114,0.776,0.114
		c0.661,0,1.322-0.227,1.756-0.774c1.323-0.868,1.642-2.623,1.755-3.058l0.974-4.384l6.347,1.969l0.457-1.324
		c0.059-0.047,0.376-1.207,0.655-3.031c0.829,0.334,1.548,0.627,2.096,0.852c-0.294,1.421-0.108,3.278,1.718,4.277
		c0.547,0.32,1.094,0.435,1.642,0.435c0.222,0,0.427-0.035,0.628-0.076c0.144,1.247,0.721,2.489,2.132,3.246
		c0.638,0.318,1.299,0.547,1.96,0.547c0.425,0,0.815-0.092,1.184-0.221c0.091,1.322,0.627,2.644,1.987,3.618
		c0.867,0.548,1.756,0.866,2.623,0.866c0.702,0,1.327-0.177,1.881-0.435c0.261,1.039,0.887,2.019,2.178,2.534
		c0.434,0.205,0.981,0.318,1.415,0.318c1.525,0,2.64-1.01,3.271-1.936c1.07,0.329,2.651,0.728,3.846,0.728
		c0.227,0,0.342,0,0.523-0.252c1.163-0.143,2.206-1.018,2.901-1.754c0.907,0.454,1.836,0.768,2.709,0.796
		c1.954,0,3.533-1.844,4.31-2.867c0.304,0.075,0.615,0.131,0.936,0.131c0.114,0,0.342,0,0.547-0.114
		c1.642-0.205,2.853-1.094,3.718-2.622c0.288-0.526,0.469-1.087,0.585-1.577c0.177,0.024,0.354,0.05,0.533,0.05
		c0.091,0,0.205,0,0.364,0.09c1.733-0.227,3.17-0.979,4.151-2.189c1.111-1.405,1.484-3.075,1.359-4.365
		c0.078,0.003,0.158,0.011,0.235,0.011c0.447,0,0.868-0.039,1.257-0.074c0.295,1.822,0.614,3.013,0.614,3.129l0.319,1.211
		l6.348-1.836l0.996,4.48c0,0.317,0.434,2.188,1.755,3.055c0.434,0.321,1.095,0.548,1.758,0.548c0.205,0,0.547-0.114,0.773-0.137
		c2.395-0.548,10.173-2.417,10.286-2.417L99.345,66.998z M77.663,33.987l2.804,12.623c-0.576,0.582-1.286,1.389-1.947,2.399
		c-0.335-0.488-0.787-1.339-1.297-2.809c-0.979-2.828-2.508-8.758-3.169-11.266L77.663,33.987z M23.505,34.082l3.682,0.966
		c-0.662,2.509-2.189,8.416-3.17,11.267c-0.445,1.264-0.857,2.057-1.186,2.569c-0.701-1.1-1.458-1.957-2.049-2.541L23.505,34.082z
		 M21.509,62.506l-4.058-1.164L20.1,49.414c0.99,1.314,2.012,3.198,2.07,5.43C22.284,58.015,21.828,60.978,21.509,62.506z
		 M29.491,64.285c-0.547-0.229-0.661-0.89-0.547-1.323c0.228,0.115,0.433,0.229,0.866,0.342c0.342,0.229,0.547,0.434,0.776,0.662
		c-0.229,0.205-0.434,0.433-0.662,0.433C29.81,64.398,29.604,64.398,29.491,64.285z M34.554,68.116
		c-0.229,0-0.547-0.113-0.776-0.229c-1.003-0.548-1.003-1.731-0.775-2.509c0.433,0.114,1.095,0.319,1.642,0.661
		c0.661,0.434,1.095,0.89,1.322,1.211C35.648,67.682,35.101,68.116,34.554,68.116z M39.115,71.947
		c-0.433-0.317-1.095-0.98-0.867-2.508c0.091-0.434,0.205-0.775,0.319-1.095c0.547,0.206,1.323,0.548,2.075,0.979
		c0.866,0.868,1.414,1.528,1.642,1.963c-0.434,0.432-1.186,1.095-1.961,1.095C39.89,72.382,39.548,72.267,39.115,71.947z
		 M45.797,74.913c-0.115,0-0.205,0-0.434-0.115c-0.775-0.343-0.775-1.095-0.775-1.756c0.342,0,0.775,0.113,1.094,0.319
		c0.548,0.228,0.867,0.547,1.095,0.775C46.572,74.592,46.23,74.913,45.797,74.913z M72.207,64.262
		c-0.549,0.663-1.324,1.095-2.419,1.21c-0.547,0-1.642-0.205-3.396-1.963c-1.095-0.979-4.061-4.468-5.042-5.792l-1.961,1.643
		c0.205,0.229,3.832,4.697,5.245,6.02c0.581,0.526,1.316,1.148,2.139,1.658c-0.074,0.439-0.22,0.976-0.381,1.285
		c-0.458,0.866-1.006,1.3-1.871,1.413c-0.776,0.114-1.872-0.661-2.303-0.979l-5.474-4.927l-1.758,1.869l5.474,4.927
		c0.065,0.032,0.261,0.183,0.538,0.376c-0.629,0.695-1.38,1.357-1.928,1.357c-1.757,0-4.721-2.509-6.249-4.15l-1.871,1.756
		c0.229,0.29,1.542,1.656,3.227,2.895c-0.379,0.358-0.776,0.648-1.059,0.708c-0.635,0.111-2.563-0.285-4.069-0.801
		c-0.397-0.45-1.052-1.038-2.111-1.594c-0.741-0.37-1.471-0.533-2.077-0.605c-0.279-0.68-0.946-1.836-2.439-3.11
		c-1.984-1.642-4.378-1.871-4.492-1.871h-0.342c-0.387-0.442-0.908-0.933-1.62-1.414c-1.182-0.847-2.495-1.104-3.231-1.18
		c-0.327-0.441-0.849-0.998-1.627-1.557c-0.994-0.728-2.079-0.923-2.728-0.967l0.014-0.038c0,0-1.657-0.691-3.731-1.618
		c0.101-1.205,0.159-2.539,0.128-3.944c-0.051-1.277-0.328-2.442-0.718-3.492c0.68-0.635,1.516-1.853,2.36-4.171
		c0.95-2.799,2.372-8.108,3.114-10.896c0.232,0.037,0.505,0.063,0.808,0.063c0.662,0,1.437-0.114,2.099-0.434
		c0.98-0.433,3.17-1.756,3.284-1.756l9.624-5.998c0.981-0.752,2.303-1.3,2.623-1.415c0.548-0.114,1.756,0,2.417,0l10.72,0.867
		c0.318,0.091,0.866,0.206,0.979,0.319c0.229,0.206,0.435,0.867,0.547,1.528l0.279,1.097c-2.718-1.07-5.162-2.026-6.184-2.419
		c-2.736-1.095-4.721-0.228-5.589,0.548c-0.89,0.547-7.343,4.812-8.984,6.339c-1.962,1.871-2.509,6.34-2.623,7.116
		c-0.114,0.319-0.456,2.509-0.775,5.473c-0.342,3.17-0.342,4.607,2.509,5.041c1.984,0.342,5.473-0.434,6.682-3.057
		c1.095-2.19,1.984-4.493,2.418-5.702c0.774-0.091,1.869-0.319,2.963-0.867c0.663-0.319,1.21-0.662,1.642-0.98
		c5.486,5.812,13.442,14.049,17.036,17.472l-0.021,0.021c0.753,0.753,0.866,1.095,0.979,1.96
		C73.072,62.188,72.867,63.396,72.207,64.262z M75.307,59.154c-0.211-0.157-0.689-0.604-1.338-1.234
		c-0.037-0.037-0.06-0.072-0.099-0.11l-0.009,0.007C70.371,54.41,61.803,45.5,56.15,39.678l-1.096-1.323l-0.865,1.414
		c-0.113,0.114-0.547,0.662-1.756,1.323c-1.21,0.547-2.852,0.661-2.852,0.661h-0.866l-0.319,0.776c0,0-1.186,3.398-2.509,6.249
		c-0.661,1.322-2.851,1.869-4.059,1.642c-0.228,0-0.433-0.115-0.547-0.115c-0.115-0.433,0-1.642,0.114-2.189
		c0.228-3.169,0.661-5.359,0.661-5.359v-0.114c0.229-1.438,0.89-4.606,1.871-5.587c1.3-1.209,6.682-4.812,8.645-6.135h0.112
		l0.113-0.115c0.116-0.114,1.095-0.774,2.966-0.114c2.366,0.848,13.147,5.052,16.099,6.25c0.771,2.906,2.054,7.568,2.945,10.148
		c0.835,2.498,1.754,3.759,2.455,4.379c-0.4,1.057-0.675,2.229-0.7,3.512c-0.033,1.522,0.05,2.967,0.184,4.255
		C76.16,59.306,75.58,59.299,75.307,59.154z M79.846,62.62c-0.343-1.527-0.776-4.493-0.661-7.663
		c0.056-2.149,1.007-3.977,1.962-5.284l2.626,11.82L79.846,62.62z"/>
	<polygon points="95.832,41.958 95.171,39.45 93.301,39.883 93.963,42.391 	"/>
	<polygon points="85.866,41.844 86.413,44.262 88.397,43.919 87.737,41.411 	"/>
	<polygon points="91.34,40.431 89.469,40.863 90.132,43.372 92,42.938 	"/>
	<polygon points="10.653,59.701 10.106,62.209 11.976,62.643 12.523,60.135 	"/>
	<polygon points="8.692,59.267 6.822,58.835 6.274,61.344 8.145,61.777 	"/>
	<polygon points="4.974,58.378 3.104,57.946 2.557,60.454 4.427,60.888 	"/>
	<path d="M92.206,63.852c2.417,0,4.378-1.961,4.378-4.38c0-2.415-1.961-4.378-4.378-4.378c-2.416,0-4.379,1.963-4.379,4.378
		C87.827,61.891,89.79,63.852,92.206,63.852z M92.206,57.717c1.004,0,1.757,0.776,1.757,1.755c0,0.982-0.776,1.758-1.757,1.758
		c-0.979,0-1.756-0.775-1.756-1.758C90.45,58.493,91.227,57.717,92.206,57.717z"/>
</g>
<g id="grid" display="none">
	<g display="inline">
		<rect stroke="#0079E9" stroke-width="0.01" stroke-miterlimit="10" width="25" height="25"/>
		<rect x="25" stroke="#0079E9" stroke-width="0.01" stroke-miterlimit="10" width="25" height="25"/>
		<rect x="50" stroke="#0079E9" stroke-width="0.01" stroke-miterlimit="10" width="25" height="25"/>
		<rect x="75" stroke="#0079E9" stroke-width="0.01" stroke-miterlimit="10" width="25" height="25"/>
		<rect y="25" stroke="#0079E9" stroke-width="0.01" stroke-miterlimit="10" width="25" height="25"/>
		<rect x="25" y="25" stroke="#0079E9" stroke-width="0.01" stroke-miterlimit="10" width="25" height="25"/>
		<rect x="50" y="25" stroke="#0079E9" stroke-width="0.01" stroke-miterlimit="10" width="25" height="25"/>
		<rect x="75" y="25" stroke="#0079E9" stroke-width="0.01" stroke-miterlimit="10" width="25" height="25"/>
		<rect y="50" stroke="#0079E9" stroke-width="0.01" stroke-miterlimit="10" width="25" height="25"/>
		<rect x="25" y="50" stroke="#0079E9" stroke-width="0.01" stroke-miterlimit="10" width="25" height="25"/>
		<rect x="50" y="50" stroke="#0079E9" stroke-width="0.01" stroke-miterlimit="10" width="25" height="25"/>
		<rect x="75" y="50" stroke="#0079E9" stroke-width="0.01" stroke-miterlimit="10" width="25" height="25"/>
		<rect y="75" stroke="#0079E9" stroke-width="0.01" stroke-miterlimit="10" width="25" height="25"/>
		<rect x="25" y="75" stroke="#0079E9" stroke-width="0.01" stroke-miterlimit="10" width="25" height="25"/>
		<rect x="50" y="75" stroke="#0079E9" stroke-width="0.01" stroke-miterlimit="10" width="25" height="25"/>
		<rect x="75" y="75" stroke="#0079E9" stroke-width="0.01" stroke-miterlimit="10" width="25" height="25"/>
	</g>
</g>
</svg>
