<?xml version="1.0" encoding="utf-8"?>
<!-- Generator: Adobe Illustrator 16.0.4, SVG Export Plug-In . SVG Version: 6.00 Build 0)  -->
<!DOCTYPE svg PUBLIC "-//W3C//DTD SVG 1.1//EN" "http://www.w3.org/Graphics/SVG/1.1/DTD/svg11.dtd">
<svg version="1.1" xmlns="http://www.w3.org/2000/svg" xmlns:xlink="http://www.w3.org/1999/xlink" x="0px" y="0px"
	 width="50.5px" height="69px" viewBox="25.75 0 50.5 69" enable-background="new 25.75 0 50.5 69" xml:space="preserve">
<polygon points="34.839,36.315 37.547,39.37 44.838,40.774 46.365,38.513 35.209,33.291 "/>
<polygon points="56.222,38.513 57.75,40.774 65.039,39.37 67.748,36.315 67.377,33.291 "/>
<path d="M70.831,8.653c-5.163-6.925-15.907-7.524-19.085-7.542h-0.898c-3.178,0.018-13.922,0.617-19.085,7.542
	c-6.098,8.183-3.66,28.99-3.66,28.99l2.009,4.106l1.046,10.104l5.915,7.742v0.364l4.811,5.956l2.867,1.862h13.093l2.872-1.861
	l4.806-5.957v-0.363l5.915-7.742l1.046-10.104l2.009-4.106C74.491,37.643,76.928,16.836,70.831,8.653z M60.152,64.688h-0.441
	l-2.584-1.133h-4.283l-0.546-0.518h-2.009l-0.547,0.518H45.46l-2.585,1.133h-0.441L39.603,59.9l0.375-2.973l2.861,4.023l1.874-2.009
	h13.159l1.874,2.009l2.867-4.023l0.369,2.973L60.152,64.688z M68.934,43.922c-2.432,4.112-5.903,9.392-6.32,11.572l-2.809,4.171
	l-1.803-1.769l-6.709-0.046l-6.703,0.046l-1.81,1.769l-2.801-4.171c-0.423-2.179-3.889-7.459-6.327-11.572
	c-1.868-3.166-2.896-5.61-2.896-5.61l1.838-7.725l0.218-20.442c4.828-3.143,11.026-3.671,11.026-3.671l2.244,18.181l5.211,0.775
	l5.21-0.775l2.245-18.181c0,0,6.196,0.529,11.025,3.671l0.217,20.442l1.845,7.725C71.836,38.312,70.801,40.756,68.934,43.922z"/>
</svg>
