<?xml version="1.0" encoding="utf-8"?>
<!-- Generator: Adobe Illustrator 16.0.4, SVG Export Plug-In . SVG Version: 6.00 Build 0)  -->
<!DOCTYPE svg PUBLIC "-//W3C//DTD SVG 1.1//EN" "http://www.w3.org/Graphics/SVG/1.1/DTD/svg11.dtd">
<svg version="1.1"
	 id="Layer_1" xmlns:inkscape="http://www.inkscape.org/namespaces/inkscape" xmlns:sodipodi="http://sodipodi.sourceforge.net/DTD/sodipodi-0.dtd" xmlns:svg="http://www.w3.org/2000/svg" xmlns:rdf="http://www.w3.org/1999/02/22-rdf-syntax-ns#" xmlns:cc="http://creativecommons.org/ns#" xmlns:dc="http://purl.org/dc/elements/1.1/"
	 xmlns="http://www.w3.org/2000/svg" xmlns:xlink="http://www.w3.org/1999/xlink" x="0px" y="0px" width="20px" height="20px"
	 viewBox="0 0 20 20" enable-background="new 0 0 20 20" xml:space="preserve">
<g transform="translate(0,-952.36218)">
	<path d="M8.416,952.66c-0.164,0.015-0.315,0.13-0.373,0.283l-3.53,9.487c-0.102,0.268,0.128,0.604,0.413,0.602h2.24l-3.096,8.452
		c-0.066,0.188,0.017,0.418,0.188,0.524c0.17,0.103,0.412,0.067,0.55-0.074l11.03-11.917c0.115-0.126,0.148-0.32,0.081-0.475
		c-0.067-0.155-0.235-0.263-0.403-0.263H11.74l2.207-6.027c0.095-0.266-0.135-0.593-0.418-0.594
		C11.827,952.66,10.116,952.66,8.416,952.66z"/>
</g>
</svg>
