<?xml version="1.0" encoding="utf-8"?>
<!-- Generator: Adobe Illustrator 16.0.4, SVG Export Plug-In . SVG Version: 6.00 Build 0)  -->
<svg version="1.2" baseProfile="tiny" xmlns="http://www.w3.org/2000/svg" xmlns:xlink="http://www.w3.org/1999/xlink"
	 x="0px" y="0px" width="64px" height="64px" viewBox="0 0 64 64" xml:space="preserve">
<path fill-rule="evenodd" d="M32.156,4.125C16.762,4.125,4.281,16.605,4.281,32s12.48,27.875,27.875,27.875S60.031,47.395,60.031,32
	S47.551,4.125,32.156,4.125z M32.156,55.224C19.33,55.224,8.932,44.826,8.932,32S19.33,8.776,32.156,8.776S55.381,19.174,55.381,32
	S44.982,55.224,32.156,55.224z"/>
<circle fill-rule="evenodd" cx="24.979" cy="31.373" r="3.333"/>
<circle fill-rule="evenodd" cx="39.646" cy="31.373" r="3.333"/>
<g>
	<path d="M29.013,48.048c-1.375,0-2.493-1.11-2.5-2.487c-0.007-1.38,1.106-2.506,2.487-2.513l6.301-0.033
		c1.397-0.002,2.506,1.106,2.513,2.487c0.007,1.38-1.106,2.506-2.487,2.513l-6.301,0.033C29.021,48.048,29.017,48.048,29.013,48.048
		z"/>
</g>
</svg>
