<?xml version="1.0" encoding="utf-8"?>
<!-- Generator: Adobe Illustrator 16.0.4, SVG Export Plug-In . SVG Version: 6.00 Build 0)  -->
<svg version="1.2" baseProfile="tiny" xmlns="http://www.w3.org/2000/svg" xmlns:xlink="http://www.w3.org/1999/xlink"
	 x="0px" y="0px" width="64px" height="64px" viewBox="0 0 64 64" xml:space="preserve">
<path fill-rule="evenodd" d="M14.35,10.686C2.578,20.605,1.077,38.19,10.998,49.962c9.92,11.772,27.505,13.273,39.277,3.353
	c11.772-9.92,13.274-27.505,3.353-39.276C43.707,2.265,26.123,0.765,14.35,10.686z M14.834,46.812
	c-7.611-9.031-7.325-22.081,0.139-30.754l30.194,35.83C35.355,57.776,22.445,55.845,14.834,46.812z M49.568,47.807L19.581,12.223
	c9.746-5.847,22.566-3.929,30.125,5.041C57.265,26.233,56.98,39.193,49.568,47.807z"/>
</svg>
