<?xml version="1.0" encoding="utf-8"?>
<!-- Generator: Adobe Illustrator 16.0.4, SVG Export Plug-In . SVG Version: 6.00 Build 0)  -->
<svg version="1.2" baseProfile="tiny" xmlns="http://www.w3.org/2000/svg" xmlns:xlink="http://www.w3.org/1999/xlink"
	 x="0px" y="0px" width="64px" height="64px" viewBox="0 0 64 64" xml:space="preserve">
<g>
	<path fill-rule="evenodd" d="M32.188,3.672C16.542,3.672,3.859,16.354,3.859,32c0,15.644,12.684,28.328,28.33,28.328
		c15.646,0,28.328-12.685,28.328-28.328C60.517,16.354,47.834,3.672,32.188,3.672z M8.516,36.752
		c-0.317-1.559-0.483-4.822-0.483-4.822s0.327-4.55,0.936-6.666c2.198,0.13,43.284,0.047,46.226,0.047
		c0.602,2.104,0.923,6.619,0.923,6.619s-0.157,3.168-0.456,4.682C50.49,36.611,13.651,36.752,8.516,36.752z"/>
</g>
</svg>
