<?xml version="1.0" encoding="utf-8"?>
<!-- Generated by IcoMoon.io -->
<!DOCTYPE svg PUBLIC "-//W3C//DTD SVG 1.1//EN" "http://www.w3.org/Graphics/SVG/1.1/DTD/svg11.dtd">
<svg version="1.1" xmlns="http://www.w3.org/2000/svg" xmlns:xlink="http://www.w3.org/1999/xlink" width="32" height="32" viewBox="0 0 32 32">
<g id="icomoon-ignore">
</g>
<path d="M31.27 27.786l-5.778-5.778c1.584-2.268 2.52-5.022 2.52-7.998 0-7.732-6.27-14-14-14s-14 6.268-14 14c0 7.732 6.268 14 14 14 2.976 0 5.732-0.936 8-2.52l5.778 5.778c0.96 0.96 2.52 0.96 3.48 0s0.96-2.518 0-3.482zM14.010 24.012c-5.522 0-10-4.476-10-10s4.478-10 10-10c5.524 0 10 4.476 10 10 0.002 5.524-4.474 10-10 10z" fill="#000000"></path>
</svg>
