<?xml version="1.0" encoding="utf-8"?>
<!-- Generator: Adobe Illustrator 16.0.4, SVG Export Plug-In . SVG Version: 6.00 Build 0)  -->
<!DOCTYPE svg PUBLIC "-//W3C//DTD SVG 1.1//EN" "http://www.w3.org/Graphics/SVG/1.1/DTD/svg11.dtd">
<svg version="1.1" xmlns="http://www.w3.org/2000/svg" xmlns:xlink="http://www.w3.org/1999/xlink" x="0px" y="0px"
	 width="28px" height="28px" viewBox="0 0 28 28" enable-background="new 0 0 28 28" xml:space="preserve">
<g id="icomoon-ignore">
</g>
<g>
	<path d="M25.427,9.114c-0.868,0-1.572-0.705-1.572-1.572c0-0.868,0.704-1.573,1.572-1.573c0.867,0,1.572,0.705,1.572,1.573
		C26.999,8.41,26.294,9.114,25.427,9.114z M25.427,6.458c-0.579,0-1.065,0.47-1.065,1.066s0.468,1.066,1.065,1.066
		c0.578,0,1.066-0.47,1.066-1.066S26.005,6.458,25.427,6.458z"/>
</g>
<g>
	<path d="M23.896,18.86l2.037,0.304c0.126,0.02,0.247-0.054,0.285-0.195l0.339-1.283l0.92-3.591l0.002-0.017
		c0.075-0.501-0.274-0.972-0.775-1.047c-0.5-0.077-0.952,0.259-1.045,0.757l-0.829,3.347l-3.325-0.497
		c-0.141-0.021-0.266,0.07-0.286,0.214l-0.194,1.305c-0.022,0.144,0.068,0.266,0.211,0.288l2.163,0.322l-0.006,0.649l-1.229,1.031
		c-0.145-0.073-0.289-0.128-0.47-0.128c-0.506,0-0.922,0.416-0.922,0.922s0.416,0.922,0.922,0.922s0.922-0.416,0.922-0.922
		c0-0.146-0.036-0.289-0.108-0.416l1.138-0.957l1.176,0.976c-0.055,0.108-0.091,0.252-0.091,0.38c0,0.506,0.415,0.921,0.921,0.921
		c0.507,0,0.922-0.415,0.922-0.921c0-0.507-0.415-0.922-0.922-0.922c-0.181,0-0.343,0.055-0.487,0.146l-1.247-1.049l-0.002-0.536
		L23.896,18.86z M21.679,17.194l3.306,0.494c0.126,0.019,0.249-0.072,0.285-0.196l0.921-3.588l0.002-0.019
		c0.032-0.215,0.237-0.366,0.452-0.334c0.215,0.031,0.366,0.237,0.334,0.452l-0.918,3.57l-0.286,1.055l-4.216-0.631L21.679,17.194z
		 M21.693,21.584c-0.217,0-0.397-0.181-0.397-0.398c0-0.217,0.181-0.397,0.397-0.397s0.397,0.181,0.397,0.397
		C22.091,21.421,21.91,21.584,21.693,21.584z M25.65,20.788c0.218,0,0.398,0.181,0.398,0.397c0,0.218-0.181,0.398-0.398,0.398
		c-0.217,0-0.397-0.181-0.397-0.398C25.235,20.969,25.416,20.788,25.65,20.788z"/>
</g>
<g>
	<path d="M3.229,7.542c0-0.868,0.705-1.572,1.572-1.572c0.867,0,1.572,0.705,1.572,1.572c0,0.867-0.705,1.572-1.572,1.572
		C3.934,9.114,3.229,8.409,3.229,7.542z M3.736,7.524c0,0.596,0.488,1.066,1.066,1.066c0.597,0,1.066-0.47,1.066-1.066
		S5.38,6.458,4.802,6.458S3.736,6.928,3.736,7.524z"/>
</g>
<g>
	<path d="M3.211,18.187v1.156l-1.246,1.048c-0.145-0.09-0.308-0.145-0.489-0.145c-0.505,0-0.922,0.416-0.922,0.921
		c0,0.507,0.417,0.923,0.922,0.923c0.507,0,0.922-0.416,0.922-0.923c0-0.126-0.036-0.271-0.091-0.379l1.175-0.976l1.138,0.958
		c-0.072,0.126-0.108,0.271-0.108,0.415c0,0.507,0.416,0.923,0.922,0.923c0.506,0,0.921-0.416,0.921-0.923
		c0-0.506-0.416-0.921-0.921-0.921c-0.181,0-0.325,0.054-0.47,0.126l-1.229-1.03v-1.192h2.187c0.145,0,0.253-0.108,0.253-0.253
		v-1.319c0-0.145-0.108-0.253-0.253-0.253H2.561l-0.326-3.434c-0.018-0.505-0.415-0.903-0.922-0.903c-0.505,0-0.92,0.416-0.92,0.921
		v0.019l0.379,3.686l0.145,1.319c0.018,0.145,0.127,0.235,0.253,0.235h2.06H3.211z M5.669,17.68H1.404l-0.127-1.084l-0.379-3.669
		c0-0.217,0.181-0.398,0.397-0.398c0.217,0,0.398,0.181,0.398,0.398v0.019l0.38,3.686c0.017,0.127,0.125,0.235,0.252,0.235h3.343
		V17.68z M5.037,21.186c0-0.217,0.181-0.397,0.397-0.397c0.216,0,0.397,0.181,0.397,0.397c0,0.218-0.181,0.398-0.397,0.398
		C5.218,21.584,5.037,21.421,5.037,21.186z M1.875,21.186c0,0.218-0.181,0.398-0.398,0.398S1.08,21.403,1.08,21.186
		c0-0.217,0.18-0.397,0.397-0.397C1.712,20.788,1.893,20.969,1.875,21.186z"/>
</g>
<g>
	<path d="M2.579,10.578c0,0.09,0.018,0.181,0.036,0.271l0.506,4.554v0.019v0.018c0,0.019,0.018,0.036,0.018,0.055
		c0.054,0.233,0.235,0.433,0.489,0.505l3.053,0.868l0.922,1.463v3.435c0,0.144,0.108,0.253,0.253,0.253h1.156
		c0.072,0,0.126-0.018,0.181-0.072c0.036-0.055,0.072-0.108,0.072-0.181v-0.76l0.198,0.326c0.127,0.198,0.344,0.325,0.597,0.325
		c0.145,0,0.271-0.036,0.379-0.108c0.145-0.091,0.271-0.253,0.307-0.435c0.036-0.163,0.018-0.325-0.054-0.47h1.5v1.121
		c0,0.144,0.108,0.253,0.253,0.253h1.138c0.145,0,0.253-0.109,0.253-0.253v-6.451h0.958c0.145,0,0.253-0.108,0.253-0.254v-1.282
		c0-0.146-0.108-0.254-0.253-0.254H6.609c-0.145,0-0.253,0.108-0.253,0.254v1.282c0,0.146,0.108,0.254,0.253,0.254h0.958v0.414
		c-0.072-0.071-0.163-0.107-0.271-0.144l-2.53-0.724l0.29-2.942l1.18,1.226c0.126,0.109,0.289,0.163,0.452,0.163h2.747
		c0.397,0,0.705-0.307,0.705-0.706c0-0.397-0.325-0.704-0.705-0.704H6.939L4.621,9.638l0,0C4.387,9.458,4.097,9.331,3.79,9.331
		C3.103,9.331,2.543,9.892,2.579,10.578z M9.826,21.077l-0.271-0.434h0.561l0.126,0.181c0.072,0.108,0.036,0.253-0.072,0.325
		c-0.037,0.018-0.091,0.036-0.127,0.036C9.952,21.186,9.88,21.149,9.826,21.077z M7.82,14.789H6.862v-0.776h7.662v0.776h-0.958
		c-0.145,0-0.252,0.107-0.252,0.252v6.452h-0.633v-1.12c0-0.145-0.108-0.253-0.252-0.253H8.977c-0.072,0-0.126,0.018-0.181,0.072
		c-0.036,0.054-0.073,0.108-0.073,0.181v1.12H8.091v-6.452C8.091,14.915,7.964,14.789,7.82,14.789z M3.013,10.578
		c0-0.434,0.344-0.777,0.777-0.777c0.181,0,0.362,0.073,0.488,0.181c0.018,0,0.018,0,0.036,0.018l2.445,2.35h2.656l0,0
		c0.127,0,0.235,0.108,0.235,0.234c0,0.126-0.108,0.235-0.235,0.235H6.669l0,0c-0.073,0-0.127-0.018-0.163-0.054l-2.101-2.096l0,0
		c-0.036-0.018-0.073-0.036-0.109-0.036c-0.018,0-0.036,0.018-0.054,0.018c-0.108,0.018-0.181,0.108-0.181,0.217
		c0,0.073,0.036,0.145,0.09,0.181l0,0l0.47,0.527l-0.343,3.466c0,0.055,0.018,0.146,0.163,0.218l0,0l2.692,0.759
		c0.072,0.018,0.108,0.054,0.144,0.108l0.271,0.416v0.885l-0.614-0.976l-3.216-0.903c-0.09-0.036-0.163-0.126-0.163-0.217l0,0
		l-0.506-4.572v-0.018C3.03,10.687,3.03,10.632,3.013,10.578z"/>
</g>
<g>
	<path d="M11.541,13.305H8.829c-0.134,0-0.242-0.108-0.242-0.242s0.108-0.242,0.242-0.242h2.52l0.658-2.894
		c0.029-0.131,0.159-0.212,0.29-0.183c0.13,0.03,0.212,0.16,0.183,0.29l-0.702,3.083C11.752,13.228,11.655,13.305,11.541,13.305z"/>
</g>
<g>
	<path d="M19.38,13.305h-2.713c-0.113,0-0.212-0.078-0.235-0.188l-0.702-3.083c-0.03-0.13,0.052-0.26,0.183-0.29
		c0.13-0.03,0.26,0.052,0.29,0.183l0.659,2.894h2.519c0.134,0,0.242,0.108,0.242,0.242S19.514,13.305,19.38,13.305z"/>
</g>
<path d="M25.719,9.331c-0.308,0-0.596,0.126-0.831,0.307l-2.927,2.259h-2.495c-0.38,0-0.704,0.307-0.704,0.704
	c0,0.398,0.307,0.706,0.704,0.706h2.747c0.162,0,0.325-0.054,0.452-0.163l1.547-1.203l-1.019,3.306l-3.188,0.325
	c-0.037-0.006-0.074-0.001-0.108,0.011l-0.009,0.001v0.001c-0.079,0.031-0.143,0.103-0.155,0.193
	c-0.055,0.392-0.122,0.867-0.193,1.368l0.022-1.833h0.957c0.145,0,0.253-0.108,0.253-0.254v-1.282c0-0.146-0.108-0.254-0.253-0.254
	h-8.186c-0.144,0-0.253,0.108-0.253,0.254v1.282c0,0.146,0.109,0.254,0.253,0.254h0.958v6.451c0,0.144,0.108,0.253,0.252,0.253
	h1.139c0.145,0,0.253-0.107,0.253-0.253v-1.121h1.5l1.426,0.001l0.002,0.36v0.76c0,0.072,0.036,0.126,0.072,0.181
	c0.055,0.055,0.108,0.072,0.181,0.072h1.156c0.028,0,0.055-0.006,0.08-0.014c0.067,0.021,0.143,0.032,0.219,0.032
	c0.143,0,0.289-0.035,0.408-0.102c0.146-0.081,0.24-0.201,0.276-0.348c0.077-0.312,0.627-3.855,0.759-4.711l0.801-0.107
	c0.045-0.007,0.085-0.024,0.117-0.051l2.398-0.22c0.254-0.071,0.435-0.271,0.489-0.506c0-0.019,0.018-0.036,0.018-0.055V15.92
	v-0.019l2.058-5.052c0.018-0.09,0.036-0.181,0.036-0.271C26.967,9.892,26.405,9.331,25.719,9.331z M18.333,20.192
	c-0.055-0.055-0.108-0.072-0.181-0.072H14.7c-0.145,0-0.253,0.108-0.253,0.253v1.12h-0.632v-6.452c0-0.145-0.108-0.252-0.253-0.252
	h-0.958v-0.776h7.662v0.776h-0.958c-0.145,0-0.271,0.126-0.271,0.252v5.611v0.841h-0.633v-1.12
	C18.404,20.301,18.369,20.246,18.333,20.192z M26.46,10.741v0.018l-2.058,5.07c0,0.091-0.072,0.181-0.162,0.217l-2.43,0.242
	c-0.02-0.002-0.04-0.002-0.06,0l-0.98,0.131c-0.107,0.014-0.191,0.098-0.207,0.204c-0.194,1.257-0.713,4.578-0.778,4.851
	c-0.004,0.01-0.019,0.024-0.042,0.038c-0.062,0.035-0.157,0.045-0.218,0.037v-0.886c0.171-1.172,0.565-3.959,0.665-4.66l3.327-0.357
	c0.145-0.072,0.164-0.162,0.164-0.217l1.206-4.02l0.47-0.361c0.054-0.036,0.09-0.108,0.09-0.181c0-0.108-0.072-0.199-0.179-0.217
	c-0.02,0-0.036-0.018-0.056-0.018c-0.036,0-0.072,0.018-0.108,0.036l-2.711,2.096c-0.036,0.036-0.091,0.054-0.163,0.054h-2.746
	c-0.127,0-0.236-0.108-0.236-0.235c0-0.126,0.109-0.234,0.236-0.234h2.656L25.195,10c0.018-0.018,0.018-0.018,0.037-0.018
	c0.125-0.108,0.306-0.181,0.486-0.181c0.435,0,0.777,0.344,0.777,0.777C26.478,10.632,26.478,10.687,26.46,10.741z"/>
</svg>
