<?xml version="1.0" encoding="utf-8"?>
<!-- Generator: Adobe Illustrator 16.0.4, SVG Export Plug-In . SVG Version: 6.00 Build 0)  -->
<svg version="1.2" baseProfile="tiny" xmlns="http://www.w3.org/2000/svg" xmlns:xlink="http://www.w3.org/1999/xlink"
	 x="0px" y="0px" width="64px" height="64px" viewBox="0 0 64 64" xml:space="preserve">
<rect x="37.479" y="27.559" fill="#010101" width="18" height="18"/>
<rect x="17.479" y="7.558" fill="#010101" width="18" height="18"/>
<path fill="#010101" d="M55.629,47.553l-4.863,0.004v1.871l-1.924,0.002v-1.869l-1.805,0.002v3.801l-1.922,0.002l0.057-3.799
	L43.25,47.57v1.871h-1.863v-1.869l-1.865,0.004l0.059,3.801H37.6l0.117-3.799l-1.865,0.004v1.871l-1.922,0.002v-1.869l-1.806,0.004
	v3.742h-1.923v-3.74l-1.805,0.004v1.873h-1.923V47.6h-1.806V51.4l-1.923,0.002l0.001-3.742l-1.748-0.057l-0.059,1.814h-1.922v-1.811
	l-1.865,0.002l0.059,3.742h-1.863v-3.799c0,0-1.865,0.078-1.865,1.871v5.281c0,1.033,0.836,1.871,1.865,1.871h40.281
	c1.029,0,1.863-0.838,1.863-1.871v-5.281C57.492,48.391,56.658,47.553,55.629,47.553z M54.229,51.309h-1.666v-3.75h1.666V51.309z"/>
<path fill="#010101" d="M35.479,27.559h-18v18h18V27.559z M32.987,43.066H19.97V30.049h13.018V43.066z"/>
<path fill="#010101" d="M15.421,45.711l-0.003-1.869h-1.865l-0.002-1.93h1.863L15.41,40.1h-3.787l-0.001-1.93l3.785,0.059
	l-0.003-1.928h-1.865l-0.002-1.871H15.4l-0.002-1.871l-3.789,0.059v-1.986l3.785,0.115l-0.003-1.869h-1.866v-1.93h1.863
	l-0.004-1.812h-3.73v-1.93l3.727,0.002l-0.003-1.812h-1.866v-1.929h1.863l-0.002-1.812h-3.787v-1.929h3.727l0.057-1.754
	l-1.807-0.059v-1.929h1.804l-0.001-1.87l-3.729,0.058L11.635,8.3h3.786c0,0-0.077-1.754-1.864-1.754H8.372
	c-1.029,0-1.864,0.721-1.864,1.754v37.411c0,1.033,0.835,1.871,1.864,1.871h5.185C14.586,47.582,15.421,46.744,15.421,45.711z"/>
<path fill="#010101" d="M37.479,7.558v18h18v-18H37.479z M52.987,23.067H39.97V10.049h13.018V23.067z"/>
</svg>
