<?xml version="1.0" encoding="utf-8"?>
<!-- Generator: Adobe Illustrator 16.0.4, SVG Export Plug-In . SVG Version: 6.00 Build 0)  -->
<svg version="1.2" baseProfile="tiny" xmlns="http://www.w3.org/2000/svg" xmlns:xlink="http://www.w3.org/1999/xlink"
	 x="0px" y="0px" width="64px" height="64px" viewBox="0 0 64 64" xml:space="preserve">
<path fill="#010101" d="M5.212,20.48h31.481l2.216-4.019H5.212V20.48z M5.212,6.057v4.019h37.878V6.057H5.212z M5.212,30.885h25.743
	l2.216-4.019H5.212V30.885z M5.212,37.271v4.019h10.898l-3.766-4.019H5.212z"/>
<path fill="#010101" d="M63.707,36.818l-15.096-2.899l-7.424-13.461l-7.424,13.461l-15.096,2.899L29.18,48.037l-1.91,15.254
	l13.917-6.526l13.918,6.526l-1.909-15.254L63.707,36.818z M41.187,51.183l-8.7,4.079l1.194-9.535l-6.572-7.013l9.437-1.812
	l4.641-8.414l4.641,8.414l9.436,1.812l-6.569,7.013l1.193,9.535L41.187,51.183z"/>
</svg>
