<?xml version="1.0" encoding="utf-8"?>
<!-- Generator: Adobe Illustrator 16.0.4, SVG Export Plug-In . SVG Version: 6.00 Build 0)  -->
<!DOCTYPE svg PUBLIC "-//W3C//DTD SVG 1.1//EN" "http://www.w3.org/Graphics/SVG/1.1/DTD/svg11.dtd">
<svg version="1.1" xmlns="http://www.w3.org/2000/svg" xmlns:xlink="http://www.w3.org/1999/xlink" x="0px" y="0px"
	 width="64px" height="64px" viewBox="0 0 64 64" enable-background="new 0 0 64 64" xml:space="preserve">
<path fill="#010101" d="M32.675,20.425c-2.681,0-5.131-0.971-7.029-2.574v42.84c0,0.724,0.585,1.308,1.308,1.308h11.114
	c0.725,0,1.31-0.584,1.31-1.308V18.109C37.527,19.556,35.204,20.425,32.675,20.425z"/>
<circle fill="#010101" cx="32.674" cy="9.521" r="8.173"/>
<path fill="#010101" d="M22.668,43.359c0,0.722-0.585,1.307-1.308,1.307h-2.125c-0.723,0-1.308-0.585-1.308-1.307V17.695
	c0-0.723,0.585-1.308,1.308-1.308h2.125c0.723,0,1.308,0.585,1.308,1.308V43.359z"/>
<path fill="#010101" d="M47.255,43.359c0,0.722-0.585,1.307-1.307,1.307h-2.126c-0.723,0-1.309-0.585-1.309-1.307V17.695
	c0-0.723,0.586-1.308,1.309-1.308h2.126c0.722,0,1.307,0.585,1.307,1.308V43.359z"/>
</svg>
