<?xml version="1.0" encoding="utf-8"?>
<!-- Generator: Adobe Illustrator 16.0.4, SVG Export Plug-In . SVG Version: 6.00 Build 0)  -->
<svg version="1.2" baseProfile="tiny" xmlns="http://www.w3.org/2000/svg" xmlns:xlink="http://www.w3.org/1999/xlink"
	 x="0px" y="0px" width="64px" height="64px" viewBox="0 0 64 64" xml:space="preserve">
<path fill-rule="evenodd" d="M0.93,3.427v57.146h61.719V3.427H0.93z M38.589,7.903v3.999H25.088l0-4L38.589,7.903z M17.234,30.744
	L31.648,16.33l14.415,14.414h-8.518V44.63H26.057V30.744H17.234z M5.59,12.032l0-4h4h9.501v3.999L9.59,12.032l0,7.46l-4-0.001
	V12.032L5.59,12.032z M5.59,24.029h3.999L9.59,37.531l-4-0.001V24.029z M19.092,55.84H9.59h-4l0-4h0l0-7.459l4-0.001l0,7.46
	l9.501,0.001V55.84z M38.589,55.84H25.088l0-4l13.501,0.001V55.84z M57.935,51.84l0,4h-4h-9.501v-3.999l9.501-0.001l0-7.46l4,0.001
	V51.84L57.935,51.84z M53.935,37.53V24.029h3.999l0.001,13.502L53.935,37.53z M57.935,19.491l-4,0.001l0-7.46l-9.501-0.001V8.032
	h9.501h4l0,4h0L57.935,19.491z"/>
</svg>
