<?xml version="1.0" encoding="utf-8"?>
<!-- Generator: Adobe Illustrator 16.0.4, SVG Export Plug-In . SVG Version: 6.00 Build 0)  -->
<svg version="1.2" baseProfile="tiny" xmlns="http://www.w3.org/2000/svg" xmlns:xlink="http://www.w3.org/1999/xlink"
	 x="0px" y="0px" width="100px" height="100px" viewBox="0 0 100 100" xml:space="preserve">
<path fill="#010101" d="M96.371,50c0-8.861-2.505-17.148-6.838-24.194V17.79h-6.236C74.869,9.094,63.081,3.673,50.044,3.673
	S25.22,9.094,16.792,17.79h-5.796v7.331C6.397,32.313,3.718,40.848,3.718,50s2.68,17.687,7.278,24.879v21.448h78.537V74.194
	C93.866,67.148,96.371,58.861,96.371,50z M93.912,50c0,6.84-1.575,13.317-4.379,19.093V30.907C92.337,36.683,93.912,43.16,93.912,50
	z M75.939,85.381c-0.771-1.06-2.328-0.921-3.136-0.842c-0.347,0.036-0.773,0.146-1.216,0.268c-0.347,0.096-0.929,0.256-1.01,0.266
	c-0.156-0.092-0.488-0.538-0.667-0.776c-0.123-0.164-0.241-0.321-0.354-0.459c-0.409-0.502-0.68-1.126-0.903-2.09
	c-0.114-0.5-0.198-0.965-0.28-1.409c-0.263-1.437-0.511-2.792-1.529-4.378c-0.301-0.467-0.628-0.923-0.956-1.38
	c-0.787-1.092-1.529-2.123-1.842-3.296l-0.396-3.417c-0.267-1.059-1.135-3.988-1.327-4.771c-0.233-0.952-0.717-1.749-1.144-2.453
	c-0.369-0.609-0.719-1.184-0.861-1.771c-0.207-0.861-0.629-1.626-1.001-2.3c-0.436-0.786-0.812-1.466-0.811-2.139
	c0.005-1.361-0.258-2.601-0.514-3.8c-0.204-0.966-0.396-1.877-0.451-2.823c-0.032-0.533-0.098-1.037-0.164-1.534
	c-0.109-0.822-0.195-1.537-0.104-2.312c0.006-0.05,0.011-0.098,0.019-0.147c0.087-0.561,0.331-1.108,0.597-1.688
	c0.276-0.604,0.563-1.229,0.718-1.955c0.135-0.635,0.069-1.209-0.05-1.729c0.064-0.192,0.134-0.364,0.203-0.434
	c0.658-0.646,3.297-0.67,4.291-0.679c0.797-0.007,1.618-0.082,2.44-0.16c0.525-0.05,1.035-0.098,1.531-0.125l1.233,0.383
	c1.45,0.452,3.428,0.326,5.018,0.227l0.624-0.037c0.936-0.051,1.747-0.313,2.465-0.547c0.604-0.194,1.172-0.379,1.738-0.414
	c0.554-0.034,1.109-0.033,1.656-0.026c1.047,0.001,2.106,0.01,3.197-0.209c0.514-0.104,1.087-0.117,1.693-0.132l0.529-0.016
	c0.489-0.018,0.878-0.117,1.192-0.195c0.18-0.046,0.358-0.096,0.564-0.11l0.141-0.011v37.516
	C84.131,78.102,80.349,82.144,75.939,85.381z M87.074,30.326c-0.182-0.231-0.43-0.434-0.774-0.629
	c-0.469-0.269-1.386-0.569-2.005-0.592c-0.718-0.004-1.246,0.269-1.579,0.463c-0.093,0.056-0.19,0.112-0.245,0.129
	c-0.183,0.062-0.387,0.109-0.594,0.16c-0.337,0.081-0.681,0.167-1.003,0.284c-0.403,0.146-0.785,0.331-1.159,0.515
	c-0.456,0.226-0.851,0.419-1.226,0.489c-1.416,0.271-3.062,0.176-4.656,0.079c-0.848-0.049-1.687-0.097-2.494-0.097
	c-0.005,0-0.009,0-0.014,0c0.386-0.145,0.766-0.293,1.149-0.449c0.469-0.19,0.952-0.388,1.481-0.578
	c1.417-0.506,2.498-1.34,3.542-2.147l0.689-0.525c0.473-0.353,1.062-0.511,1.745-0.692c0.779-0.205,1.662-0.44,2.457-1.03
	c0.262-0.197,0.461-0.396,0.65-0.592c0.211-0.219,0.285-0.291,0.441-0.352c0.418-0.166,1.007-0.291,1.526-0.4l0.519-0.112
	c0.541,0.741,1.054,1.501,1.548,2.276V30.326z M68.805,34.603c-1.17-0.107-2.379,0.012-3.543,0.121
	c-0.752,0.07-1.506,0.143-2.359,0.151c-0.632,0.006-1.282,0.024-1.92,0.072c0.014-0.011,0.033-0.031,0.045-0.037
	c0.461-0.239,1.084-0.298,1.744-0.36c0.542-0.053,1.104-0.105,1.677-0.26c0.366-0.098,0.688-0.24,0.99-0.396
	c0.937,0.103,1.906,0.204,2.837,0.036c1.148-0.207,1.982-0.344,3.063-0.344c0.761,0,1.552,0.048,2.351,0.095
	c1.744,0.101,3.546,0.207,5.258-0.119c0.702-0.132,1.287-0.42,1.854-0.697c0.295-0.146,0.594-0.296,0.912-0.411
	c0.237-0.086,0.495-0.146,0.744-0.206c0.275-0.067,0.545-0.135,0.784-0.215c0.299-0.098,0.529-0.23,0.714-0.339
	c0.084-0.05,0.21-0.123,0.254-0.129c0.164,0.009,0.64,0.151,0.839,0.25c0.036,0.175,0.103,0.399,0.235,0.665
	c0.114,0.229,0.24,0.421,0.367,0.584l-0.902,0.765l-0.162,0.004c-0.685,0.017-1.395,0.034-2.116,0.181
	c-0.847,0.171-1.74,0.171-2.699,0.158c-0.607,0-1.211-0.006-1.822,0.032c-0.876,0.056-1.622,0.297-2.344,0.529
	c-0.629,0.204-1.225,0.398-1.84,0.431l-0.646,0.039c-0.88,0.056-2.873-0.124-2.873-0.124L68.805,34.603z M52.544,79.664
	c0.119,0.392,0.221,0.729,0.239,1.067c0.036,0.713-0.042,1.378-0.126,2.082c-0.059,0.496-0.116,0.996-0.142,1.526
	c-0.114,2.421,0.078,4.489,0.604,6.505l0.141,0.538l0.5,0.251c0.027,0.014,0.055,0.025,0.083,0.038
	c0.5,0.566,1.281,1.218,2.019,1.637c-0.081,0.002-0.164,0.005-0.245,0.008c-1.065,0.038-2.167,0.075-3.156-0.031
	c-0.169-0.02-0.261-0.046-0.286-0.046c-0.002,0-0.003,0-0.003,0c-0.024-0.055-0.077-0.229-0.103-0.699
	c-0.018-0.32,0.083-0.745,0.189-1.194c0.177-0.74,0.376-1.579,0.16-2.448c-0.153-0.623-0.14-1.268-0.124-1.952
	c0.018-0.855,0.039-1.825-0.278-2.855c-0.162-0.528-0.417-1.055-0.663-1.563c-0.336-0.696-0.685-1.417-0.692-1.937
	c-0.022-1.44,0.165-2.823,0.363-4.286c0.223-1.641,0.454-3.338,0.369-5.146c-0.037-0.839,0.008-2.638,0.056-4.542
	c0.029-1.124,0.05-2.088,0.064-2.943c0.292,0.646,0.604,1.266,0.96,1.787c0.431,0.631,0.924,1.171,1.403,1.695
	c0.22,0.24,0.434,0.476,0.635,0.711c-0.128,1.564-0.211,2.658-0.307,4.003s-0.802,2.415-1.088,3.011
	c-0.609,1.266-0.897,1.858-0.911,2.897C52.194,78.512,52.381,79.124,52.544,79.664z M30.701,85.171
	c-0.204,0.508-0.542,1.146-0.84,1.713c-0.169,0.318-0.331,0.624-0.464,0.896c-0.044,0.09-0.126,0.259-0.201,0.388
	c-0.011-0.005-0.021-0.011-0.032-0.017c-0.052-0.036-0.101-0.084-0.152-0.132c-0.195-0.178-0.464-0.419-0.843-0.587
	c-0.271-0.122-0.56-0.209-0.848-0.29c0.168-0.121,0.336-0.238,0.464-0.325c0.347-0.239,0.66-0.461,0.863-0.646
	c1.349-1.222,2.038-2.655,2.233-4.647c0.236-2.398,0.678-4.309,1.348-5.841c0.399-0.916,1.094-1.677,1.829-2.484
	c0.653-0.716,1.329-1.456,1.864-2.367c0.215-0.364,0.382-0.721,0.545-1.068c0.246-0.528,1.408-3.479,1.758-4.201
	c0.581-1.198,1.994-4.126,2.173-4.75c0.239-0.84,0.625-1.715,1.145-2.654v6.118c-0.002,0.641,0.009,1.261,0.096,1.893
	c-0.452,0.719-0.905,1.418-1.422,2.08c-0.558,0.712-1.181,1.37-1.84,2.066c-0.416,0.44-0.83,0.879-1.228,1.33
	c-1.042,1.18-1.341,2.427-1.604,3.525c-0.196,0.823-0.366,1.531-0.82,2.144c-1.204,1.618-2.149,3.452-2.94,5.043
	c-0.304,0.608-0.508,1.199-0.705,1.771C30.964,84.463,30.846,84.808,30.701,85.171z M79.829,22.823
	c0.055-0.066,0.105-0.134,0.176-0.194c0.366-0.316,0.771-0.538,1.196-0.772c0.465-0.257,0.965-0.531,1.422-0.936
	c0.482,0.548,0.79,0.946,0.981,1.235c-0.35,0.087-0.704,0.189-1.025,0.317c-0.656,0.258-1.032,0.646-1.308,0.93
	c-0.104,0.107-0.208,0.223-0.351,0.329c-0.415,0.308-0.973,0.455-1.618,0.628c-0.812,0.216-1.732,0.46-2.586,1.095
	c-0.245,0.184-0.483,0.368-0.723,0.552c-0.934,0.722-1.815,1.403-2.866,1.779c-0.564,0.201-1.081,0.411-1.579,0.614
	c-1.065,0.433-1.984,0.806-3.156,1.007c-1.302,0.223-2.172,0.911-2.94,1.52c-0.206,0.163-0.397,0.302-0.592,0.439
	c-0.321-0.027-0.638-0.047-0.939-0.047c-0.01-0.001-0.017-0.001-0.023,0c-0.558,0-1.04-0.177-1.651-0.4
	c-0.394-0.143-0.794-0.288-1.23-0.397c-0.35-0.089-0.701-0.134-1.05-0.173c0.936-0.021,1.89-0.081,2.817-0.453
	c0.57-0.229,1.24-0.353,1.95-0.485c0.998-0.185,2.03-0.376,2.972-0.892c0.637-0.348,1.196-0.732,1.738-1.103
	c0.846-0.581,1.646-1.131,2.616-1.442c0.551-0.179,1.194-0.344,1.87-0.519c1.793-0.462,3.825-0.985,5.205-1.964
	C79.468,23.255,79.676,23.005,79.829,22.823z M37.119,30.548c-0.932-0.451-1.881-0.672-2.802-0.872
	c-0.362-0.078-0.724-0.156-1.081-0.25c-0.769-0.203-1.543-0.377-2.317-0.548c-1.649-0.368-3.209-0.715-4.675-1.355
	c-0.676-0.294-1.305-0.721-1.97-1.171c-0.755-0.512-1.535-1.04-2.465-1.438c-0.283-0.122-0.548-0.272-0.806-0.44
	c0.062,0.032,0.125,0.063,0.189,0.092c0.855,0.395,1.776,0.434,2.589,0.469c0.545,0.023,1.06,0.045,1.462,0.166
	c1.193,0.355,2.309,0.969,3.489,1.615c1.243,0.682,2.528,1.386,3.975,1.819c1.599,0.479,3.239,0.786,4.824,1.083
	c0.934,0.175,1.842,0.346,2.729,0.545c-0.028,0.002-0.053,0.002-0.081,0.003C39.168,30.347,38.146,30.447,37.119,30.548z
	 M36.597,33.066c0.064,0.047,0.122,0.092,0.184,0.14c0.099,0.08,0.207,0.164,0.345,0.263c0.58,0.421,1.086,0.608,1.575,0.788
	c0.154,0.057,0.314,0.117,0.489,0.189c0.34,0.143,0.585,0.399,0.8,0.752c-1.355-0.035-2.767-0.383-4.061-0.709
	c-1.104-0.275-2.674-0.28-3.673-0.165c-0.646,0.077-1.166,0.308-1.583,0.492c-0.347,0.153-0.62,0.275-0.899,0.295
	c-1.501,0.101-3.255-0.182-4.858-0.774c-0.873-0.324-1.747-0.449-2.609-0.488c0.615-0.051,1.212-0.141,1.795-0.229
	c1.013-0.154,1.969-0.298,2.904-0.221C30.187,33.656,33.435,33.373,36.597,33.066z M43.962,55.652
	c-0.042-0.77-0.086-1.565,0.073-2.104c0.245-0.831,0.563-1.639,0.872-2.419c0.824-2.087,1.677-4.243,1.225-7.038
	c-0.165-1.019-0.496-1.962-0.816-2.874c-0.266-0.757-0.516-1.471-0.661-2.191c-0.231-1.141-0.682-1.887-1.117-2.608
	c-0.143-0.239-0.293-0.488-0.444-0.768l-0.451-0.839l-0.089,0.022c-0.336-0.788-0.802-1.566-1.551-2.142
	c1.132-0.064,2.184-0.067,3.158,0.024c0.287,0.028,0.607,0.07,0.947,0.115c1.187,0.154,2.598,0.315,3.8,0.084
	c0.237,0.015,0.466,0.021,0.685,0.018v0.077c0.187,0,0.36-0.017,0.543-0.021c0.02,0,0.041,0.008,0.061,0.008
	c0.039,0,0.078-0.012,0.117-0.014c0.947-0.031,1.859-0.104,2.736-0.188c1.46-0.141,2.838-0.273,4.333-0.153
	c0.351,0.03,0.708,0.045,1.067,0.061c0.47,0.02,0.911,0.051,1.332,0.104c-0.389,0.23-0.677,0.514-0.897,0.751
	c-0.099,0.106-0.235,0.252-0.297,0.286c-0.051,0.03-0.224,0.065-0.35,0.091c-0.305,0.06-0.683,0.135-1.073,0.356
	c-2.127,1.204-1.526,3.024-1.204,4.003c0.016,0.044,0.027,0.086,0.042,0.13c-0.028,0.113-0.062,0.232-0.087,0.34
	c-0.04,0.166-0.076,0.321-0.117,0.46c-0.393,1.4-0.753,2.838-0.945,4.247c-0.003,0.024-0.011,0.045-0.014,0.069
	c-0.014,0.096-0.014,0.185-0.022,0.277c-0.149,1.287-0.157,2.548,0.097,3.728c0.588,2.742,0.372,4.884,0.097,7.593L54.9,56.254
	c-0.177,1.841-0.195,3.723-0.213,5.543c-0.008,0.821-0.031,1.632-0.054,2.445c-0.042-0.057-0.092-0.111-0.131-0.168
	c-1.023-1.504-1.784-4.148-2.289-5.9c-0.38-1.322-0.56-1.924-0.824-2.306c-0.289-0.42-0.733-0.66-1.206-0.66
	c-0.041,0-0.081,0.002-0.122,0.005c-1.009,0.088-1.454,1.06-1.971,2.186c-0.137,0.3-0.264,0.59-0.381,0.775
	c-0.653,1.031-1.285,1.809-2.115,2.6c-0.604,0.576-1.118,1.193-1.594,1.822v-5.861C44.001,56.394,43.981,56.027,43.962,55.652z
	 M47.951,75.052c0.055-0.55,0.29-0.831,0.777-1.367c0.049-0.054,0.1-0.109,0.15-0.167c-0.069,0.81-0.179,1.62-0.293,2.456
	c-0.085,0.639-0.174,1.289-0.244,1.951C48.076,76.916,47.866,75.958,47.951,75.052z M48.607,82.532
	c0.005-0.025,0.009-0.05,0.015-0.075c0.158,0.396,0.343,0.777,0.517,1.14c0.216,0.445,0.419,0.867,0.526,1.217
	c0.2,0.65,0.187,1.312,0.17,2.079c-0.014,0.602-0.027,1.266,0.075,1.972c-0.002-0.003-0.002-0.006-0.003-0.009
	c-0.135-0.354-0.288-0.717-0.444-1.09c-0.562-1.337-1.144-2.721-1.046-4.025C48.446,83.346,48.527,82.94,48.607,82.532z
	 M43.669,77.056c0.482-1.752,0.603-2.753,0.737-4.45s-0.12-5.931-0.12-5.931c-0.009-0.021-0.012-0.043-0.02-0.064
	c0.916-1.481,1.788-2.877,3.024-4.057c0.147-0.14,0.282-0.284,0.42-0.425c-0.269,1.515-0.405,2.795-0.405,2.825
	c-0.007,0.582,0.088,1.365,0.198,2.271c0.143,1.179,0.382,3.149,0.15,3.759c-0.15,0.391-0.413,0.68-0.744,1.046
	c-0.567,0.623-1.273,1.397-1.405,2.787c-0.146,1.506,0.252,2.975,0.604,4.271c0.081,0.298,0.16,0.592,0.232,0.883
	c0.145,0.587,0.003,1.318-0.147,2.091c-0.099,0.506-0.193,1.007-0.229,1.495c-0.143,1.894,0.589,3.631,1.231,5.161
	c0.146,0.347,0.289,0.688,0.415,1.017c0.105,0.273,0.145,0.64,0.187,1.026c0.064,0.596,0.138,1.272,0.461,1.962
	c0.034,0.072,0.072,0.143,0.112,0.209c-0.621-0.049-1.317-0.088-1.96-0.123c0.006-0.03,0.012-0.059,0.02-0.088
	c0.048-0.219,0.102-0.454,0.154-0.772c0.157-0.931,0.336-1.984-0.18-3.267c-0.114-0.285-0.24-0.565-0.369-0.849
	c-0.246-0.541-0.478-1.051-0.608-1.593c-0.231-0.953-0.559-1.694-0.873-2.412c-0.153-0.344-0.31-0.699-0.464-1.099
	C43.395,80.937,43.492,77.698,43.669,77.056z M78.4,20.766c-0.179,0.152-0.319,0.313-0.458,0.479c-0.106,0.126-0.16,0.191-0.23,0.24
	c-1.011,0.716-2.809,1.18-4.396,1.59c-0.727,0.186-1.42,0.366-2.013,0.559c-1.309,0.423-2.297,1.099-3.251,1.753
	c-0.489,0.336-0.981,0.677-1.528,0.976c-0.596,0.325-1.395,0.474-2.239,0.63c-0.795,0.148-1.619,0.301-2.416,0.622
	c-0.642,0.256-1.471,0.271-2.351,0.286c-0.867,0.016-1.767,0.03-2.669,0.269c-0.573,0.15-1.073,0.436-1.513,0.687
	c-0.243,0.138-0.501,0.282-0.722,0.37c1.091-1.96,1.79-4.247,1.79-5.73c0-1.188-0.347-2.29-0.914-3.246h23.614
	C78.872,20.4,78.638,20.562,78.4,20.766z M53.946,23.495c0,2.516-2.148,6.188-3.373,6.907c-0.218,0.03-0.437,0.051-0.655,0.062
	c-1.276-0.562-3.888-4.487-3.888-6.969c0-2.182,1.775-3.958,3.958-3.958S53.946,21.313,53.946,23.495z M45.882,29.725
	c-0.346-0.145-0.709-0.332-0.984-0.478c-0.446-0.237-0.868-0.46-1.291-0.605c-1.85-0.635-3.768-0.993-5.623-1.342
	c-1.591-0.297-3.096-0.579-4.57-1.021c-1.197-0.359-2.313-0.972-3.498-1.62c-1.241-0.68-2.524-1.384-3.966-1.814
	c-0.696-0.208-1.39-0.238-2.061-0.267c-0.644-0.027-1.252-0.053-1.669-0.246c-0.501-0.23-0.874-0.656-1.306-1.15
	c-0.262-0.299-0.56-0.63-0.911-0.932h24.482c-0.567,0.956-0.914,2.058-0.914,3.246C43.571,25.217,44.527,27.719,45.882,29.725z
	 M17.366,21.845c0.663-0.133,0.918,0.062,1.695,0.953c0.239,0.274,0.506,0.579,0.821,0.872c-0.718-0.521-1.541-1.061-2.652-1.339
	c-0.154-0.038-0.312-0.072-0.47-0.104c-0.046-0.011-0.101-0.021-0.154-0.033C16.724,22.068,16.944,21.927,17.366,21.845z
	 M14.715,24.032c0.477,0.374,1.075,0.503,1.548,0.603c0.123,0.025,0.249,0.051,0.37,0.082c0.804,0.201,1.405,0.646,2.104,1.162
	c0.59,0.437,1.259,0.932,2.105,1.295c0.713,0.307,1.364,0.746,2.054,1.213c0.728,0.494,1.481,1.004,2.363,1.39
	c1.322,0.576,2.681,0.938,4.022,1.251c-0.697-0.008-1.395-0.024-2.078-0.08c-1.21-0.095-2.359,0.075-3.469,0.24
	c-0.743,0.112-1.444,0.218-2.138,0.238c-1.136,0.038-1.996-0.319-3.097-0.767c-0.434-0.177-0.879-0.357-1.356-0.522
	c-0.261-0.088-0.727-0.188-1.255-0.291c-0.48-0.093-1.439-0.28-1.792-0.438l-0.643-0.912V25.84
	C13.859,25.226,14.28,24.624,14.715,24.032z M20.66,33.844c-0.087,0.003-0.174,0.005-0.261,0.008
	c-1.154,0.028-2.242,0.061-3.248-0.21c-0.696-0.185-1.363-0.24-2.052-0.274c-0.019-0.053-0.035-0.106-0.041-0.167
	c-0.003-0.028-0.007-0.057-0.012-0.084l0.111-0.587c0.01-0.118,0.017-0.222,0.02-0.316c0.078,0.015,0.157,0.031,0.238,0.046
	c0.391,0.077,0.737,0.139,0.928,0.204c0.434,0.149,0.838,0.314,1.23,0.474C18.52,33.32,19.491,33.717,20.66,33.844z M13.454,35.749
	l1.098,0.056c0.741,0.031,1.382,0.059,1.966,0.214c1.35,0.36,2.675,0.321,3.946,0.292c1.292-0.039,2.516-0.068,3.599,0.331
	c1.917,0.712,4.061,1.056,5.88,0.922c0.711-0.048,1.273-0.299,1.726-0.498c0.335-0.148,0.599-0.266,0.875-0.298
	c0.78-0.091,2.024-0.084,2.786,0.105c1.742,0.441,3.679,0.905,5.649,0.741c0.102,0.255,0.21,0.512,0.337,0.766
	c0.914,1.823,1.565,4.33,2.106,6.538c0.225,0.915-0.147,2.004-0.541,3.156c-0.19,0.559-0.376,1.109-0.502,1.644
	c-0.08,0.335-0.153,0.673-0.229,1.012c-0.33,1.516-0.644,2.947-1.44,4.104c-1.355,1.969-2.207,3.654-2.677,5.304
	c-0.221,0.776-1.194,2.549-1.729,4.08c-0.535,1.531-1.78,3.896-2.065,4.506c-0.131,0.28-0.263,0.568-0.436,0.861
	c-0.406,0.69-0.968,1.306-1.561,1.957c-0.838,0.919-1.705,1.869-2.269,3.156c-0.772,1.771-1.277,3.925-1.54,6.585
	c-0.135,1.375-0.552,2.264-1.438,3.066c-0.143,0.129-0.364,0.276-0.606,0.441c-0.486,0.336-1.031,0.713-1.442,1.16
	c-4.531-3.173-8.437-7.175-11.494-11.79V35.749z M31.604,88.866c0.124-0.254,0.274-0.537,0.433-0.835
	c0.325-0.618,0.696-1.319,0.948-1.946c0.16-0.403,0.293-0.785,0.42-1.155c0.188-0.542,0.349-1.011,0.583-1.476
	c0.744-1.498,1.63-3.218,2.71-4.673c0.757-1.018,1.014-2.091,1.24-3.037c0.225-0.94,0.42-1.752,1.057-2.473
	c0.378-0.431,0.774-0.848,1.169-1.265c0.67-0.709,1.363-1.441,1.99-2.244c0.159-0.204,0.294-0.414,0.442-0.621
	c0.081,3.367-0.783,5.354-1.122,8.339c-0.231,2.039-0.604,3.746,0.322,6.137c0.168,0.438,0.341,0.827,0.508,1.204
	c0.297,0.676,0.554,1.259,0.733,1.998c0.185,0.767,0.489,1.439,0.758,2.03c0.113,0.251,0.228,0.498,0.328,0.749
	c0.256,0.641,0.169,1.157,0.025,2.008c-0.035,0.204-0.078,0.396-0.119,0.575c-0.085,0.38-0.168,0.812-0.143,1.246
	c-4.484-0.632-8.756-1.941-12.7-3.826C31.352,89.351,31.491,89.095,31.604,88.866z M61.701,92.284
	c-0.062-0.103-0.124-0.204-0.204-0.312l-0.137-0.187l-0.193-0.123c-1.088-0.693-2.1-0.521-2.837-0.395
	c-0.439,0.073-0.722,0.114-0.962,0.045c-0.462-0.14-1.526-1.007-1.797-1.409l-0.232-0.349c-0.339-1.565-0.456-3.204-0.367-5.1
	c0.022-0.47,0.076-0.913,0.127-1.354c0.092-0.774,0.187-1.575,0.14-2.495c-0.031-0.638-0.196-1.178-0.341-1.655
	c-0.127-0.423-0.238-0.788-0.234-1.143c0.01-0.669,0.25-1.513,0.695-2.44c0.554-1.151,0.895-3.436,0.857-4.652
	c0.729,1.613,1.242,3.326,1.673,4.987c0.469,1.809,1.627,3.302,2.56,4.503c0.428,0.552,0.646,1.099,0.9,1.73
	c0.195,0.484,0.416,1.035,0.749,1.607c0.559,0.959,1.327,1.626,2.007,2.214c0.713,0.618,1.328,1.151,1.677,1.942
	c0.151,0.345,0.252,0.792,0.359,1.265c0.117,0.521,0.248,1.093,0.477,1.643C65.022,91.26,63.383,91.82,61.701,92.284z
	 M72.901,87.427c-0.256,0.106-0.512,0.213-0.768,0.311c-0.636,0.246-1.295,0.5-2.032,0.913c-0.546,0.309-0.951,0.529-1.349,0.629
	c-0.08-0.265-0.146-0.558-0.214-0.857c-0.129-0.565-0.261-1.149-0.507-1.71c-0.57-1.3-1.499-2.104-2.319-2.813
	c-0.61-0.528-1.138-0.985-1.49-1.591c-0.243-0.418-0.412-0.841-0.593-1.288c-0.28-0.701-0.601-1.498-1.239-2.32
	c-0.835-1.076-1.78-2.294-2.121-3.611c-0.665-2.572-1.496-5.288-3.049-7.709c-0.06-0.093-0.13-0.171-0.193-0.261
	c0.006-0.229,0.011-0.46,0.014-0.688c0.005-0.31,0.008-0.621,0.022-0.931c0.059-1.211,0.072-2.443,0.084-3.679
	c0.012-1.282,0.045-2.586,0.114-3.872c0.285,0.519,0.549,1.019,0.666,1.501c0.232,0.959,0.719,1.76,1.148,2.469
	c0.368,0.606,1.627,2.81,2.012,4.411c0.384,1.602,0.123,3.783,0.372,4.772l0.208,0.815c0.43,1.608,1.342,2.876,2.225,4.101
	c0.302,0.42,0.604,0.84,0.883,1.271c0.756,1.177,0.942,2.197,1.18,3.489c0.087,0.479,0.179,0.98,0.303,1.521
	c0.209,0.9,0.556,2.066,1.396,3.095c0.093,0.112,0.188,0.241,0.286,0.374c0.505,0.674,1.13,1.511,2.082,1.687
	c0.725,0.131,1.519-0.084,2.219-0.277c0.297-0.083,0.582-0.168,0.876-0.198c0.157-0.017,0.36-0.034,0.551-0.045
	C73.413,87.098,73.161,87.268,72.901,87.427z M87.074,20.249v1.946c-0.5-0.663-1.021-1.31-1.555-1.946H87.074z M50.044,6.131
	c11.468,0,21.918,4.43,29.742,11.659H53.019v0.084c-0.906-0.49-1.929-0.795-3.03-0.795c-1.11,0-2.141,0.309-3.053,0.809V17.79
	H20.303C28.126,10.561,38.575,6.131,50.044,6.131z M13.454,20.249h1.115c-0.381,0.455-0.75,0.918-1.115,1.387V20.249z M6.177,50
	c0-7.184,1.745-13.962,4.819-19.951v39.903C7.922,63.962,6.177,57.184,6.177,50z M13.454,93.868V78.364
	c5.518,7.101,13.048,12.556,21.73,15.504H13.454z M87.074,93.868H64.902c3.216-1.092,6.28-2.515,9.137-4.252
	c0.073-0.031,0.137-0.052,0.213-0.087c0.489-0.218,1.152-0.525,1.612-1.083c4.303-2.9,8.094-6.502,11.21-10.642V93.868z"/>
</svg>
