<?xml version="1.0" encoding="utf-8"?>
<!-- Generator: Adobe Illustrator 16.0.4, SVG Export Plug-In . SVG Version: 6.00 Build 0)  -->
<svg version="1.2" baseProfile="tiny" xmlns="http://www.w3.org/2000/svg" xmlns:xlink="http://www.w3.org/1999/xlink"
	 x="0px" y="0px" width="64px" height="64px" viewBox="0 0 64 64" xml:space="preserve">
<g>
	<path fill-rule="evenodd" d="M56.49,3.619L32,3.5c-1.045,0-1.893,0.851-1.893,1.9V58.6c0,1.05,1.893,1.9,1.893,1.9h24.726
		c1.045,0,1.774-1.9,1.774-1.9V5.4C58.5,4.351,57.535,3.619,56.49,3.619z M39.34,56.977h-5.153v-4.968h5.153V56.977z M39.34,49.524
		h-5.153v-4.967h5.153V49.524z M39.34,42.074h-5.153v-4.968h5.153V42.074z M39.34,34.622h-5.153v-4.967h5.153V34.622z M39.34,27.17
		h-5.153v-4.967h5.153V27.17z M39.34,19.719h-5.153v-4.967h5.153V19.719z M39.34,12.268h-5.153V7.3h5.153V12.268z M46.987,49.524
		h-5.153v-4.967h5.153V49.524z M46.987,42.074h-5.153v-4.968h5.153V42.074z M46.987,34.622h-5.153v-4.967h5.153V34.622z
		 M46.987,27.17h-5.153v-4.967h5.153V27.17z M46.987,19.719h-5.153v-4.967h5.153V19.719z M46.987,12.268h-5.153V7.3h5.153V12.268z
		 M54.714,56.977h-5.152v-4.968h5.152V56.977z M54.714,49.524h-5.152v-4.967h5.152V49.524z M54.714,42.074h-5.152v-4.968h5.152
		V42.074z M54.714,34.622h-5.152v-4.967h5.152V34.622z M54.714,27.17h-5.152v-4.967h5.152V27.17z M54.714,19.719h-5.152v-4.967
		h5.152V19.719z M54.714,12.268h-5.152V7.3h5.152V12.268z M26.322,24.4H7.394c-1.045,0-1.893,0.851-1.893,1.9V58.6
		c0,1.05,0.848,1.9,1.893,1.9h18.928c1.045,0,1.893-0.851,1.893-1.9V26.301C28.215,25.251,27.367,24.4,26.322,24.4z M15.813,56.953
		H9.402v-7.841h6.411V56.953z M15.813,46.498H9.402v-7.843h6.411V46.498z M15.813,36.042H9.402V28.2h6.411V36.042z M24.313,56.953
		h-6.411v-7.841h6.411V56.953z M24.313,46.498h-6.411v-7.843h6.411V46.498z M24.313,36.042h-6.411V28.2h6.411V36.042z"/>
</g>
</svg>
