<?xml version="1.0" encoding="utf-8"?>
<!-- Generator: Adobe Illustrator 16.0.4, SVG Export Plug-In . SVG Version: 6.00 Build 0)  -->
<!DOCTYPE svg PUBLIC "-//W3C//DTD SVG 1.1//EN" "http://www.w3.org/Graphics/SVG/1.1/DTD/svg11.dtd">
<svg version="1.1" xmlns="http://www.w3.org/2000/svg" xmlns:xlink="http://www.w3.org/1999/xlink" x="0px" y="0px"
	 width="28px" height="28px" viewBox="0 0 28 28" enable-background="new 0 0 28 28" xml:space="preserve">
<g id="icomoon-ignore">
</g>
<g>
	<g>
		<path d="M18.533,6.235c-1.286,0-2.331-1.045-2.331-2.331c0-1.285,1.045-2.331,2.331-2.331c1.285,0,2.33,1.045,2.33,2.331
			C20.863,5.19,19.818,6.235,18.533,6.235z M18.533,2.11c-0.975,0-1.767,0.793-1.767,1.767c0,0.991,0.774,1.767,1.767,1.767
			c0.974,0,1.766-0.792,1.766-1.767S19.507,2.11,18.533,2.11z"/>
	</g>
	<g>
		<path d="M17.551,26.416c-0.728,0-1.321-0.593-1.321-1.319c0-0.729,0.594-1.322,1.321-1.322c0.272,0,0.487,0.09,0.679,0.186
			l0.066,0.032l2.003-1.68v-2.015h-3.507c-0.162,0-0.281-0.119-0.281-0.282v-2.05c0-0.162,0.119-0.281,0.281-0.281h5.321
			l0.515-5.437l0.002-0.003c0.025-0.727,0.605-1.297,1.32-1.297c0.728,0,1.32,0.593,1.32,1.321v0.022l-0.589,5.721l-0.226,2.049
			c-0.019,0.157-0.133,0.266-0.282,0.266h-3.282v1.958l2.038,1.714l0.068-0.044c0.221-0.138,0.456-0.206,0.699-0.206
			c0.728,0,1.32,0.591,1.32,1.32c0,0.728-0.593,1.319-1.32,1.319c-0.729,0-1.321-0.592-1.321-1.319c0-0.175,0.05-0.382,0.129-0.54
			l0.039-0.079l-1.963-1.632l-1.91,1.607l0.046,0.08c0.102,0.177,0.153,0.381,0.153,0.592C18.87,25.823,18.279,26.416,17.551,26.416
			z M22.969,25.101c0.002,0.393,0.335,0.723,0.729,0.723c0.395,0,0.729-0.333,0.729-0.727c0-0.396-0.334-0.729-0.729-0.729
			c-0.215,0-0.416,0.086-0.554,0.235C23.016,24.74,22.954,24.917,22.969,25.101z M17.551,24.367c-0.396,0-0.729,0.333-0.729,0.729
			c0,0.394,0.333,0.727,0.729,0.727c0.415,0,0.729-0.312,0.729-0.727C18.279,24.7,17.945,24.367,17.551,24.367z M17.074,19.762
			h6.834l0.208-1.783l0.59-5.704v-0.006c0-0.395-0.334-0.729-0.729-0.729s-0.729,0.333-0.729,0.729v0.022l-0.588,5.721
			c-0.021,0.145-0.148,0.265-0.283,0.265h-5.304V19.762z"/>
	</g>
	<g>
		<path d="M3.011,12.775c-0.073,0-0.156-0.037-0.222-0.1c-0.038-0.061-0.059-0.144-0.06-0.232l0.757-6.027
			c0.02-0.16,0.134-0.268,0.283-0.268H4.47v-4.04c0-0.164,0.118-0.282,0.282-0.282h1.684c0.074,0,0.143,0.03,0.191,0.086
			C6.677,1.969,6.7,2.046,6.69,2.123l0,0.007v8.651c0,0.164-0.119,0.282-0.282,0.282H4.724c-0.164,0-0.282-0.119-0.282-0.282V6.741
			H4.008l-0.673,5.471h2.68c0.164,0,0.282,0.118,0.282,0.282s-0.119,0.282-0.282,0.282H3.011z M5.062,10.472h1.092V2.419H5.062
			V10.472z"/>
	</g>
	<g>
		<path d="M11.993,26.276c-0.087,0-0.139-0.021-0.195-0.073c-0.047-0.07-0.087-0.134-0.087-0.209v-1.573l-0.514,0.842
			c-0.183,0.286-0.486,0.451-0.832,0.451c-0.201,0-0.379-0.049-0.528-0.148c-0.216-0.136-0.383-0.371-0.43-0.604
			c-0.051-0.231-0.025-0.459,0.075-0.658l0.081-0.161h-2.62v1.852c0,0.163-0.119,0.282-0.282,0.282H4.892
			c-0.164,0-0.282-0.119-0.282-0.282V15.863H3.011c-0.164,0-0.282-0.119-0.282-0.282v-1.993c0-0.163,0.118-0.282,0.282-0.282h12.714
			c0.163,0,0.282,0.119,0.282,0.282v1.993c0,0.163-0.119,0.282-0.282,0.282h-1.599v1.024l0.189-0.189
			c0.09-0.091,0.207-0.142,0.378-0.198l4.014-1.146l-0.478-5.121l-2.938,2.286c-0.174,0.148-0.398,0.229-0.634,0.229h-4.266
			c-0.561,0-0.984-0.423-0.984-0.984c0-0.542,0.441-0.984,0.984-0.984h3.911l4.576-3.531c0.27-0.207,0.7-0.454,1.224-0.454
			c0.492,0,0.967,0.203,1.302,0.556c0.327,0.344,0.493,0.793,0.468,1.265v0.006c0,0.129-0.026,0.26-0.054,0.398l-0.001,0.005
			l-0.788,7.083v0.051c0,0.001-0.001,0.003-0.002,0.004c-0.009,0.019-0.021,0.043-0.024,0.076c-0.079,0.332-0.339,0.599-0.679,0.695
			l-4.784,1.359L14.07,20.63v5.364c0,0.163-0.117,0.282-0.281,0.282H11.993z M12.244,23.624c0.048,0.07,0.087,0.134,0.087,0.209
			v1.851h1.204V15.553c0-0.127,0.139-0.282,0.311-0.282h1.599v-1.428H3.321v1.428H4.92c0.164,0,0.282,0.119,0.282,0.282v10.131
			h1.204v-1.851c0-0.164,0.119-0.282,0.282-0.282h5.362C12.136,23.551,12.188,23.57,12.244,23.624z M9.994,24.471
			c-0.072,0.109-0.096,0.236-0.067,0.362c0.028,0.122,0.102,0.228,0.208,0.299l0.006,0.004l0.006,0.003
			c0.062,0.031,0.165,0.068,0.247,0.068c0.176,0,0.319-0.071,0.425-0.213l0.003-0.004l0.53-0.848h-1.128L9.994,24.471z
			 M14.882,16.962c-0.151,0.038-0.228,0.125-0.286,0.213l-0.44,0.675v1.792l1.137-1.805l4.96-1.393l0.006-0.003
			c0.185-0.073,0.318-0.255,0.322-0.433l0.786-7.102V8.89c0.013-0.043,0.021-0.085,0.026-0.125c0.007-0.039,0.013-0.075,0.023-0.109
			l0.006-0.018V8.621c0-0.739-0.578-1.318-1.317-1.318c-0.283,0-0.58,0.106-0.804,0.285c-0.034,0.007-0.057,0.024-0.084,0.052
			l-4.708,3.621h-4.087c-0.258,0-0.476,0.218-0.476,0.476s0.218,0.476,0.476,0.476h4.266c0.139,0,0.248-0.038,0.325-0.112
			l4.197-3.246c0.034-0.018,0.071-0.035,0.099-0.038c0.001,0,0.001,0.001,0.002,0.001c0.019,0.009,0.045,0.022,0.08,0.026
			c0.109,0.021,0.182,0.111,0.182,0.226c0,0.075-0.038,0.152-0.091,0.188l-0.006,0.004L18.697,9.86l0.538,5.697
			c-0.001,0.06-0.023,0.146-0.182,0.229L14.882,16.962z"/>
	</g>
</g>
</svg>
