<svg xmlns="http://www.w3.org/2000/svg" data-name="Layer 1" viewBox="0 0 300 300" x="0px" y="0px"><defs><style>.cls-1{fill:#010101;}</style></defs><title>Fish Bones</title><path class="cls-1" d="M150,220.3h0c-15.54,0-29.17-16.72-29.17-35.78,0-.89,0-1.77.09-2.61a6,6,0,0,1,6-5.58H147V100.86L130.53,90a3,3,0,0,1-.75-0.7,6,6,0,0,1-1.2-3.58,6,6,0,0,1,6-6h30.87A6,6,0,0,1,170.78,83a5.94,5.94,0,0,1-.55,6.24,3,3,0,0,1-.76.72L153,100.87v75.47h20.11a6,6,0,0,1,5.88,4.93,24.5,24.5,0,0,1,.37,4.32c0,7.67-3.31,16.35-8.85,23.22C164.63,216.11,157.15,220.3,150,220.3Zm-23.12-38c0,0.68,0,1.42,0,2.18,0,15.58,11,29.76,23.15,29.76h0c5.32,0,11.09-3.37,15.83-9.26s7.52-13.1,7.52-19.44a18.29,18.29,0,0,0-.27-3.27l-23.07,0H126.88ZM135,85.72l15,9.92,15.06-10Z"></path><path class="cls-1" d="M170.79,170.3H129.21a3,3,0,1,1,0-6h41.59A3,3,0,0,1,170.79,170.3Z"></path><path class="cls-1" d="M176.74,158.27H123.26a3,3,0,1,1,0-6h53.47A3,3,0,0,1,176.74,158.27Z"></path><path class="cls-1" d="M176.74,146.24H123.26a3,3,0,1,1,0-6h53.47A3,3,0,0,1,176.74,146.24Z"></path><path class="cls-1" d="M173.76,134.3H126.23a3,3,0,0,1,0-6h47.53A3,3,0,0,1,173.76,134.3Z"></path><path class="cls-1" d="M167.82,122.27H132.28a3,3,0,0,1,0-6h35.54A3,3,0,0,1,167.82,122.27Z"></path><path class="cls-1" d="M161.8,110.28H138a3,3,0,0,1,0-6H161.8A3,3,0,0,1,161.8,110.28Z"></path><path class="cls-1" d="M156.64,201.77a8,8,0,1,1,8-8A8,8,0,0,1,156.64,201.77Zm0-10a2,2,0,1,0,2,2A2,2,0,0,0,156.64,191.74Z"></path></svg>