<svg xmlns="http://www.w3.org/2000/svg" xmlns:xlink="http://www.w3.org/1999/xlink" version="1.1" x="0px" y="0px" width="62.735px" height="100px" viewBox="0 0 62.735 100" enable-background="new 0 0 62.735 100" xml:space="preserve">
<path d="M44.095,12.239H18.76c-0.533,0-0.965-0.432-0.965-0.965s0.432-0.965,0.965-0.965h25.335c0.533,0,0.965,0.432,0.965,0.965  S44.629,12.239,44.095,12.239z"/>
<path d="M47.895,14.893H14.839c-0.4,0-0.724-0.324-0.724-0.724s0.324-0.724,0.724-0.724h33.056c0.4,0,0.724,0.324,0.724,0.724  S48.295,14.893,47.895,14.893z"/>
<path d="M47.895,17.788H14.839c-0.4,0-0.724-0.324-0.724-0.724s0.324-0.724,0.724-0.724h33.056c0.4,0,0.724,0.324,0.724,0.724  S48.295,17.788,47.895,17.788z"/>
<path d="M47.895,20.684H14.839c-0.4,0-0.724-0.324-0.724-0.724s0.324-0.724,0.724-0.724h33.056c0.4,0,0.724,0.324,0.724,0.724  S48.295,20.684,47.895,20.684z"/>
<path d="M21.873,27.922H9.519c-0.533,0-0.965-0.432-0.965-0.965s0.432-0.965,0.965-0.965h12.354c0.533,0,0.965,0.432,0.965,0.965  S22.406,27.922,21.873,27.922z"/>
<path d="M37.43,31.059H9.29c-0.4,0-0.724-0.324-0.724-0.724s0.324-0.724,0.724-0.724h28.14c0.4,0,0.724,0.324,0.724,0.724  S37.83,31.059,37.43,31.059z"/>
<path d="M53.445,31.059h-9.151c-0.4,0-0.724-0.324-0.724-0.724s0.324-0.724,0.724-0.724h9.151c0.4,0,0.724,0.324,0.724,0.724  S53.845,31.059,53.445,31.059z"/>
<path d="M37.43,33.954H9.29c-0.4,0-0.724-0.324-0.724-0.724s0.324-0.724,0.724-0.724h28.14c0.4,0,0.724,0.324,0.724,0.724  S37.83,33.954,37.43,33.954z"/>
<path d="M53.445,33.954h-9.151c-0.4,0-0.724-0.324-0.724-0.724s0.324-0.724,0.724-0.724h9.151c0.4,0,0.724,0.324,0.724,0.724  S53.845,33.954,53.445,33.954z"/>
<path d="M37.43,36.85H9.29c-0.4,0-0.724-0.324-0.724-0.724s0.324-0.724,0.724-0.724h28.14c0.4,0,0.724,0.324,0.724,0.724  S37.83,36.85,37.43,36.85z"/>
<path d="M53.445,36.85h-9.151c-0.4,0-0.724-0.324-0.724-0.724s0.324-0.724,0.724-0.724h9.151c0.4,0,0.724,0.324,0.724,0.724  S53.845,36.85,53.445,36.85z"/>
<path d="M37.43,39.745H9.29c-0.4,0-0.724-0.324-0.724-0.724s0.324-0.724,0.724-0.724h28.14c0.4,0,0.724,0.324,0.724,0.724  S37.83,39.745,37.43,39.745z"/>
<path d="M53.445,39.745h-9.151c-0.4,0-0.724-0.324-0.724-0.724s0.324-0.724,0.724-0.724h9.151c0.4,0,0.724,0.324,0.724,0.724  S53.845,39.745,53.445,39.745z"/>
<path d="M59.598,95H3.137V5h56.461V95z M5.067,93.07h52.601V6.93H5.067V93.07z"/>
<path d="M21.677,46.26H9.322c-0.533,0-0.965-0.432-0.965-0.965s0.432-0.965,0.965-0.965h12.355c0.533,0,0.965,0.432,0.965,0.965  S22.21,46.26,21.677,46.26z"/>
<path d="M53.641,49.397H9.093c-0.4,0-0.724-0.324-0.724-0.724c0-0.4,0.324-0.724,0.724-0.724h44.548c0.4,0,0.724,0.324,0.724,0.724  C54.365,49.073,54.041,49.397,53.641,49.397z"/>
<path d="M53.641,52.292H9.093c-0.4,0-0.724-0.324-0.724-0.724s0.324-0.724,0.724-0.724h44.548c0.4,0,0.724,0.324,0.724,0.724  S54.041,52.292,53.641,52.292z"/>
<path d="M21.677,58.807H9.322c-0.533,0-0.965-0.432-0.965-0.965s0.432-0.965,0.965-0.965h12.355c0.533,0,0.965,0.432,0.965,0.965  S22.21,58.807,21.677,58.807z"/>
<path d="M53.641,61.944H9.093c-0.4,0-0.724-0.324-0.724-0.724c0-0.4,0.324-0.724,0.724-0.724h44.548c0.4,0,0.724,0.324,0.724,0.724  C54.365,61.619,54.041,61.944,53.641,61.944z"/>
<path d="M53.641,64.839H9.093c-0.4,0-0.724-0.324-0.724-0.724s0.324-0.724,0.724-0.724h44.548c0.4,0,0.724,0.324,0.724,0.724  C54.365,64.515,54.041,64.839,53.641,64.839z"/>
<path d="M53.641,67.735H9.093c-0.4,0-0.724-0.324-0.724-0.724s0.324-0.724,0.724-0.724h44.548c0.4,0,0.724,0.324,0.724,0.724  C54.365,67.41,54.041,67.735,53.641,67.735z"/>
<path d="M53.641,70.63H9.093c-0.4,0-0.724-0.324-0.724-0.724s0.324-0.724,0.724-0.724h44.548c0.4,0,0.724,0.324,0.724,0.724  C54.365,70.306,54.041,70.63,53.641,70.63z"/>
<path d="M53.249,59.048h-9.152c-0.4,0-0.724-0.324-0.724-0.724s0.324-0.724,0.724-0.724h9.152c0.4,0,0.724,0.324,0.724,0.724  S53.649,59.048,53.249,59.048z"/>
<path d="M21.677,76.18H9.322c-0.533,0-0.965-0.432-0.965-0.965s0.432-0.965,0.965-0.965h12.355c0.533,0,0.965,0.432,0.965,0.965  S22.21,76.18,21.677,76.18z"/>
<path d="M53.641,79.316H9.093c-0.4,0-0.724-0.324-0.724-0.724s0.324-0.724,0.724-0.724h44.548c0.4,0,0.724,0.324,0.724,0.724  C54.365,78.992,54.041,79.316,53.641,79.316z"/>
<path d="M53.641,82.212H9.093c-0.4,0-0.724-0.324-0.724-0.724s0.324-0.724,0.724-0.724h44.548c0.4,0,0.724,0.324,0.724,0.724  C54.365,81.888,54.041,82.212,53.641,82.212z"/>
<path d="M53.641,85.107H9.093c-0.4,0-0.724-0.324-0.724-0.724s0.324-0.724,0.724-0.724h44.548c0.4,0,0.724,0.324,0.724,0.724  C54.365,84.783,54.041,85.107,53.641,85.107z"/>
<path d="M53.641,88.003H9.093c-0.4,0-0.724-0.324-0.724-0.724s0.324-0.724,0.724-0.724h44.548c0.4,0,0.724,0.324,0.724,0.724  C54.365,87.678,54.041,88.003,53.641,88.003z"/>
<path d="M53.249,76.421h-9.152c-0.4,0-0.724-0.324-0.724-0.724s0.324-0.724,0.724-0.724h9.152c0.4,0,0.724,0.324,0.724,0.724  S53.649,76.421,53.249,76.421z"/>
</svg>