<?xml version="1.0" encoding="utf-8"?>
<!-- Generator: Adobe Illustrator 16.0.4, SVG Export Plug-In . SVG Version: 6.00 Build 0)  -->
<svg version="1.2" baseProfile="tiny" xmlns="http://www.w3.org/2000/svg" xmlns:xlink="http://www.w3.org/1999/xlink"
	 x="0px" y="0px" width="64px" height="64px" viewBox="0 0 64 64" xml:space="preserve">
<path fill="#010101" d="M20.121,14.549H6.376c-1.991,0-3.618,1.627-3.618,3.618v28.217c0,1.989,1.627,3.618,3.618,3.618h13.745
	c1.99,0,3.618-1.628,3.618-3.618V18.167C23.739,16.176,22.111,14.549,20.121,14.549z M20.844,43.127H5.651V19.252h15.193V43.127z
	 M15.021,46.585c0,0.979-0.793,1.772-1.772,1.772s-1.772-0.793-1.772-1.772s0.793-1.772,1.772-1.772S15.021,45.606,15.021,46.585z"
	/>
<path fill="#010101" d="M60.956,46.543V32.799c0-1.991-1.627-3.619-3.618-3.619H29.122c-1.989,0-3.618,1.628-3.618,3.619v13.744
	c0,1.991,1.628,3.619,3.618,3.619h28.216C59.329,50.162,60.956,48.534,60.956,46.543z M32.378,47.267V32.074h23.876v15.193H32.378z
	 M28.919,41.444c-0.979,0-1.772-0.794-1.772-1.772s0.793-1.772,1.772-1.772c0.979,0,1.773,0.794,1.773,1.772
	S29.898,41.444,28.919,41.444z"/>
<path fill="#010101" d="M25.876,16.479c15.982,0,17.324,4.126,17.426,7.234h-2.689l3.464,3.86l3.464-3.86h-2.314
	c-0.102-4.175-1.968-9.165-19.35-9.165"/>
</svg>
