<?xml version="1.0" encoding="utf-8"?>
<!-- Generated by IcoMoon.io -->
<!DOCTYPE svg PUBLIC "-//W3C//DTD SVG 1.1//EN" "http://www.w3.org/Graphics/SVG/1.1/DTD/svg11.dtd">
<svg version="1.1" xmlns="http://www.w3.org/2000/svg" xmlns:xlink="http://www.w3.org/1999/xlink" width="32" height="32" viewBox="0 0 32 32">
<g id="icomoon-ignore">
</g>
<path d="M10.060 7.274h-6.872c-0.995 0-1.809 0.813-1.809 1.809v14.109c0 0.994 0.814 1.809 1.809 1.809h6.872c0.995 0 1.809-0.814 1.809-1.809v-14.108c0-0.995-0.814-1.809-1.809-1.809zM10.422 21.564h-7.596v-11.938h7.596v11.938zM7.511 23.293c0 0.489-0.396 0.886-0.886 0.886s-0.886-0.396-0.886-0.886 0.396-0.886 0.886-0.886 0.886 0.396 0.886 0.886z" fill="#000000"></path>
<path d="M30.478 23.271v-6.872c0-0.995-0.814-1.809-1.809-1.809h-14.108c-0.995 0-1.809 0.814-1.809 1.809v6.872c0 0.995 0.814 1.809 1.809 1.809h14.108c0.995 0 1.809-0.814 1.809-1.809zM16.189 23.634v-7.596h11.938v7.596h-11.938zM14.46 20.722c-0.489 0-0.886-0.397-0.886-0.886s0.396-0.886 0.886-0.886c0.489 0 0.886 0.397 0.886 0.886s-0.397 0.886-0.886 0.886z" fill="#000000"></path>
<path d="M12.938 8.239c7.991 0 8.662 2.063 8.713 3.617h-1.345l1.732 1.93 1.732-1.93h-1.157c-0.051-2.088-0.984-4.582-9.675-4.582z" fill="#000000"></path>
</svg>
