<?xml version="1.0" encoding="utf-8"?>
<!-- Generator: Adobe Illustrator 16.0.4, SVG Export Plug-In . SVG Version: 6.00 Build 0)  -->
<!DOCTYPE svg PUBLIC "-//W3C//DTD SVG 1.1//EN" "http://www.w3.org/Graphics/SVG/1.1/DTD/svg11.dtd">
<svg version="1.1" xmlns="http://www.w3.org/2000/svg" xmlns:xlink="http://www.w3.org/1999/xlink" x="0px" y="0px"
	 width="28px" height="28px" viewBox="0 0 28 28" enable-background="new 0 0 28 28" xml:space="preserve">
<g id="icomoon-ignore">
</g>
<path d="M14.077,27.25c-1.55,0-2.878-1.192-3.119-2.754H5.443c-1.477,0-2.679-1.202-2.679-2.68c0-1.514,1.202-2.717,2.679-2.717
	c0.224,0,0.38-0.157,0.38-0.35v-6.742c0-3.507,2.206-6.598,5.508-7.749V4c0-1.459,1.188-2.646,2.648-2.646h0.102
	c1.459,0,2.647,1.187,2.647,2.646v0.18c3.432,1.074,5.812,4.298,5.812,7.905v6.666c0,0.192,0.157,0.35,0.351,0.35
	c1.45,0,2.404,1.078,2.404,2.682c0,1.638-0.954,2.715-2.373,2.715h-5.681C17,26.058,15.672,27.25,14.124,27.25H14.077z
	 M12.727,24.496c0.206,0.596,0.753,1.029,1.349,1.029c0.637,0,1.19-0.434,1.397-1.029H12.727z M5.443,20.824
	c-0.526,0-0.955,0.43-0.955,0.957c0,0.562,0.428,0.99,0.955,0.99h17.479c0.537,0,0.649-0.52,0.649-0.955
	c0-0.472-0.112-0.992-0.649-0.992H5.443z M20.848,19.1c-0.021-0.115-0.03-0.232-0.03-0.35v-6.666c0-3.617-2.943-6.559-6.561-6.559
	h-0.225c-3.576,0-6.484,2.908-6.484,6.483v6.742c0,0.117-0.01,0.234-0.03,0.35H20.848z M13.978,3.077
	c-0.46,0-0.844,0.339-0.912,0.781c0.321-0.038,0.645-0.057,0.966-0.057h0.225c0.247,0,0.49,0.012,0.731,0.034
	c-0.078-0.431-0.455-0.758-0.908-0.758H13.978z"/>
</svg>
