<?xml version="1.0" encoding="utf-8"?>
<!-- Generator: Adobe Illustrator 16.0.4, SVG Export Plug-In . SVG Version: 6.00 Build 0)  -->
<!DOCTYPE svg PUBLIC "-//W3C//DTD SVG 1.1//EN" "http://www.w3.org/Graphics/SVG/1.1/DTD/svg11.dtd">
<svg version="1.1" id="Layer_1" xmlns="http://www.w3.org/2000/svg" xmlns:xlink="http://www.w3.org/1999/xlink" x="0px" y="0px"
	 width="32px" height="32px" viewBox="0 0 32 32" enable-background="new 0 0 32 32" xml:space="preserve">
<g id="icomoon-ignore">
</g>
<path d="M27.637,4.363H4.363c-1.601,0-2.91,1.31-2.91,2.909v17.455c0,1.604,1.31,2.909,2.91,2.909h23.273
	c1.6,0,2.91-1.307,2.91-2.909V7.272C30.547,5.673,29.236,4.363,27.637,4.363z M8.146,7.084c0.604,0,1.092,0.474,1.092,1.061
	c0,0.586-0.488,1.062-1.092,1.062s-1.09-0.476-1.09-1.062C7.056,7.558,7.543,7.084,8.146,7.084z M4.146,8.146
	c0-0.586,0.487-1.061,1.092-1.061c0.604,0,1.09,0.472,1.09,1.061c0,0.587-0.486,1.062-1.09,1.062
	C4.632,9.208,4.146,8.731,4.146,8.146z M27.666,24.729H4.334V11.346h23.332V24.729z M27.666,9.02H10.183V7.272h17.483V9.02z"/>
</svg>
