<?xml version="1.0" encoding="utf-8"?>
<!-- Generator: Adobe Illustrator 16.0.4, SVG Export Plug-In . SVG Version: 6.00 Build 0)  -->
<svg version="1.2" baseProfile="tiny" xmlns="http://www.w3.org/2000/svg" xmlns:xlink="http://www.w3.org/1999/xlink"
	 x="0px" y="0px" width="64px" height="64px" viewBox="0 0 64 64" xml:space="preserve">
<path fill-rule="evenodd" d="M43.428,4.926h-22.53c-1.244,0-2.253,1.013-2.253,2.262v51.181c0,1.25,1.009,2.263,2.253,2.263h22.53
	c1.245,0,2.254-1.013,2.254-2.263V7.188C45.682,5.938,44.673,4.926,43.428,4.926z M30.919,56.409h-7.63v-9.333h7.63V56.409z
	 M30.919,43.964h-7.63v-9.335h7.63V43.964z M30.919,31.519h-7.63v-9.333h7.63V31.519z M41.036,43.964h-7.629v-9.335h7.629V43.964z
	 M41.036,31.519h-7.629v-9.333h7.629V31.519z M30.919,19.583h-7.63V10.25h7.63V19.583z M41.036,19.583h-7.629V10.25h7.629V19.583z"
	/>
</svg>
