<?xml version="1.0" encoding="utf-8"?>
<!-- Generated by IcoMoon.io -->
<!DOCTYPE svg PUBLIC "-//W3C//DTD SVG 1.1//EN" "http://www.w3.org/Graphics/SVG/1.1/DTD/svg11.dtd">
<svg version="1.1" xmlns="http://www.w3.org/2000/svg" xmlns:xlink="http://www.w3.org/1999/xlink" width="32" height="32" viewBox="0 0 32 32">
<g id="icomoon-ignore">
</g>
<path d="M14.753 23.265c0 0 0.468 0.997 1.528 0.997s1.465-1.029 1.465-1.029l0.031-3.959h-2.992l-0.031 3.991z" fill="#000000"></path>
<path d="M28.688 3.251c0 0-0.125-0.935-0.811-0.935-0.312 0-12.158 0-12.158 0s-0.873-0.125-0.873 0.873v9.913c0 0 0 0.78-0.686 1.060-0.312 0.031-4.912 1.969-5.369 2.094-1.072 0.398-0.99 1.648-0.99 1.648v10.35c0 0 0.562 0.997 1.496 0.997 0 0 1.496-0.125 1.496-0.997v-10.007h8.011v10.069c0 0 0.281 0.935 1.403 0.935 0 0 1.558-0.063 1.558-0.997v-11.035l3.965-2.033 0.032 7.954c0 0 0.597 1.125 1.535 1.125 0.847 0 1.451-1.123 1.451-1.123l-0.062-19.89zM25.739 12.728h-8.625v-8.291h8.625v8.291z" fill="#000000"></path>
</svg>
