<?xml version="1.0" encoding="utf-8"?>
<!-- Generator: Adobe Illustrator 23.0.1, SVG Export Plug-In . SVG Version: 6.00 Build 0)  -->
<svg version="1.1" id="Layer_1" xmlns="http://www.w3.org/2000/svg" xmlns:xlink="http://www.w3.org/1999/xlink" x="0px" y="0px"
	 viewBox="0 0 16 16" style="enable-background:new 0 0 16 16;" xml:space="preserve">
<g id="icomoon-ignore">
</g>
<path d="M6.2,2.8c-3,0-5.5,2-5.5,4.4c0,1.4,0.8,2.6,2.1,3.5c0,0,0.1,1.5,0.1,2c0.5-0.3,1.8-1.2,1.8-1.2c0.5,0.1,1.1,0.2,1.6,0.2
	c3,0,5.5-2,5.5-4.4C11.7,4.8,9.2,2.8,6.2,2.8z M3.7,7.7c-0.3,0-0.5-0.2-0.5-0.5c0-0.3,0.2-0.5,0.5-0.5c0.3,0,0.5,0.2,0.5,0.5
	C4.2,7.5,3.9,7.7,3.7,7.7z M6.2,7.7c-0.3,0-0.5-0.2-0.5-0.5c0-0.3,0.2-0.5,0.5-0.5c0.3,0,0.5,0.2,0.5,0.5C6.7,7.5,6.4,7.7,6.2,7.7z
	 M8.6,7.7c-0.3,0-0.5-0.2-0.5-0.5c0-0.3,0.2-0.5,0.5-0.5c0.3,0,0.5,0.2,0.5,0.5C9.1,7.5,8.8,7.7,8.6,7.7z"/>
<path d="M12.8,7.5c-0.1,2-1.5,3.8-3.6,4.7l0,0c0.8,0.7,1.7,0.9,2.6,0.9c0.4,0,0.7-0.1,1-0.2c0,0,0.8,0.6,1.2,0.8c0-0.4,0-1.3,0-1.3
	c0.8-0.5,1.3-1.3,1.3-2.2C15.3,8.9,14.4,7.8,12.8,7.5z"/>
</svg>
