<?xml version="1.0" encoding="utf-8"?>
<!-- Generator: Adobe Illustrator 23.0.1, SVG Export Plug-In . SVG Version: 6.00 Build 0)  -->
<svg version="1.1" id="Layer_1" xmlns="http://www.w3.org/2000/svg" xmlns:xlink="http://www.w3.org/1999/xlink" x="0px" y="0px"
	 viewBox="0 0 16 16" style="enable-background:new 0 0 16 16;" xml:space="preserve">
<g id="icomoon-ignore">
</g>
<g>
	<circle cx="3.7" cy="7.2" r="0.5"/>
</g>
<g>
	<circle cx="6.2" cy="7.2" r="0.5"/>
</g>
<g>
	<circle cx="8.6" cy="7.2" r="0.5"/>
</g>
<g>
	<path d="M2.4,13.4v-0.7c0-0.4,0-1.4,0-1.8C1,10,0.3,8.6,0.3,7.2c0-2.7,2.6-4.8,5.9-4.8c3.3,0,5.9,2.2,5.9,4.8
		c0,2.7-2.7,4.8-5.9,4.8c-0.5,0-1-0.1-1.5-0.2C4.3,12.1,3.4,12.7,3,13L2.4,13.4z M6.2,3.2c-2.8,0-5.1,1.8-5.1,4
		c0,1.2,0.7,2.3,1.9,3.1l0.2,0.1l0,0.2c0,0,0,0.7,0,1.3c0.5-0.4,1.1-0.8,1.1-0.8L4.4,11l0.2,0c0.5,0.1,1,0.2,1.5,0.2
		c2.8,0,5.1-1.8,5.1-4C11.3,5,9,3.2,6.2,3.2z"/>
</g>
<g>
	<path d="M14.5,14.4L13.9,14c-0.3-0.2-0.8-0.5-1-0.7c-0.3,0.1-0.6,0.1-1,0.1c-1,0-2-0.3-2.8-0.9C9,12.5,8.9,12.2,9.1,12
		c0.1-0.2,0.4-0.2,0.6-0.1c0.6,0.5,1.4,0.7,2.3,0.7c0.3,0,0.6-0.1,0.9-0.1l0.2,0l0.2,0.1c0,0,0.2,0.2,0.5,0.4c0-0.3,0-0.6,0-0.6
		l0-0.2l0.2-0.1c0.7-0.5,1.1-1.2,1.1-1.9c0-1-0.8-1.9-2-2.2c-0.2-0.1-0.3-0.3-0.3-0.5c0.1-0.2,0.3-0.3,0.5-0.3
		c1.5,0.4,2.6,1.6,2.6,3c0,0.9-0.4,1.8-1.3,2.5c0,0.3,0,0.8,0,1.1L14.5,14.4z"/>
</g>
</svg>
