<?xml version="1.0" encoding="utf-8"?>
<!-- Generator: Adobe Illustrator 23.0.1, SVG Export Plug-In . SVG Version: 6.00 Build 0)  -->
<svg version="1.1" id="Layer_1" xmlns="http://www.w3.org/2000/svg" xmlns:xlink="http://www.w3.org/1999/xlink" x="0px" y="0px"
	 viewBox="0 0 64 64" style="enable-background:new 0 0 64 64;" xml:space="preserve">
<path d="M60.5,32c0-2.8-1.6-5.3-4-6.5c0,0,0-0.1,0-0.1c1.5-2.2,1.6-5.1,0.2-7.6c-1.4-2.5-4.1-3.8-6.8-3.6c0.2-2.7-1.1-5.3-3.6-6.8
	c-2.5-1.5-5.5-1.3-7.7,0.2c-0.1,0-0.1,0-0.2,0c-1.2-2.4-3.7-4.1-6.5-4.1c-2.9,0-5.3,1.7-6.5,4c-2.2-1.5-5.2-1.7-7.7-0.3
	c-2.5,1.4-3.8,4.1-3.6,6.8c-2.7-0.2-5.3,1.1-6.8,3.6C6,20,6.1,23,7.6,25.2c0,0.1-0.1,0.2-0.1,0.3c-2.4,1.2-4,3.7-4,6.5
	c0,2.8,1.6,5.2,3.9,6.4c0,0.1,0,0.1,0.1,0.2c-1.4,2.2-1.6,5.1-0.2,7.5c1.4,2.4,3.9,3.7,6.5,3.7c0.1,0.1,0.2,0.2,0.2,0.2
	c-0.1,2.6,1.2,5.1,3.6,6.5c2.4,1.4,5.2,1.3,7.4,0c0.2,0.1,0.4,0.1,0.6,0.2c1.2,2.2,3.6,3.8,6.4,3.8c2.7,0,5.1-1.5,6.4-3.8
	c0.1,0,0.3-0.1,0.4-0.1c2.2,1.3,5,1.5,7.4,0.1c2.4-1.4,3.7-3.9,3.7-6.5c0.1-0.1,0.2-0.2,0.2-0.2c2.6,0.1,5.1-1.2,6.5-3.6
	c1.4-2.4,1.3-5.3-0.1-7.5c0-0.2,0.1-0.3,0.1-0.5C58.9,37.2,60.5,34.8,60.5,32z M46.9,24.5L27.6,43.9c-0.5,0.5-1.3,0.5-1.8,0
	l-11-11.1c-0.5-0.5-0.5-1.3,0-1.8l2.6-2.6c0.5-0.5,1.3-0.5,1.8,0l7.5,7.6l15.8-15.8c0.5-0.5,1.3-0.5,1.8,0l2.6,2.6
	C47.4,23.2,47.4,24,46.9,24.5z"/>
</svg>
