<?xml version="1.0" encoding="utf-8"?>
<!-- Generator: Adobe Illustrator 23.0.1, SVG Export Plug-In . SVG Version: 6.00 Build 0)  -->
<svg version="1.1" id="Layer_1" xmlns="http://www.w3.org/2000/svg" xmlns:xlink="http://www.w3.org/1999/xlink" x="0px" y="0px"
	 viewBox="0 0 32 32" style="enable-background:new 0 0 32 32;" xml:space="preserve">
<g id="icomoon-ignore">
</g>
<path d="M22.8,12.5l-1.2-1.2c-0.2-0.2-0.6-0.2-0.8,0l-7,7L10.5,15c-0.2-0.2-0.6-0.2-0.8,0l-1.2,1.2c-0.2,0.2-0.2,0.6,0,0.8l4.9,4.9
	c0.2,0.2,0.6,0.2,0.8,0l8.6-8.6C23,13.1,23,12.7,22.8,12.5z"/>
<path d="M16,30.9C7.8,30.9,1.1,24.2,1.1,16S7.8,1.1,16,1.1S30.9,7.8,30.9,16S24.2,30.9,16,30.9z M16,4C9.4,4,4,9.4,4,16
	s5.4,12,12,12s12-5.4,12-12S22.6,4,16,4z"/>
</svg>
