<?xml version="1.0" encoding="utf-8"?>
<!-- Generator: Adobe Illustrator 23.0.1, SVG Export Plug-In . SVG Version: 6.00 Build 0)  -->
<svg version="1.1" id="Layer_1" xmlns="http://www.w3.org/2000/svg" xmlns:xlink="http://www.w3.org/1999/xlink" x="0px" y="0px"
	 viewBox="0 0 64 64" style="enable-background:new 0 0 64 64;" xml:space="preserve">
<g>
	<path d="M32,63.5c-2.9,0-5.7-1.3-7.6-3.4c-2.7,0.9-5.8,0.6-8.3-0.9c-2.5-1.5-4.2-3.9-4.8-6.6c-2.7-0.6-5.1-2.4-6.6-4.9
		c-1.4-2.5-1.7-5.5-0.9-8.1c-2.1-1.9-3.3-4.6-3.3-7.5c0-3,1.3-5.7,3.4-7.6c-0.9-2.7-0.6-5.7,0.9-8.3c1.5-2.5,3.9-4.2,6.6-4.8
		c0.6-2.7,2.4-5.1,4.9-6.6c2.5-1.4,5.5-1.7,8.1-0.9c1.9-2.1,4.6-3.3,7.5-3.3c0,0,0,0,0,0c3,0,5.7,1.3,7.6,3.4
		c2.7-0.9,5.7-0.6,8.3,0.9c2.5,1.5,4.2,3.9,4.8,6.6c2.7,0.6,5.1,2.4,6.6,4.9c1.4,2.5,1.7,5.5,0.9,8.1c2.1,1.9,3.3,4.6,3.3,7.5l0,0
		c0,3-1.3,5.7-3.4,7.6c0.9,2.7,0.6,5.8-0.9,8.3c-1.5,2.5-3.9,4.2-6.6,4.8c-0.6,2.7-2.4,5.1-4.9,6.6c-2.5,1.4-5.5,1.7-8.1,0.9
		C37.6,62.3,34.9,63.5,32,63.5C32,63.5,32,63.5,32,63.5z M25,53.6c0.3,0,0.6,0,0.8,0.1l0.2,0.1c0.1,0,0.2,0.1,0.4,0.1
		c0.8,0.2,1.5,0.7,1.9,1.5c0.8,1.4,2.2,2.2,3.7,2.2c0,0,0,0,0,0c1.6,0,3-0.9,3.7-2.2c0.4-0.7,1.1-1.3,1.9-1.5l0.3-0.1
		c0.8-0.2,1.7-0.1,2.4,0.3c1.3,0.8,3,0.8,4.4,0.1c1.4-0.8,2.2-2.2,2.1-3.8c0-0.8,0.3-1.6,0.9-2.2l0.2-0.2c0.6-0.6,1.4-0.9,2.3-0.9
		c1.6,0.1,3-0.8,3.8-2.1c0.8-1.4,0.8-3.1-0.1-4.4c-0.4-0.7-0.6-1.6-0.3-2.4l0.1-0.4c0.2-0.8,0.8-1.5,1.5-1.9
		c1.4-0.7,2.3-2.2,2.3-3.8c0,0,0,0,0,0c0-1.6-0.9-3.1-2.3-3.8c-0.8-0.4-1.3-1.1-1.5-1.9c0,0,0-0.1,0-0.2c-0.2-0.8,0-1.7,0.4-2.3
		c0.9-1.4,0.9-3.1,0.1-4.5c-0.8-1.4-2.3-2.2-4-2.1c-0.9,0.1-1.7-0.3-2.3-0.9c-0.6-0.6-0.9-1.5-0.9-2.3c0.1-1.6-0.7-3.2-2.1-4
		c-1.4-0.8-3.2-0.8-4.5,0.1c-0.7,0.5-1.6,0.6-2.4,0.4c0,0-0.1,0-0.2,0c-0.8-0.2-1.6-0.8-2-1.6c-0.7-1.5-2.2-2.4-3.8-2.4c0,0,0,0,0,0
		c-1.6,0-3.1,0.9-3.8,2.4c-0.4,0.8-1.1,1.3-1.9,1.6c-0.8,0.2-1.7,0.1-2.4-0.4c-1.4-0.9-3.1-1-4.5-0.2c-1.4,0.8-2.2,2.3-2.1,4
		c0.1,0.9-0.3,1.7-0.9,2.3c-0.6,0.6-1.5,0.9-2.3,0.9c-1.6-0.1-3.2,0.7-4,2.1c-0.8,1.4-0.8,3.1,0.1,4.5c0.5,0.7,0.6,1.6,0.4,2.4
		l-0.1,0.3c-0.2,0.8-0.8,1.5-1.5,1.9c-1.4,0.7-2.3,2.2-2.3,3.8c0,1.6,0.9,3,2.3,3.8c0.8,0.4,1.3,1.1,1.5,1.9l0.1,0.2
		c0.2,0.8,0.1,1.7-0.4,2.3c-0.9,1.3-0.9,3-0.1,4.4c0.8,1.4,2.2,2.2,3.8,2.1c0.8,0,1.6,0.3,2.2,0.9l0.2,0.2c0.6,0.6,1,1.4,0.9,2.3
		c-0.1,1.6,0.8,3,2.1,3.8c1.3,0.8,3,0.8,4.4,0C23.9,53.7,24.5,53.6,25,53.6z"/>
</g>
<g>
	<path d="M46.9,22.8l-2.6-2.6c-0.5-0.5-1.3-0.5-1.8,0L26.7,35.9l-7.5-7.6c-0.5-0.5-1.3-0.5-1.8,0L14.8,31c-0.5,0.5-0.5,1.3,0,1.8
		l11,11.1c0.5,0.5,1.3,0.5,1.8,0l19.3-19.4C47.4,24,47.4,23.2,46.9,22.8z"/>
</g>
</svg>
