<?xml version="1.0" encoding="utf-8"?>
<!-- Generator: Adobe Illustrator 23.0.1, SVG Export Plug-In . SVG Version: 6.00 Build 0)  -->
<svg version="1.1" id="Layer_1" xmlns="http://www.w3.org/2000/svg" xmlns:xlink="http://www.w3.org/1999/xlink" x="0px" y="0px"
	 viewBox="0 0 16 16" style="enable-background:new 0 0 16 16;" xml:space="preserve">
<g id="icomoon-ignore">
</g>
<g>
	<path d="M3.2,15.2v-0.9c0-0.5-0.1-1.8-0.1-2.3c-1.8-1.3-2.7-2.9-2.7-4.8c0-3.4,3.4-6.2,7.6-6.2c4.1,0,7.6,2.8,7.7,6.3
		c0,3.4-3.5,6.2-7.6,6.2c-0.5,0-1.1-0.1-1.9-0.2c-0.4,0.3-1.6,1.1-2.2,1.4L3.2,15.2z M7.9,2.1c-3.6,0-6.6,2.4-6.6,5.2
		c0,2,1.4,3.3,2.5,4.1l0.2,0.1l0,0.2c0,0.1,0.1,0.9,0.1,1.7c0.7-0.5,1.5-1,1.6-1.1l0.2-0.1l0.2,0c0.8,0.2,1.5,0.2,2,0.2
		c3.6,0,6.6-2.4,6.6-5.2C14.5,4.5,11.5,2.1,7.9,2.1z"/>
</g>
<g>
	<rect x="3.5" y="4.9" width="9" height="1"/>
</g>
<g>
	<rect x="3.5" y="6.8" width="9" height="1"/>
</g>
<g>
	<rect x="3.5" y="8.6" width="5.1" height="1"/>
</g>
</svg>
