<?xml version="1.0" encoding="utf-8"?>
<!-- Generator: Adobe Illustrator 23.0.1, SVG Export Plug-In . SVG Version: 6.00 Build 0)  -->
<svg version="1.1" id="Layer_1" xmlns="http://www.w3.org/2000/svg" xmlns:xlink="http://www.w3.org/1999/xlink" x="0px" y="0px"
	 viewBox="0 0 16 16" style="enable-background:new 0 0 16 16;" xml:space="preserve">
<g id="icomoon-ignore">
</g>
<path d="M7.9,1.6c-3.9,0-7.1,2.6-7.1,5.7c0,1.8,1,3.3,2.7,4.5c0,0,0.1,1.9,0.1,2.6C4.3,14,6,12.8,6,12.8c0.6,0.1,1.4,0.3,2.1,0.3
	c3.9,0,7.1-2.6,7.1-5.7C15,4.2,11.8,1.6,7.9,1.6z M8.6,9.6H3.5v-1h5.1V9.6z M12.5,7.8h-9v-1h9V7.8z M12.5,5.9h-9v-1h9V5.9z"/>
</svg>
