<?xml version="1.0" encoding="utf-8"?>
<!-- Generator: Adobe Illustrator 23.0.1, SVG Export Plug-In . SVG Version: 6.00 Build 0)  -->
<svg version="1.1" id="Layer_1" xmlns="http://www.w3.org/2000/svg" xmlns:xlink="http://www.w3.org/1999/xlink" x="0px" y="0px"
	 viewBox="0 0 100 100" style="enable-background:new 0 0 100 100;" xml:space="preserve">
<path d="M87.3,2.8H12.8c-1.8,0-3.3,1.5-3.3,3.3v87.5c0,1.8,1.5,3.3,3.3,3.3h74.6c1.8,0,3.3-1.5,3.3-3.3V6.1
	C90.7,4.3,89.2,2.8,87.3,2.8z M84.5,91H15.6v-82h68.9V91z"/>
<path d="M78.2,43.9c0,1.5-1.2,2.8-2.8,2.8H24.7c-1.5,0-2.8-1.2-2.8-2.8l0,0c0-1.5,1.2-2.8,2.8-2.8h50.6
	C76.9,41.1,78.2,42.3,78.2,43.9L78.2,43.9z"/>
<path d="M78.2,56.1c0,1.5-1.2,2.8-2.8,2.8H24.7c-1.5,0-2.8-1.2-2.8-2.8l0,0c0-1.5,1.2-2.8,2.8-2.8h50.6
	C76.9,53.4,78.2,54.6,78.2,56.1L78.2,56.1z"/>
<path d="M78.2,68.4c0,1.5-1.2,2.8-2.8,2.8H24.7c-1.5,0-2.8-1.2-2.8-2.8l0,0c0-1.5,1.2-2.8,2.8-2.8h50.6
	C76.9,65.6,78.2,66.9,78.2,68.4L78.2,68.4z"/>
<path d="M62.2,80.7c0,1.5-1.2,2.8-2.8,2.8H24.7c-1.5,0-2.8-1.2-2.8-2.8l0,0c0-1.5,1.2-2.8,2.8-2.8h34.7C61,77.9,62.2,79.1,62.2,80.7
	L62.2,80.7z"/>
<path d="M78.2,31.6c0,1.5-1.2,2.8-2.8,2.8H24.7c-1.5,0-2.8-1.2-2.8-2.8l0,0c0-1.5,1.2-2.8,2.8-2.8h50.6
	C76.9,28.8,78.2,30.1,78.2,31.6L78.2,31.6z"/>
<path d="M43.7,19.3c0,1.5-1.2,2.8-2.8,2.8H24.7c-1.5,0-2.8-1.2-2.8-2.8l0,0c0-1.5,1.2-2.8,2.8-2.8h16.2
	C42.4,16.6,43.7,17.8,43.7,19.3L43.7,19.3z"/>
</svg>
