<?xml version="1.0" encoding="utf-8"?>
<!-- Generator: Adobe Illustrator 16.0.4, SVG Export Plug-In . SVG Version: 6.00 Build 0)  -->
<!DOCTYPE svg PUBLIC "-//W3C//DTD SVG 1.1//EN" "http://www.w3.org/Graphics/SVG/1.1/DTD/svg11.dtd">
<svg version="1.1" id="Layer_1" xmlns="http://www.w3.org/2000/svg" xmlns:xlink="http://www.w3.org/1999/xlink" x="0px" y="0px"
	 width="32px" height="32px" viewBox="0 0 32 32" enable-background="new 0 0 32 32" xml:space="preserve">
<g id="icomoon-ignore">
</g>
<path d="M28.361,14.267c-0.976-0.002-1.767,0.787-1.77,1.761l-0.027,10.591L5.382,26.563l0.027-10.591
	c0.002-0.975-0.784-1.768-1.76-1.77c-0.977-0.002-1.768,0.787-1.77,1.761L1.847,28.319c-0.002,0.976,0.785,1.767,1.761,1.77
	l24.712,0.064c0.976,0.003,1.767-0.784,1.77-1.761l0.031-12.356C30.124,15.062,29.337,14.269,28.361,14.267z M17.77,14.239
	l0.028-10.807c0.002-0.855-0.785-1.552-1.762-1.554c-0.975-0.002-1.767,0.689-1.769,1.545L14.239,14.23l-5.295-0.014l7.042,7.08
	l7.079-7.043L17.77,14.239z"/>
</svg>
