<?xml version="1.0" encoding="utf-8"?>
<!-- Generator: Adobe Illustrator 23.0.1, SVG Export Plug-In . SVG Version: 6.00 Build 0)  -->
<svg version="1.1" id="Layer_1" xmlns="http://www.w3.org/2000/svg" xmlns:xlink="http://www.w3.org/1999/xlink" x="0px" y="0px"
	 viewBox="0 0 64 64" style="enable-background:new 0 0 64 64;" xml:space="preserve">
<title>vectors</title>
<path d="M35.2,2.2c-1.5,0-3.6,1-6,2.8c-8.2,6-4.8,19.5-3.6,25.7c1.3,6.3,1.5,11.2-2.5,12.5c-3.9,1.2-7.4-1.7-8-5.4
	c-0.6-4.3-0.8-10.2,0.7-17.3c-3.9,6.4-6.7,13.8-6.7,20.8c0,11.3,10.3,20.5,22.9,20.5s22.9-9.2,22.9-20.5C55,24.2,35.2,26.4,35.2,2.2
	z M36.7,54.6c-6.5,1.5-15.5-1.7-17.1-4.2c10.2,1,13-4.1,13.5-10c0.5-6.2-0.7-14.5-3.4-20.8c9.1,5.5,18,12,18,20.9
	C47.7,48.1,43.2,53.1,36.7,54.6z"/>
</svg>
