<?xml version="1.0" encoding="utf-8"?>
<!-- Generator: Adobe Illustrator 23.0.1, SVG Export Plug-In . SVG Version: 6.00 Build 0)  -->
<svg version="1.1" id="Layer_1" xmlns="http://www.w3.org/2000/svg" xmlns:xlink="http://www.w3.org/1999/xlink" x="0px" y="0px"
	 viewBox="0 0 300 300" style="enable-background:new 0 0 300 300;" xml:space="preserve">
<style type="text/css">
	.st0{fill:#010101;}
</style>
<title>Fish Bones</title>
<path class="st0" d="M150,293L150,293c-31.6,0-59.3-34-59.3-72.8c0-1.8,0-3.6,0.2-5.3c0.4-6.4,5.8-11.4,12.2-11.3l40.8,0l0-153.5
	L110.4,28c-0.6-0.4-1.1-0.9-1.5-1.4c-1.6-2.1-2.4-4.7-2.4-7.3c0-6.7,5.5-12.2,12.2-12.2l62.8,0c4.6,0,8.8,2.6,10.8,6.7
	c2.1,4.1,1.6,9-1.1,12.7c-0.4,0.6-0.9,1.1-1.5,1.5l-33.5,22.2l0,153.5H197c5.9,0,10.9,4.2,12,10c0.5,2.9,0.8,5.8,0.8,8.8
	c0,15.6-6.7,33.2-18,47.2C179.8,284.4,164.5,293,150,293z M103,215.7c0,1.4,0,2.9,0,4.4c0,31.7,22.4,60.5,47.1,60.5l0,0
	c10.8,0,22.6-6.9,32.2-18.8c9.6-12,15.3-26.6,15.3-39.5c0-2.2-0.2-4.5-0.5-6.6l-46.9,0L103,215.7L103,215.7z M119.5,19.3L150,39.4
	l30.6-20.3L119.5,19.3z"/>
<path class="st0" d="M192.3,191.3l-84.6,0c-3.4,0-6.1-2.7-6.1-6.1c0-3.4,2.7-6.1,6.1-6.1l84.6,0c3.4,0,6.1,2.7,6.1,6.1
	S195.7,191.3,192.3,191.3L192.3,191.3z"/>
<path class="st0" d="M204.4,166.8l-108.8,0c-3.4,0-6.1-2.7-6.1-6.1s2.7-6.1,6.1-6.1l0,0l108.7,0c3.4,0,6.1,2.7,6.1,6.1
	C210.5,164.1,207.7,166.8,204.4,166.8z"/>
<path class="st0" d="M204.4,142.3l-108.8,0c-3.4,0-6.1-2.7-6.1-6.1c0-3.4,2.7-6.1,6.1-6.1l0,0l108.7,0c3.4,0,6.1,2.7,6.1,6.1
	C210.5,139.6,207.7,142.3,204.4,142.3z"/>
<path class="st0" d="M198.3,118.1l-96.7,0c-3.4,0-6.1-2.7-6.1-6.1c0-3.4,2.7-6.1,6.1-6.1l96.7,0c3.4,0,6.2,2.7,6.2,6.1
	C204.6,115.4,201.8,118.2,198.3,118.1z"/>
<path class="st0" d="M186.2,93.6l-72.3,0c-3.4,0-6.1-2.7-6.1-6.1s2.7-6.1,6.1-6.1l72.3,0c3.4,0,6.1,2.7,6.1,6.1
	C192.3,90.9,189.6,93.6,186.2,93.6z"/>
<path class="st0" d="M174,69.2l-48.4,0c-3.4,0-6.1-2.7-6.1-6.1c0-3.4,2.7-6.1,6.1-6.1l48.4,0c3.4,0,6.1,2.7,6.1,6.1
	C180.1,66.5,177.4,69.2,174,69.2z"/>
<path class="st0" d="M163.5,255.3c-9,0-16.3-7.3-16.3-16.3s7.3-16.3,16.3-16.3s16.3,7.3,16.3,16.3
	C179.8,248,172.5,255.3,163.5,255.3z M163.5,234.9c-2.2,0-4.1,1.8-4.1,4.1s1.8,4.1,4.1,4.1s4.1-1.8,4.1-4.1
	C167.6,236.8,165.8,234.9,163.5,234.9C163.5,234.9,163.5,234.9,163.5,234.9L163.5,234.9z"/>
</svg>
