<svg xmlns="http://www.w3.org/2000/svg" viewBox="0 0 64 64"><title>vectors</title><path d="M54.27,3.84H9.67a2,2,0,0,0-2,2V58.19a2,2,0,0,0,2,2H54.33a2,2,0,0,0,2-2V5.81A2,2,0,0,0,54.27,3.84ZM52.59,56.63H11.35V7.55H52.59Z"/><path d="M16.8,30.11H27.14a1.67,1.67,0,0,0,1.68-1.67,1.69,1.69,0,0,0-1.74-1.68H16.8a1.68,1.68,0,1,0,0,3.35Z"/><path d="M16.8,37.42H47.14a1.68,1.68,0,0,0,1.68-1.68,1.76,1.76,0,0,0-1.74-1.67H16.8a1.68,1.68,0,1,0,0,3.35Z"/><path d="M16.8,44.78H47.14a1.68,1.68,0,0,0,1.68-1.68,1.73,1.73,0,0,0-1.74-1.67H16.8a1.68,1.68,0,1,0,0,3.35Z"/><path d="M16.8,52.14H37.57a1.67,1.67,0,0,0,1.67-1.67,1.64,1.64,0,0,0-1.67-1.68H16.8a1.68,1.68,0,1,0,0,3.35Z"/><path d="M16.8,22.75H27.14a1.67,1.67,0,0,0,1.68-1.67,1.73,1.73,0,0,0-1.74-1.68H16.8a1.68,1.68,0,1,0,0,3.35Z"/><path d="M16.8,15.39H27.14a1.68,1.68,0,0,0,1.68-1.68A1.73,1.73,0,0,0,27.08,12H16.8a1.68,1.68,0,1,0,0,3.35Z"/><path d="M35.47,30.44H46.54a2,2,0,0,0,2-2V13.71a2,2,0,0,0-2-2H35.47a2,2,0,0,0-2,2V28.44A2,2,0,0,0,35.47,30.44Zm2-14.73h7.07V26.44H37.47Z"/></svg>