<?xml version="1.0" encoding="utf-8"?>
<!-- Generator: Adobe Illustrator 16.0.4, SVG Export Plug-In . SVG Version: 6.00 Build 0)  -->
<svg version="1.2" baseProfile="tiny" xmlns="http://www.w3.org/2000/svg" xmlns:xlink="http://www.w3.org/1999/xlink"
	 x="0px" y="0px" width="100px" height="100px" viewBox="0 0 100 100" xml:space="preserve">
<g>
	<path d="M97.511,97.057H2.225V2.812h95.286V97.057z M5.734,93.547h88.267V6.321H5.734V93.547z"/>
</g>
<g>
	<path d="M19.762,48.166c-2.954,0-5.186-0.956-6.695-2.869c-1.443-1.778-2.165-4.329-2.165-7.651v-2.366h4.732v2.366
		c0,2.182,0.385,3.742,1.157,4.682c0.168,0.235,0.47,0.478,0.906,0.729c0.436,0.252,1.124,0.378,2.064,0.378
		c0.905,0,1.627-0.192,2.164-0.579c0.537-0.386,0.948-0.855,1.233-1.409s0.47-1.158,0.554-1.812s0.126-1.233,0.126-1.737
		c0-0.872-0.135-1.61-0.402-2.215c-0.27-0.604-0.622-1.115-1.058-1.535c-0.437-0.419-0.923-0.771-1.46-1.057s-1.074-0.546-1.61-0.78
		l-0.906-0.403c-0.537-0.234-1.217-0.562-2.039-0.981c-0.822-0.419-1.636-1.015-2.441-1.787c-2.014-1.946-3.021-4.43-3.021-7.45
		c0-1.577,0.209-3.021,0.629-4.33c0.42-1.309,1.023-2.424,1.812-3.348c0.788-0.922,1.729-1.644,2.819-2.164
		c1.09-0.521,2.29-0.78,3.6-0.78c1.812,0,3.247,0.319,4.304,0.956c1.058,0.639,1.854,1.293,2.392,1.964
		c1.442,1.846,2.164,4.413,2.164,7.702v2.366h-4.782v-2.366c0-1.442-0.144-2.567-0.428-3.373c-0.285-0.806-0.646-1.385-1.082-1.737
		c-0.437-0.352-0.89-0.562-1.359-0.629c-0.471-0.066-0.873-0.101-1.208-0.101c-0.975,0-1.729,0.235-2.266,0.705
		c-0.537,0.47-0.948,1.031-1.233,1.687c-0.285,0.654-0.462,1.309-0.528,1.963c-0.068,0.654-0.101,1.15-0.101,1.485
		c0,0.873,0.134,1.619,0.402,2.24s0.62,1.157,1.058,1.61c0.436,0.453,0.931,0.84,1.484,1.158c0.554,0.319,1.133,0.596,1.737,0.83
		l0.805,0.353c0.47,0.201,1.116,0.496,1.938,0.881c0.822,0.387,1.636,0.966,2.441,1.737c2.081,1.913,3.121,4.38,3.121,7.399
		c0,2.854-0.704,5.22-2.114,7.099C24.862,47.109,22.613,48.166,19.762,48.166z"/>
	<path d="M34.762,48.217h-4.883l8.558-37.102h3.775l8.659,37.102h-4.934l-2.366-10.37h-6.443L34.762,48.217z M40.35,24.003
		l-2.114,9.111h4.229L40.35,24.003z"/>
	<path d="M52.885,48.166V11.065h4.732v32.369h11.427v4.731H52.885z"/>
	<path d="M76.545,15.848v11.428h10.621v4.731H76.545v11.478h10.621v4.732H71.812V11.115h15.354v4.732H76.545z"/>
</g>
<g>
	<path d="M90.087,89.717H9.062V52.69h81.025V89.717z M12.571,86.207h74.006V56.2H12.571V86.207z"/>
</g>
</svg>
