<?xml version="1.0" encoding="utf-8"?>
<!-- Generator: Adobe Illustrator 16.0.4, SVG Export Plug-In . SVG Version: 6.00 Build 0)  -->
<svg version="1.2" baseProfile="tiny" xmlns="http://www.w3.org/2000/svg" xmlns:xlink="http://www.w3.org/1999/xlink"
	 x="0px" y="0px" width="64px" height="64px" viewBox="0 0 64 64" xml:space="preserve">
<g>
	<path d="M54.157,40.377l3.262-3.27c2.535-2.534,4.418-6.113,4.418-11.53c0-5.416-1.533-8.96-4.414-11.408
		c-3.054-2.595-7.69-3.809-11.679-3.442c-3.334,0.304-5.85,1.347-8.181,3.362H20.29v13.32h-1.953V7.64H1.217v36.014H20.29l0,12.691
		V56.6h42.18V40.377H54.157z M5.085,40.071V11.462h9.537v19.816h9.536v-13.46h9.537v34.969h-9.537V40.071H5.085z M58.513,52.787
		H37.547l0.017-13.712l12.519-12.52l-3.031-3.389l-5.697,5.694L37.564,25v-5.446l0.006,0.008c1.931-2.321,5.042-4.33,8.05-4.609
		c3.009-0.274,6.343,0.533,8.649,2.486c1.851,1.567,3.693,4.398,3.693,8.656c0,4.257-1.291,6.25-3.725,8.688
		c-2.827,2.831-9.395,9.372-9.395,9.372h13.671V52.787z"/>
	<rect x="8.265" y="20.999" width="3.179" height="3.179"/>
	<rect x="8.265" y="14.642" width="3.179" height="3.179"/>
	<rect x="27.337" y="27.354" width="3.179" height="3.179"/>
	<rect x="8.265" y="27.356" width="3.179" height="3.179"/>
	<rect x="8.265" y="33.714" width="3.179" height="3.18"/>
	<rect x="27.338" y="33.714" width="3.178" height="3.18"/>
	<rect x="20.98" y="33.714" width="3.179" height="3.18"/>
	<rect x="14.623" y="33.714" width="3.179" height="3.18"/>
	<rect x="27.337" y="20.997" width="3.179" height="3.179"/>
	<rect x="27.337" y="46.431" width="3.179" height="3.179"/>
	<rect x="27.337" y="40.071" width="3.179" height="3.18"/>
</g>
</svg>
