<svg xmlns="http://www.w3.org/2000/svg" xmlns:xlink="http://www.w3.org/1999/xlink" version="1.1" x="0px" y="0px" width="100px" height="100px" viewBox="0 0 100 100" enable-background="new 0 0 100 100" xml:space="preserve">
<path d="M50.228,15.304c-14.152,0-25.626,8.629-25.626,19.275v24.515v1.191v14.844v5.13c0,2.036,1.641,3.688,3.665,3.688  c2.021,0,3.662-1.652,3.662-3.688v-5.131c0-2.037,1.643-3.688,3.665-3.688c1.884,0,3.416,1.437,3.621,3.278v0.41v5.13  c0,2.036,1.641,3.688,3.665,3.688c0.008,0,0.015-0.002,0.022-0.002c0.007,0,0.013,0.002,0.019,0.002  c2.022,0,3.665-1.652,3.665-3.688v-5.13c0-2.03,1.629-3.675,3.642-3.687c2.013,0.012,3.642,1.656,3.642,3.687v5.13  c0,2.036,1.643,3.688,3.665,3.688c1.772,0,3.252-1.269,3.591-2.952c0.06-0.237,0.098-0.483,0.108-0.736h0.007v-5.13v-0.41  c0.205-1.842,1.737-3.278,3.621-3.278c2.025,0,3.662,1.651,3.662,3.688v5.13h0.009c0.085,1.962,1.688,3.528,3.659,3.528  c1.968,0,3.569-1.566,3.653-3.528h0.009v-5.13V60.285v-1.191V34.579C75.854,23.933,64.381,15.304,50.228,15.304z M59.493,38.375  c2.762,0,5,0.238,5,3s-2.238,5-5,5s-5-2.238-5-5S56.731,38.375,59.493,38.375z M40.897,38.375c2.762,0,5,0.238,5,3s-2.238,5-5,5  s-5-2.238-5-5S38.136,38.375,40.897,38.375z"/>
<circle cx="59.494" cy="39.583" r="1.874"/>
<circle cx="40.896" cy="39.583" r="1.875"/>
</svg>