<?xml version="1.0" encoding="utf-8"?>
<!-- Generator: Adobe Illustrator 23.0.1, SVG Export Plug-In . SVG Version: 6.00 Build 0)  -->
<svg version="1.1" id="Layer_1" xmlns="http://www.w3.org/2000/svg" xmlns:xlink="http://www.w3.org/1999/xlink" x="0px" y="0px"
	 viewBox="0 0 16 16" style="enable-background:new 0 0 16 16;" xml:space="preserve">
<path d="M8.2,0.5C5,0.5,2.5,2.4,2.5,4.9v9.4c0,0.7,0.5,1.2,1.2,1.2s1.2-0.5,1.2-1.2v-1.1c0-0.1,0.2-0.3,0.3-0.3
	c0.1,0,0.3,0.2,0.3,0.3v1.1c0,0.7,0.5,1.2,1.2,1.2s1.2-0.5,1.2-1.2v-1.1c0-0.1,0.2-0.3,0.3-0.3c0.1,0,0.3,0.2,0.3,0.3v1.1
	c0,0.7,0.5,1.2,1.2,1.2c0.6,0,1.1-0.4,1.2-1l0-1.4c0.1-0.2,0.2-0.2,0.3-0.2c0.1,0,0.3,0.2,0.3,0.3v1.2c0,0.6,0.6,1.1,1.2,1.1
	c0.7,0,1.2-0.5,1.2-1.1V4.9C13.9,2.4,11.4,0.5,8.2,0.5z M13,14.3c0,0.1-0.2,0.3-0.3,0.3s-0.3-0.2-0.3-0.3v-1c0-0.7-0.5-1.2-1.2-1.2
	c-0.6,0-1.1,0.4-1.2,1.1l0,1.1l0,0.1c-0.1,0.2-0.2,0.2-0.3,0.2c-0.1,0-0.3-0.2-0.3-0.3v-1.1c0-0.7-0.5-1.2-1.2-1.2S7,12.5,7,13.2
	v1.1c0,0.1-0.2,0.3-0.3,0.3c-0.1,0-0.3-0.2-0.3-0.3v-1.2c0-0.6-0.5-1.1-1.2-1.1C4.5,12,4,12.5,4,13.2v1.1c0,0.1-0.2,0.3-0.3,0.3
	c-0.1,0-0.3-0.2-0.3-0.3V4.9c0-1.9,2.2-3.5,4.8-3.5C10.8,1.4,13,3,13,4.9V14.3z"/>
<g>
	<path d="M10.1,5.3c-0.4,0-1.4,0-1.4,1c0,0.8,0.6,1.4,1.4,1.4c0.8,0,1.4-0.6,1.4-1.4C11.5,5.3,10.5,5.3,10.1,5.3z M10.1,7
		C9.8,7,9.5,6.7,9.4,6.3c0-0.1,0-0.2,0.3-0.2c0,0.2,0.2,0.4,0.4,0.4c0.2,0,0.4-0.2,0.4-0.4c0.3,0,0.3,0.1,0.3,0.2
		C10.8,6.7,10.5,7,10.1,7z"/>
	<path d="M6.3,5.3c-0.4,0-1.4,0-1.4,1c0,0.8,0.6,1.4,1.4,1.4s1.4-0.6,1.4-1.4C7.7,5.3,6.7,5.3,6.3,5.3z M6.3,7C6,7,5.7,6.7,5.6,6.3
		c0-0.1,0-0.2,0.3-0.2c0,0.2,0.2,0.4,0.4,0.4c0.2,0,0.4-0.2,0.4-0.4C7,6.1,7,6.2,7,6.3C7,6.7,6.7,7,6.3,7z"/>
</g>
</svg>
