<?xml version="1.0" encoding="utf-8"?>
<!-- Generator: Adobe Illustrator 23.0.1, SVG Export Plug-In . SVG Version: 6.00 Build 0)  -->
<svg version="1.1" id="Layer_1" xmlns="http://www.w3.org/2000/svg" xmlns:xlink="http://www.w3.org/1999/xlink" x="0px" y="0px"
	 viewBox="0 0 20 20" style="enable-background:new 0 0 20 20;" xml:space="preserve">
<g id="icomoon-ignore">
</g>
<path d="M18.1,1.1c-0.2-0.3-0.5-0.5-0.8-0.5c-0.6-0.1-1,0.3-1.5,0.8c-0.7,0.6-1.5,1.3-2.8,1.5c-0.7,0.1-1.5-0.2-2.3-0.5
	C9.1,1.8,7.2,1.1,5.1,2.9c-3,2.6-4,7.7-2,10.4c-0.9,1.2-1.6,2.4-2.1,3.8c-0.1,0.3,0,0.6,0.2,0.7l1.9,1.4c0.1,0.1,0.2,0.1,0.4,0.1
	c0.1,0,0.1,0,0.2,0C3.9,19.3,4,19.2,4.1,19c0,0,0.7-2.2,1.9-3.5c1,0.5,2,0.7,3.1,0.7c1.8,0,3.7-0.7,5.6-2.1
	C18.6,11.1,20.4,4.5,18.1,1.1z M13.9,13.1c-2.8,2.1-5.4,2.4-7.7,1.1c0,0,0,0,0,0c0,0,0,0-0.1,0c0,0,0,0-0.1,0c0,0,0,0-0.1,0
	c0,0,0,0-0.1,0c0,0,0,0-0.1,0c0,0,0,0-0.1,0c0,0,0,0-0.1,0c0,0,0,0-0.1,0c0,0,0,0-0.1,0c0,0,0,0-0.1,0c0,0,0,0,0,0c0,0,0,0-0.1,0
	c0,0,0,0,0,0c0,0,0,0,0,0c0,0,0,0,0,0c-1,1-1.8,2.5-2.2,3.5l-0.9-0.7c1.8-4.4,7.1-8.6,11-8.6c0.4,0,0.6-0.3,0.6-0.6
	s-0.3-0.6-0.6-0.6c-2.8,0-6.6,2-9.4,5c-1.2-2-0.6-6.2,2-8.4C7.5,2.5,8.8,3,10.3,3.6c0.9,0.3,1.9,0.7,2.9,0.5
	c1.7-0.2,2.8-1.2,3.5-1.8c0.1-0.1,0.3-0.3,0.5-0.4C18.9,4.7,17.3,10.6,13.9,13.1z"/>
</svg>
