<?xml version="1.0" encoding="utf-8"?>
<!-- Generator: Adobe Illustrator 23.0.1, SVG Export Plug-In . SVG Version: 6.00 Build 0)  -->
<svg version="1.1" id="Layer_1" xmlns="http://www.w3.org/2000/svg" xmlns:xlink="http://www.w3.org/1999/xlink" x="0px" y="0px"
	 viewBox="0 0 20 20" style="enable-background:new 0 0 20 20;" xml:space="preserve">
<g id="icomoon-ignore">
</g>
<g>
	<path d="M2.5,19c-0.4,0-0.9-0.2-1.2-0.5c-0.2-0.3-0.3-0.6-0.2-0.9C1.5,16.3,2,15,2.6,13.8c-0.5-0.3-0.8-0.9-0.9-1.3
		c-0.3-1.3-1.2-5.2,2.6-8.1c4.3-3.4,12.7-3,14.2-2.4c0.3,0.1,0.5,0.3,0.5,0.6c0,0.1,0,0.4-0.3,0.6c-2.1,1.6-2.8,3.7-3.5,5.8
		c-0.5,1.8-1.1,3.4-2.4,4.7c-1.6,1.6-4.2,2-7.7,1.4c-0.3,0.6-1,1.9-1.5,3.4c-0.1,0.3-0.4,0.6-0.7,0.7C2.8,19,2.7,19,2.5,19z
		 M2.1,17.9C2.2,18,2.5,18.1,2.6,18c0.6-2.1,1.7-3.8,1.7-3.9l0.2-0.3l0.3,0.1c3.3,0.7,5.7,0.3,7.2-1.1c1.1-1.1,1.6-2.6,2.1-4.2
		c0.6-2,1.3-4.2,3.3-5.9c-2.1-0.4-9-0.4-12.6,2.5C1.5,7.7,2.3,11,2.6,12.3c0,0.1,0.2,0.4,0.4,0.6C5.7,8,9.8,4.7,13,4.2l0.2,1
		C9.4,5.8,4.1,10.8,2.1,17.9z M2.1,17.9C2.1,17.9,2.1,17.9,2.1,17.9C2.1,17.9,2.1,17.9,2.1,17.9z M18,2.3C18,2.3,18,2.3,18,2.3
		C18,2.3,18,2.3,18,2.3z"/>
</g>
</svg>
