<?xml version="1.0" encoding="utf-8"?>
<!-- Generator: Adobe Illustrator 23.0.1, SVG Export Plug-In . SVG Version: 6.00 Build 0)  -->
<svg version="1.1"
	 id="Layer_1" xmlns:cc="http://creativecommons.org/ns#" xmlns:dc="http://purl.org/dc/elements/1.1/" xmlns:inkscape="http://www.inkscape.org/namespaces/inkscape" xmlns:rdf="http://www.w3.org/1999/02/22-rdf-syntax-ns#" xmlns:sodipodi="http://sodipodi.sourceforge.net/DTD/sodipodi-0.dtd" xmlns:svg="http://www.w3.org/2000/svg"
	 xmlns="http://www.w3.org/2000/svg" xmlns:xlink="http://www.w3.org/1999/xlink" x="0px" y="0px" viewBox="0 0 20 20"
	 style="enable-background:new 0 0 20 20;" xml:space="preserve">
<g transform="translate(0,-952.36218)">
	<g>
		<path d="M5.1,971.8c-0.2,0-0.4,0-0.6-0.1c-0.3-0.1-0.5-0.3-0.6-0.6c-0.1-0.3-0.1-0.6,0-0.9l2.4-6.4H5.5c-0.5,0-0.9-0.3-1.1-0.7
			c-0.1-0.3-0.1-0.7,0.1-0.9l3-8.3c0.1-0.5,0.6-0.9,1-0.9c1.5,0,3,0,4.5,0.1c0,0,0,0,0,0c0.4,0,0.7,0.2,1,0.6c0.2,0.3,0.2,0.7,0.1,1
			l-1.6,4.3h2.3c0.6,0,1.1,0.4,1.1,1c0,0.2,0,0.6-0.3,0.9L6,971.4c-0.1,0.2-0.3,0.3-0.5,0.4C5.4,971.8,5.3,971.8,5.1,971.8z
			 M5.4,970.7L5.4,970.7C5.4,970.8,5.4,970.8,5.4,970.7z M6.1,962.2h2.5L6,969.1l8-8.7h-3.6l2.2-5.9c-1.2-0.1-2.5-0.1-3.7-0.1
			L6.1,962.2z M14.6,959.8C14.6,959.8,14.6,959.8,14.6,959.8L14.6,959.8z M13.1,954.5C13.1,954.5,13.1,954.6,13.1,954.5
			C13.1,954.5,13.1,954.5,13.1,954.5z M12.8,954C12.8,954.1,12.8,954.1,12.8,954L12.8,954z"/>
	</g>
</g>
</svg>
