<?xml version="1.0" encoding="utf-8"?>
<!-- Generator: Adobe Illustrator 23.0.1, SVG Export Plug-In . SVG Version: 6.00 Build 0)  -->
<svg version="1.1"
	 id="Layer_1" xmlns:cc="http://creativecommons.org/ns#" xmlns:dc="http://purl.org/dc/elements/1.1/" xmlns:inkscape="http://www.inkscape.org/namespaces/inkscape" xmlns:rdf="http://www.w3.org/1999/02/22-rdf-syntax-ns#" xmlns:sodipodi="http://sodipodi.sourceforge.net/DTD/sodipodi-0.dtd" xmlns:svg="http://www.w3.org/2000/svg"
	 xmlns="http://www.w3.org/2000/svg" xmlns:xlink="http://www.w3.org/1999/xlink" x="0px" y="0px" viewBox="0 0 20 20"
	 style="enable-background:new 0 0 20 20;" xml:space="preserve">
<g transform="translate(0,-952.36218)">
	<path d="M8.6,953.7c-0.1,0-0.3,0.1-0.3,0.3l-3.1,8.5C5,962.7,5.2,963,5.5,963h2l-2.8,7.5c-0.1,0.2,0,0.4,0.2,0.5
		c0.2,0.1,0.4,0.1,0.5-0.1l9.8-10.6c0.1-0.1,0.1-0.3,0.1-0.4s-0.2-0.2-0.4-0.2h-3.4l2-5.4c0.1-0.2-0.1-0.5-0.4-0.5
		C11.6,953.7,10.1,953.7,8.6,953.7z"/>
</g>
</svg>
