<svg xmlns="http://www.w3.org/2000/svg" viewBox="0 0 64 64"><defs><style>.a{fill:#010101;}</style></defs><title>vectors</title><path class="a" d="M32,1.73A20.56,20.56,0,0,0,11.46,22.27a20.3,20.3,0,0,0,4.37,12.66A25.91,25.91,0,0,0,20.09,39c2,1.58,2.7,2.28,2.7,3.35V56.57a2.42,2.42,0,0,0,.59,1.59l2.83,3.21a2.4,2.4,0,0,0,1.8.82h8.54a2.44,2.44,0,0,0,1.9-.93l2.44-3.16a2.44,2.44,0,0,0,.5-1.47V42.39c0-1,.7-1.67,2.57-3.27A28.67,28.67,0,0,0,48.16,35,20.54,20.54,0,0,0,32,1.73ZM27.59,45.62h9V49h-9Zm7.78,11.77H29.1l-1.51-1.72V53.76h9v2.05Zm9-25.41a24.12,24.12,0,0,1-3.53,3.49c-1.73,1.48-3.5,3-4.06,5.35h-9.4c-.6-2.5-2.53-4.09-4.28-5.51A21,21,0,0,1,19.61,32a15.58,15.58,0,0,1-3.35-9.7,15.74,15.74,0,0,1,31.48,0A15.54,15.54,0,0,1,44.38,32Z"/><path class="a" d="M32,10.67a12,12,0,0,0-12,12,2.4,2.4,0,1,0,4.8,0A7.24,7.24,0,0,1,32,15.47a2.4,2.4,0,0,0,0-4.8Z"/></svg>