<?xml version="1.0" encoding="utf-8"?>
<!-- Generator: Adobe Illustrator 23.0.1, SVG Export Plug-In . SVG Version: 6.00 Build 0)  -->
<svg version="1.1" id="Layer_1" xmlns="http://www.w3.org/2000/svg" xmlns:xlink="http://www.w3.org/1999/xlink" x="0px" y="0px"
	 viewBox="0 0 16 16" style="enable-background:new 0 0 16 16;" xml:space="preserve">
<g id="icomoon-ignore">
</g>
<path d="M9.3,15.3l-2.9-0.7c-0.2,0-0.4-0.3-0.3-0.5c0-0.2,0.2-0.3,0.4-0.3l3,0.7c0.2,0,0.4,0.3,0.3,0.5C9.7,15.1,9.5,15.3,9.3,15.3
	L9.3,15.3z M9.7,14.2l-3.6-0.8c-0.1,0-0.2-0.1-0.3-0.2c-0.1-0.1-0.1-0.2-0.1-0.3c0-0.2,0.2-0.3,0.4-0.3l3.6,0.8
	c0.1,0,0.2,0.1,0.3,0.2c0.1,0.1,0.1,0.2,0.1,0.3C10.1,14,10,14.2,9.7,14.2L9.7,14.2z M9.7,13l-3.6-0.8c-0.6-0.2-0.6-0.7-0.6-0.9
	c0-0.1,0-0.2,0-0.3c0-0.3,0-0.5-0.8-1.4c-1.2-1-1.8-2.3-1.8-3.9c0-3.1,2.6-5.1,5.1-5.1c2.5,0,5.1,1.9,5.1,5.1c0,1.6-0.6,2.8-1.8,3.9
	c-0.8,0.9-0.8,1-0.8,1.3l0,0.1c0,0.3-0.2,0.5-0.3,0.5c-0.1,0.1-0.2,0.1-0.4,0.1l0,0c-0.1,0-0.2,0-0.2,0l-1.8-0.4
	c-0.2-0.1-0.4-0.3-0.3-0.5c0-0.2,0.2-0.3,0.4-0.3l1.8,0.4c0-0.6,0.3-0.9,1.1-1.8l0,0l0.1-0.1c0.6-0.6,1.4-1.5,1.4-3.2
	c0-2.6-2.1-4.2-4.2-4.2c-2,0-4.2,1.6-4.2,4.2c0,1.3,0.5,2.4,1.5,3.2l0.1,0.1C6.2,10,6.4,10.3,6.4,11c0,0.2,0,0.3,0,0.3
	c0,0,0,0.1,0,0.1l3.5,0.8c0.2,0.1,0.4,0.3,0.3,0.5C10.2,12.8,10,13,9.7,13L9.7,13z"/>
</svg>
