<?xml version="1.0" encoding="utf-8"?>
<!-- Generator: Adobe Illustrator 23.0.1, SVG Export Plug-In . SVG Version: 6.00 Build 0)  -->
<svg version="1.1" id="Layer_1" xmlns="http://www.w3.org/2000/svg" xmlns:xlink="http://www.w3.org/1999/xlink" x="0px" y="0px"
	 viewBox="0 0 24 24" style="enable-background:new 0 0 24 24;" xml:space="preserve">
<g>
	<path d="M8,7h13c0.6,0,1-0.4,1-1s-0.4-1-1-1H8C7.4,5,7,5.4,7,6S7.4,7,8,7z"/>
	<path d="M21,11H8c-0.6,0-1,0.4-1,1s0.4,1,1,1h13c0.6,0,1-0.4,1-1S21.6,11,21,11z"/>
	<path d="M21,17H8c-0.6,0-1,0.4-1,1s0.4,1,1,1h13c0.6,0,1-0.4,1-1S21.6,17,21,17z"/>
	<path d="M3.4,5.1C3,4.9,2.6,5,2.3,5.3C2.2,5.4,2.1,5.5,2.1,5.6C2,5.7,2,5.9,2,6c0,0.1,0,0.1,0,0.2c0,0.1,0,0.1,0.1,0.2
		c0,0.1,0.1,0.1,0.1,0.2c0,0,0.1,0.1,0.1,0.1c0,0,0.1,0.1,0.1,0.1c0.1,0,0.1,0.1,0.2,0.1c0.1,0,0.1,0,0.2,0.1C2.9,7,2.9,7,3,7
		c0.3,0,0.5-0.1,0.7-0.3c0-0.1,0.1-0.1,0.1-0.1c0-0.1,0.1-0.1,0.1-0.2c0-0.1,0-0.1,0.1-0.2C4,6.1,4,6.1,4,6c0-0.3-0.1-0.5-0.3-0.7
		C3.6,5.2,3.5,5.1,3.4,5.1z"/>
	<path d="M3.7,11.3C3.5,11.1,3.1,11,2.8,11c-0.1,0-0.1,0-0.2,0.1c-0.1,0-0.1,0.1-0.2,0.1c-0.1,0-0.1,0.1-0.1,0.1
		c-0.1,0.1-0.2,0.2-0.2,0.3C2,11.7,2,11.9,2,12c0,0.3,0.1,0.5,0.3,0.7c0,0,0.1,0.1,0.1,0.1c0.1,0,0.1,0.1,0.2,0.1
		c0.1,0,0.1,0,0.2,0.1c0.1,0,0.1,0,0.2,0c0.3,0,0.5-0.1,0.7-0.3c0-0.1,0.1-0.1,0.1-0.1c0-0.1,0.1-0.1,0.1-0.2c0-0.1,0-0.1,0.1-0.2
		c0-0.1,0-0.1,0-0.2c0-0.1,0-0.3-0.1-0.4C3.9,11.5,3.8,11.4,3.7,11.3z"/>
	<path d="M3.7,17.3c-0.1-0.1-0.2-0.2-0.3-0.2C3,16.9,2.6,17,2.3,17.3c-0.1,0.1-0.2,0.2-0.2,0.3C2,17.7,2,17.9,2,18
		c0,0.3,0.1,0.5,0.3,0.7c0.1,0.1,0.2,0.2,0.3,0.2C2.7,19,2.9,19,3,19c0.3,0,0.5-0.1,0.7-0.3c0.1-0.1,0.2-0.2,0.2-0.3
		C4,18.3,4,18.1,4,18s0-0.3-0.1-0.4C3.9,17.5,3.8,17.4,3.7,17.3z"/>
</g>
</svg>
