<?xml version="1.0" encoding="utf-8"?>
<!-- Generator: Adobe Illustrator 16.0.4, SVG Export Plug-In . SVG Version: 6.00 Build 0)  -->
<!DOCTYPE svg PUBLIC "-//W3C//DTD SVG 1.1//EN" "http://www.w3.org/Graphics/SVG/1.1/DTD/svg11.dtd">
<svg version="1.1" xmlns="http://www.w3.org/2000/svg" xmlns:xlink="http://www.w3.org/1999/xlink" x="0px" y="0px"
	 width="16px" height="16px" viewBox="0 0 16 16" enable-background="new 0 0 16 16" xml:space="preserve">
<g id="icomoon-ignore">
</g>
<path d="M14,7H2C1.448,7,1,7.448,1,8c0,0.551,0.448,1,1,1h12c0.552,0,1-0.447,1-1C15,7.448,14.553,7,14,7z M2,5h12
	c0.552,0,1-0.449,1-1s-0.447-1-1-1H2C1.448,3,1,3.449,1,4S1.448,5,2,5z M14,11H2c-0.552,0-1,0.447-1,1c0,0.555,0.448,1,1,1h12
	c0.552,0,1-0.445,1-1C15,11.447,14.553,11,14,11z"/>
</svg>
