<?xml version="1.0" encoding="utf-8"?>
<!-- Generator: Adobe Illustrator 23.0.1, SVG Export Plug-In . SVG Version: 6.00 Build 0)  -->
<svg version="1.1" id="Layer_1" xmlns="http://www.w3.org/2000/svg" xmlns:xlink="http://www.w3.org/1999/xlink" x="0px" y="0px"
	 viewBox="0 0 28 28" style="enable-background:new 0 0 28 28;" xml:space="preserve">
<g id="icomoon-ignore">
</g>
<g>
	<path d="M26.7,6.7l-4.4-4.6c-0.2-0.2-0.4-0.3-0.6-0.3c0,0,0,0,0,0c-0.2,0-0.5,0.1-0.6,0.3l-5.7,5.5c0,0-0.1,0.1-0.1,0.1
		c0,0-0.1,0.1-0.1,0.1L1.2,21.3c-0.4,0.4-0.4,0.9,0,1.3l4.4,4.6c0.2,0.2,0.4,0.3,0.6,0.3c0,0,0,0,0,0c0.2,0,0.5-0.1,0.6-0.3L26.7,8
		C27,7.6,27,7,26.7,6.7z M6.3,25.2L3.1,22L15.7,9.7l3.1,3.2L6.3,25.2z M20.2,11.7l-3.1-3.2l4.5-4.4l3.1,3.2L20.2,11.7z"/>
	<path d="M6,6.8C6.2,7,6.7,9.2,7,9.2c0.3,0,0.7-2.1,1-2.4c0.2-0.2,2.4-0.7,2.4-1c0-0.2-2.1-0.7-2.4-1C7.7,4.6,7.3,2.5,7,2.5
		S6.2,4.7,6,4.9s-2.4,0.7-2.4,1C3.6,6.2,5.8,6.6,6,6.8z"/>
	<path d="M13.7,3.8c0.1,0.1,0.5,1.8,0.7,1.8c0.2,0,0.5-1.6,0.7-1.8c0.2-0.2,1.8-0.5,1.8-0.7c0-0.2-1.6-0.5-1.8-0.7
		c-0.2-0.2-0.5-1.8-0.7-1.8s-0.6,1.6-0.7,1.8c-0.1,0.1-1.8,0.5-1.8,0.7S13.5,3.6,13.7,3.8z"/>
	<path d="M25.4,14.5c-0.2-0.2-0.5-1.8-0.7-1.8c-0.2,0-0.6,1.6-0.7,1.8c-0.1,0.1-1.8,0.5-1.8,0.7s1.6,0.6,1.8,0.7
		c0.1,0.1,0.5,1.8,0.7,1.8c0.2,0,0.5-1.6,0.7-1.8c0.2-0.2,1.8-0.5,1.8-0.7C27.1,15,25.5,14.7,25.4,14.5z"/>
</g>
</svg>
