<?xml version="1.0" encoding="utf-8"?>
<!-- Generator: Adobe Illustrator 23.0.1, SVG Export Plug-In . SVG Version: 6.00 Build 0)  -->
<svg version="1.1" id="Layer_1" xmlns="http://www.w3.org/2000/svg" xmlns:xlink="http://www.w3.org/1999/xlink" x="0px" y="0px"
	 viewBox="0 0 24 24" style="enable-background:new 0 0 24 24;" xml:space="preserve">
<path d="M23.5,1.1c-0.3-0.2-0.7-0.2-1,0L16,4.9L8.4,1.1c0,0,0,0,0,0c0,0,0,0-0.1,0C8.2,1,8.1,1,8,1c0,0,0,0,0,0c0,0,0,0,0,0
	C7.9,1,7.8,1,7.6,1.1c0,0,0,0-0.1,0c0,0-0.1,0-0.1,0l-7,4C0.2,5.3,0,5.6,0,6v16c0,0.4,0.2,0.7,0.5,0.9c0.3,0.2,0.7,0.2,1,0L8,19.1
	l7.5,3.8c0,0,0,0,0,0C15.7,23,15.8,23,16,23c0.1,0,0.2,0,0.3-0.1c0,0,0.1,0,0.1,0c0,0,0,0,0.1,0l7-4c0.3-0.2,0.5-0.5,0.5-0.9V2
	C24,1.6,23.8,1.3,23.5,1.1z M9,3.6l6,3v13.8l-6-3V3.6z M2,6.6l5-2.9v13.7l-5,2.9V6.6z M22,17.4l-5,2.9V6.6l5-2.9V17.4z"/>
</svg>
