<?xml version="1.0" encoding="utf-8"?>
<!-- Generator: Adobe Illustrator 16.0.4, SVG Export Plug-In . SVG Version: 6.00 Build 0)  -->
<svg version="1.2" baseProfile="tiny" xmlns="http://www.w3.org/2000/svg" xmlns:xlink="http://www.w3.org/1999/xlink"
	 x="0px" y="0px" width="64px" height="64px" viewBox="0 0 64 64" xml:space="preserve">
<g>
	<path fill-rule="evenodd" d="M58.743,12.381H5.181c-2.493,0-4.514,2.021-4.514,4.514v29.488c0,2.494,2.021,4.515,4.514,4.515
		h53.562c2.493,0,4.514-2.021,4.514-4.515V16.895C63.257,14.401,61.236,12.381,58.743,12.381z M33.768,41.87h-6.019V30.135
		l-6.018,7.521l-6.018-7.521V41.87H9.694V21.408h6.019l6.018,7.523l6.018-7.523h6.019V41.87z M47.008,42.17L37.98,31.639h6.019
		v-10.23h6.019v10.23h6.018L47.008,42.17z"/>
</g>
</svg>
