<?xml version="1.0" encoding="utf-8"?>
<!-- Generator: Adobe Illustrator 16.0.4, SVG Export Plug-In . SVG Version: 6.00 Build 0)  -->
<svg version="1.2" baseProfile="tiny" xmlns="http://www.w3.org/2000/svg" xmlns:xlink="http://www.w3.org/1999/xlink"
	 x="0px" y="0px" width="64px" height="64px" viewBox="0 0 64 64" xml:space="preserve">
<path fill-rule="evenodd" d="M34.826,4.545c7.089,0,7.589,9.411,7.589,9.411v8.763c0,0,0.018,6.661-4.426,9.147
	c0,0-0.317,1.96-0.063,1.833s-1.266,8.812,6.452,9.951c7.717,1.137,13.439,5.898,14.894,7.287
	c1.455,1.389,2.438,11.303,2.438,11.303H1.88c0,0-0.083-8.047,2.438-11.303c1.454-1.389,7.843-6.15,15.56-7.287
	c7.717-1.139,5.132-9.679,5.385-9.552c0.253,0.127-0.062-1.833-0.062-1.833s-4.281-5.389-4.218-10.254c0.064-4.866,0-8.054,0-8.054
	S20.829,2.415,28.718,2.415L34.826,4.545z"/>
</svg>
