<svg xmlns="http://www.w3.org/2000/svg" viewBox="0 0 64 64"><title>vectors</title><path d="M28.12,20.79a2.5,2.5,0,1,0-1.85-3A2.5,2.5,0,0,0,28.12,20.79Z"/><path d="M61.45,16.46,48.36,13.29,46.59,6.43A2,2,0,0,0,44.15,5L29.61,8.75,19.66,6.34a2,2,0,0,0-2.41,1.47l-1.07,4.41L2.52,15.75a2,2,0,0,0-1.43,2.43l7,27.27-.25,1A2,2,0,0,0,9,48.77l2,7.94A2,2,0,0,0,12,57.93a1.94,1.94,0,0,0,1,.28,2.2,2.2,0,0,0,.5-.06L30,53.89,51.14,59a1.93,1.93,0,0,0,.47,0,2,2,0,0,0,2-1.52l9.36-38.68A2,2,0,0,0,61.45,16.46ZM43.22,9.36,44,12.22l-6.09-1.47ZM20.66,10.69l37.9,9.18L56,30.39l-6.26-7.61A2,2,0,0,0,47,22.43L34,31.86l-6-5.5a2,2,0,0,0-2.77.06l-8.74,8.79-1.64-.4ZM52.72,44,21,36.31l5.67-5.71,5.78,5.31a2,2,0,0,0,2.52.15l12.88-9.29,7,8.49ZM5.46,19.12l9.65-2.49-5,20.57Zm9,34.65-1-3.89,8.29,2Zm35.73.89-37.9-9.18,1.64-6.78,37.9,9.18Z"/></svg>