<?xml version="1.0" encoding="utf-8"?>
<!-- Generator: Adobe Illustrator 23.0.1, SVG Export Plug-In . SVG Version: 6.00 Build 0)  -->
<svg version="1.1" id="Layer_1" xmlns="http://www.w3.org/2000/svg" xmlns:xlink="http://www.w3.org/1999/xlink" x="0px" y="0px"
	 viewBox="0 0 100 100" style="enable-background:new 0 0 100 100;" xml:space="preserve">
<path d="M31.6,92c-1.3,0-2.3-1.2-2.5-2.4L24.9,64h0c-1.2,0-2.1-0.7-2.4-1.7l-2.7-8.8c-0.2-0.8-0.1-1.7,0.4-2.3
	c0.5-0.7,1.3-1.2,2.1-1.2H47V31h-0.2c-4.7,0-9.2-1.9-12.6-5.2c-4.2-4.2-6-10.3-4.9-16.1c0.2-1,1-1.8,2-2c1.2-0.2,2.3-0.3,3.5-0.3
	c4.8,0,9.2,1.9,12.6,5.2c2.8,2.8,4.6,6.6,5.1,10.5c3.4-3.3,7.8-5.1,12.5-5.1c1.2,0,2.3,0.1,3.5,0.3c1,0.2,1.8,1,2,2
	c1.2,5.8-0.7,11.9-4.9,16.1c-3.3,3.3-8,5.2-12.7,5.2c-0.3,0-0.6,0-0.8,0V50h25.8c0.7,0,1.5,0.4,2,1.2c0.5,0.6,0.6,1.5,0.4,2.3
	l-2.7,8.9c-0.3,1-1.3,1.7-2.4,1.7h-0.4l-3.3,25.6c-0.2,1.2-1.2,2.4-2.5,2.4H31.6z M66.6,87l2.9-23H30.1l3.7,23H66.6z M73.2,59l1.2-4
	H25.6l1.2,4H73.2z M52,36.5c0.3,0,0.6,0,0.8,0c3.5,0,6.9-1.4,9.2-3.7c2.6-2.6,3.9-6.1,3.7-9.7c-0.3,0-0.5,0-0.8,0
	c-3.4,0-6.8,1.4-9.1,3.7c-2.6,2.6-3.8,4.8-3.8,6.7V36.5z M34.1,12.4c-0.2,3.6,1.1,7.1,3.7,9.7c2.4,2.4,5.6,3.7,9,3.7
	c0.2,0,0.5,0,0.7,0c0.2-3.6-1.1-7.1-3.7-9.7c-2.4-2.4-5.6-3.7-9-3.7C34.6,12.4,34.4,12.4,34.1,12.4z"/>
</svg>
