<?xml version="1.0" encoding="utf-8"?>
<!-- Generator: Adobe Illustrator 16.0.4, SVG Export Plug-In . SVG Version: 6.00 Build 0)  -->
<svg version="1.2" baseProfile="tiny" xmlns="http://www.w3.org/2000/svg" xmlns:xlink="http://www.w3.org/1999/xlink"
	 x="0px" y="0px" width="64px" height="64px" viewBox="0 0 64 64" xml:space="preserve">
<g>
	<path fill-rule="evenodd" d="M4.089,4.105l0,27.746l30.814,30.814l27.747-27.747L31.834,4.105H4.089z M57.756,35.094l-22.681,22.68
		L7.442,30.14L7.375,7.391l22.748,0.068L57.756,35.094z"/>
	<circle fill-rule="evenodd" cx="13.857" cy="13.874" r="2.908"/>
	<g>
		<path d="M32.743,38.125c0.75,0.588,1.41,0.931,1.977,1.026c1.036,0.171,2.077-0.268,3.125-1.316
			c0.627-0.628,1.058-1.217,1.291-1.768c0.438-1.048,0.243-1.987-0.586-2.815c-0.484-0.483-1.04-0.677-1.669-0.577
			c-0.623,0.105-1.429,0.453-2.417,1.045l-1.699,1.003c-1.671,0.982-2.958,1.52-3.858,1.611c-1.518,0.165-2.994-0.473-4.433-1.911
			c-1.313-1.312-1.993-2.814-2.039-4.504c-0.046-1.69,0.728-3.334,2.321-4.928c1.331-1.33,2.875-2.056,4.633-2.177
			c1.758-0.12,3.439,0.575,5.042,2.087l-2.504,2.506c-0.928-0.836-1.891-1.127-2.886-0.873c-0.662,0.171-1.302,0.565-1.921,1.185
			c-0.688,0.688-1.079,1.396-1.171,2.125c-0.093,0.729,0.146,1.38,0.716,1.948c0.524,0.525,1.118,0.713,1.781,0.567
			c0.432-0.089,1.187-0.438,2.264-1.052l2.795-1.581c1.225-0.694,2.298-1.06,3.221-1.094c1.433-0.054,2.803,0.572,4.108,1.878
			c1.339,1.339,2.011,2.892,2.014,4.656c0.004,1.767-0.798,3.454-2.406,5.062c-1.642,1.642-3.37,2.498-5.183,2.567
			c-1.812,0.068-3.481-0.659-5.005-2.184L32.743,38.125z"/>
	</g>
	<rect x="31.503" y="19.518" transform="matrix(0.7071 -0.7071 0.7071 0.7071 -13.6523 32.9379)" width="2.862" height="26.861"/>
</g>
</svg>
