<?xml version="1.0" encoding="utf-8"?>
<!-- Generator: Adobe Illustrator 23.0.1, SVG Export Plug-In . SVG Version: 6.00 Build 0)  -->
<svg version="1.1" id="Layer_1" xmlns="http://www.w3.org/2000/svg" xmlns:xlink="http://www.w3.org/1999/xlink" x="0px" y="0px"
	 viewBox="0 0 28 28" style="enable-background:new 0 0 28 28;" xml:space="preserve">
<g id="icomoon-ignore">
</g>
<g>
	<path d="M24.9,6.1C24.8,6,24.6,6,24.5,6h-4.8l-1.1-2.6c-0.2-0.4-0.4-0.7-0.8-1S16.9,2,16.5,2h-5c-0.4,0-0.8,0.1-1.2,0.4
		C9.9,2.7,9.6,3,9.4,3.4L8.3,6H3.5C3.4,6,3.2,6,3.1,6.1C3,6.2,3,6.4,3,6.5v1c0,0.1,0,0.3,0.1,0.4C3.2,8,3.4,8,3.5,8H5v14.9
		c0,0.9,0.2,1.6,0.7,2.2C6.2,25.7,6.8,26,7.5,26h13c0.7,0,1.3-0.3,1.8-0.9c0.5-0.6,0.7-1.4,0.7-2.2V8h1.5c0.1,0,0.3,0,0.4-0.1
		C25,7.8,25,7.6,25,7.5v-1C25,6.4,25,6.2,24.9,6.1z M11.3,4.2C11.3,4.1,11.4,4,11.5,4h5c0.1,0,0.2,0.1,0.3,0.2L17.5,6h-7L11.3,4.2z
		 M21,22.8c0,0.2,0,0.4-0.1,0.6c-0.1,0.2-0.1,0.3-0.2,0.4S20.5,24,20.5,24h-13c0,0-0.1,0-0.2-0.1s-0.2-0.2-0.2-0.4
		C7,23.3,7,23,7,22.8V8h14V22.8z"/>
</g>
<path d="M14.5,10.9v-0.6c0-0.3-0.2-0.5-0.4-0.7c-0.3-0.1-0.6-0.1-0.8,0L11,11.2c-0.2,0.1-0.3,0.4-0.3,0.6c0,0.3,0.1,0.5,0.3,0.6
	l2.3,1.6c0.1,0.1,0.3,0.1,0.4,0.1c0.1,0,0.3,0,0.4-0.1c0.3-0.1,0.4-0.4,0.4-0.7V13c1.7,0.2,3,1.7,3,3.5c0,2-1.6,3.6-3.6,3.6
	s-3.6-1.6-3.6-3.6c0-0.6-0.4-1-1-1s-1,0.4-1,1c0,3.1,2.5,5.6,5.6,5.6c3.1,0,5.6-2.5,5.6-5.6C19.6,13.6,17.3,11.2,14.5,10.9z"/>
</svg>
