<?xml version="1.0" encoding="utf-8"?>
<!-- Generated by IcoMoon.io -->
<!DOCTYPE svg PUBLIC "-//W3C//DTD SVG 1.1//EN" "http://www.w3.org/Graphics/SVG/1.1/DTD/svg11.dtd">
<svg version="1.1" xmlns="http://www.w3.org/2000/svg" xmlns:xlink="http://www.w3.org/1999/xlink" width="32" height="32" viewBox="0 0 32 32">
<g id="icomoon-ignore">
</g>
<path d="M30.193 8.356l-6.396-6.396c-0.388-0.388-1.016-0.388-1.404 0l-20.279 20.279c-0.388 0.388-0.388 1.016 0 1.404l6.396 6.398c0.186 0.186 0.439 0.29 0.702 0.29s0.516-0.105 0.702-0.291l20.28-20.28c0.388-0.388 0.388-1.016-0-1.404zM26.005 11.14l-1-1c-0.388-0.388-1.016-0.388-1.404 0s-0.388 1.016 0 1.404l1 1-1.975 1.975-2.603-2.603c-0.388-0.388-1.016-0.388-1.404 0s-0.388 1.016 0 1.404l2.603 2.603-1.975 1.975-1.002-1.002c-0.388-0.388-1.016-0.388-1.404 0s-0.388 1.016 0 1.404l1.002 1.002-1.977 1.977-2.601-2.601c-0.388-0.388-1.016-0.388-1.404 0s-0.388 1.016 0 1.404l2.601 2.601-1.975 1.975-1.003-1.003c-0.388-0.388-1.016-0.388-1.404 0s-0.388 1.016 0 1.404l1.003 1.003-1.871 1.872-4.992-4.993 18.875-18.875 4.992 4.992-2.082 2.082z" fill="#000000"></path>
</svg>
