<?xml version="1.0" encoding="utf-8"?>
<!-- Generator: Adobe Illustrator 16.0.4, SVG Export Plug-In . SVG Version: 6.00 Build 0)  -->
<svg version="1.2" baseProfile="tiny" xmlns="http://www.w3.org/2000/svg" xmlns:xlink="http://www.w3.org/1999/xlink"
	 x="0px" y="0px" width="64px" height="64px" viewBox="0 0 64 64" xml:space="preserve">
<g>
	<path fill-rule="evenodd" d="M32.156,4.125C16.762,4.125,4.281,16.605,4.281,32s12.48,27.875,27.875,27.875
		S60.031,47.395,60.031,32S47.551,4.125,32.156,4.125z M32.156,55.224C19.33,55.224,8.932,44.826,8.932,32S19.33,8.776,32.156,8.776
		S55.381,19.174,55.381,32S44.982,55.224,32.156,55.224z"/>
</g>
<circle fill-rule="evenodd" cx="24.979" cy="31.373" r="3.333"/>
<circle fill-rule="evenodd" cx="39.646" cy="31.373" r="3.333"/>
<g>
	<path d="M40.265,49.014c-0.682,0-1.359-0.276-1.853-0.82c-1.35-1.487-3.688-2.376-6.258-2.377c-0.001,0-0.001,0-0.002,0
		c-2.647,0-5.101,1.244-6.357,2.478c-0.985,0.967-2.568,0.953-3.535-0.033c-0.967-0.985-0.952-2.568,0.033-3.535
		c1.838-1.804,5.522-3.909,9.859-3.909c0.001,0,0.002,0,0.004,0c3.956,0.001,7.679,1.503,9.959,4.018
		c0.928,1.023,0.851,2.604-0.172,3.531C41.465,48.8,40.863,49.014,40.265,49.014z"/>
</g>
</svg>
