<?xml version="1.0" encoding="utf-8"?>
<!-- Generator: Adobe Illustrator 16.0.0, SVG Export Plug-In . SVG Version: 6.00 Build 0)  -->
<!DOCTYPE svg PUBLIC "-//W3C//DTD SVG 1.1//EN" "http://www.w3.org/Graphics/SVG/1.1/DTD/svg11.dtd">
<svg version="1.1" xmlns="http://www.w3.org/2000/svg" xmlns:xlink="http://www.w3.org/1999/xlink" x="0px" y="0px"
	 width="28px" height="28px" viewBox="0 0 28 28" enable-background="new 0 0 28 28" xml:space="preserve">
<title>Artboard 29</title>
<path d="M8.2,7.552h7.057c0.3,0,0.541-0.241,0.541-0.54s-0.241-0.541-0.541-0.541H8.2c-0.298,0-0.541,0.242-0.541,0.541
	S7.902,7.552,8.2,7.552z"/>
<path d="M18.074,8.906H8.2c-0.298,0-0.541,0.241-0.541,0.539c0,0.301,0.243,0.543,0.541,0.543h9.874c0.3,0,0.54-0.242,0.54-0.543
	C18.614,9.146,18.372,8.906,18.074,8.906z"/>
<path d="M18.074,11.339H8.2c-0.298,0-0.541,0.241-0.541,0.541c0,0.299,0.243,0.541,0.541,0.541h9.874c0.3,0,0.54-0.243,0.54-0.541
	C18.614,11.58,18.372,11.339,18.074,11.339z"/>
<path d="M21.195,17.404c-0.299,0-0.543,0.241-0.543,0.541v7.571c0,0.3,0.244,0.542,0.543,0.542c0.301,0,0.541-0.242,0.541-0.542
	v-7.571C21.736,17.646,21.496,17.404,21.195,17.404z"/>
<path d="M18.857,25.535v-7.57c0-0.301-0.24-0.543-0.541-0.543c-0.297,0-0.539,0.242-0.539,0.543v7.57
	c0,0.297,0.242,0.541,0.539,0.541C18.617,26.076,18.857,25.832,18.857,25.535z"/>
<path d="M15.979,25.535v-7.57c0-0.301-0.242-0.543-0.543-0.543c-0.299,0-0.539,0.242-0.539,0.543v7.57
	c0,0.297,0.24,0.541,0.539,0.541C15.736,26.076,15.979,25.832,15.979,25.535z"/>
<path d="M13.1,25.535v-7.57c0-0.301-0.242-0.543-0.539-0.543c-0.299,0-0.543,0.242-0.543,0.543v7.57
	c0,0.297,0.244,0.541,0.543,0.541S13.1,25.832,13.1,25.535z"/>
<path d="M7.342,25.535v-7.57c0-0.301-0.24-0.543-0.541-0.543c-0.299,0-0.541,0.242-0.541,0.543v7.57
	c0,0.297,0.242,0.541,0.541,0.541C7.102,26.076,7.342,25.832,7.342,25.535z"/>
<path d="M10.221,25.535v-7.57c0-0.301-0.244-0.543-0.543-0.543c-0.298,0-0.539,0.242-0.539,0.543v7.57
	c0,0.297,0.241,0.541,0.539,0.541C9.977,26.076,10.221,25.832,10.221,25.535z"/>
<path d="M27.027,14.717h-2.916V7.371l0,0l0,0c0-0.064-0.016-0.133-0.039-0.192l0,0c-0.027-0.065-0.067-0.127-0.119-0.177l0,0
	l-4.997-4.93l0,0c-0.048-0.049-0.106-0.086-0.171-0.113l0,0c-0.061-0.021-0.128-0.035-0.193-0.035H6.229
	C4.936,1.926,3.887,2.976,3.885,4.269v10.457h-2.91c-0.3,0-0.541,0.242-0.541,0.541c0,0.3,0.242,0.541,0.541,0.541h26.053
	c0.299,0,0.539-0.241,0.539-0.541c0-0.299-0.24-0.541-0.539-0.541V14.717L27.027,14.717z M19.12,3.748l3.133,3.082h-1.872
	c-0.695,0-1.261-0.564-1.261-1.262V3.748L19.12,3.748z M4.966,4.261c0-0.697,0.563-1.263,1.263-1.263h11.809v2.57
	c0.002,1.293,1.052,2.342,2.345,2.344h2.647v6.805H4.966V4.261L4.966,4.261z"/>
</svg>
