<?xml version="1.0" encoding="utf-8"?>
<!-- Generator: Adobe Illustrator 23.0.1, SVG Export Plug-In . SVG Version: 6.00 Build 0)  -->
<svg version="1.1" id="Layer_1" xmlns="http://www.w3.org/2000/svg" xmlns:xlink="http://www.w3.org/1999/xlink" x="0px" y="0px"
	 viewBox="0 0 64 64" style="enable-background:new 0 0 64 64;" xml:space="preserve">
<title>vectors</title>
<g>
	<path d="M61.5,33.5h-2.4v-17c0-0.5-0.2-1-0.6-1.4L46.7,3.3c-0.1-0.1-0.2-0.2-0.3-0.2c0,0-0.1,0-0.1,0c-0.1-0.1-0.2-0.1-0.3-0.1
		c0,0-0.1,0-0.1,0c-0.1,0-0.2-0.1-0.3-0.1c-0.1,0-0.3,0-0.4,0H6.7c-1.1,0-2,0.9-2,2v28.7H2.5c-1.1,0-2,0.9-2,2s0.9,2,2,2h58.9
		c1.1,0,2-0.9,2-2S62.6,33.5,61.5,33.5z M47.3,9.5l4.5,4.5h-4.5V9.5z M8.7,6.7h34.6V16c0,1.1,0.9,2,2,2h9.8v15.5H8.7V6.7z"/>
	<path d="M38.2,25.4H13.5c-1.1,0-2,0.9-2,2s0.9,2,2,2h24.6c1.1,0,2-0.9,2-2S39.3,25.4,38.2,25.4z"/>
	<path d="M38.2,18.1H13.5c-1.1,0-2,0.9-2,2s0.9,2,2,2h24.6c1.1,0,2-0.9,2-2S39.3,18.1,38.2,18.1z"/>
	<path d="M13.5,14.6h11c1.1,0,2-0.9,2-2s-0.9-2-2-2h-11c-1.1,0-2,0.9-2,2S12.4,14.6,13.5,14.6z"/>
	<path d="M52,40.6c-1.1,0-2,0.9-2,2v16.7c0,1.1,0.9,2,2,2s2-0.9,2-2V42.6C54,41.5,53.1,40.6,52,40.6z"/>
	<path d="M42,40.6c-1.1,0-2,0.9-2,2v16.7c0,1.1,0.9,2,2,2s2-0.9,2-2V42.6C44,41.5,43.1,40.6,42,40.6z"/>
	<path d="M32,40.6c-1.1,0-2,0.9-2,2v16.7c0,1.1,0.9,2,2,2s2-0.9,2-2V42.6C34,41.5,33.1,40.6,32,40.6z"/>
	<path d="M22,40.6c-1.1,0-2,0.9-2,2v16.7c0,1.1,0.9,2,2,2s2-0.9,2-2V42.6C24,41.5,23.1,40.6,22,40.6z"/>
	<path d="M12,40.6c-1.1,0-2,0.9-2,2v16.7c0,1.1,0.9,2,2,2s2-0.9,2-2V42.6C14,41.5,13.1,40.6,12,40.6z"/>
</g>
</svg>
