<?xml version="1.0" encoding="utf-8"?>
<!-- Generator: Adobe Illustrator 23.0.1, SVG Export Plug-In . SVG Version: 6.00 Build 0)  -->
<svg version="1.1" id="Layer_1" xmlns="http://www.w3.org/2000/svg" xmlns:xlink="http://www.w3.org/1999/xlink" x="0px" y="0px"
	 viewBox="0 0 28 28" style="enable-background:new 0 0 28 28;" xml:space="preserve">
<title>Artboard 29</title>
<path d="M8.2,7.8C7.8,7.8,7.5,7.4,7.5,7c0-0.4,0.3-0.7,0.7-0.7h7.1C15.7,6.3,16,6.6,16,7c0,0.4-0.3,0.7-0.7,0.7H8.2z"/>
<path d="M8.2,10.2c-0.4,0-0.7-0.3-0.7-0.7c0-0.4,0.3-0.7,0.7-0.7h9.9c0.4,0,0.7,0.3,0.7,0.7c0,0.4-0.3,0.7-0.7,0.7H8.2z"/>
<path d="M8.2,12.6c-0.4,0-0.7-0.3-0.7-0.7s0.3-0.7,0.7-0.7h9.9c0.4,0,0.7,0.3,0.7,0.7s-0.3,0.7-0.7,0.7H8.2z"/>
<path d="M21.2,26.3c-0.4,0-0.7-0.3-0.7-0.7v-7.6c0-0.4,0.3-0.7,0.7-0.7c0.4,0,0.7,0.3,0.7,0.7v7.6C21.9,25.9,21.6,26.3,21.2,26.3z"
	/>
<path d="M18.3,26.3c-0.4,0-0.7-0.3-0.7-0.7V18c0-0.4,0.3-0.7,0.7-0.7c0.4,0,0.7,0.3,0.7,0.7v7.6C19.1,25.9,18.7,26.3,18.3,26.3z"/>
<path d="M15.4,26.3c-0.4,0-0.7-0.3-0.7-0.7V18c0-0.4,0.3-0.7,0.7-0.7c0.4,0,0.7,0.3,0.7,0.7v7.6C16.2,25.9,15.8,26.3,15.4,26.3z"/>
<path d="M12.6,26.3c-0.4,0-0.7-0.3-0.7-0.7V18c0-0.4,0.3-0.7,0.7-0.7c0.4,0,0.7,0.3,0.7,0.7v7.6C13.3,25.9,13,26.3,12.6,26.3z"/>
<path d="M6.8,26.3c-0.4,0-0.7-0.3-0.7-0.7V18c0-0.4,0.3-0.7,0.7-0.7s0.7,0.3,0.7,0.7v7.6C7.5,25.9,7.2,26.3,6.8,26.3z"/>
<path d="M9.7,26.3c-0.4,0-0.7-0.3-0.7-0.7V18c0-0.4,0.3-0.7,0.7-0.7c0.4,0,0.7,0.3,0.7,0.7v7.6C10.4,25.9,10.1,26.3,9.7,26.3z"/>
<path d="M1,16c-0.4,0-0.7-0.3-0.7-0.7s0.3-0.7,0.7-0.7h2.7V4.3c0-1.4,1.1-2.5,2.5-2.5h12.4c0.1,0,0.2,0,0.3,0c0.1,0,0.2,0.1,0.2,0.2
	l5,4.9c0.1,0.1,0.1,0.1,0.2,0.2c0,0.1,0.1,0.2,0.1,0.3v7.1h2.9l0,0c0.3,0.1,0.6,0.4,0.6,0.7c0,0.4-0.3,0.7-0.7,0.7H1z M22.8,14.5
	V8.1h-2.4c-1.4,0-2.5-1.1-2.5-2.5V3.2H6.2c-0.6,0-1.1,0.5-1.1,1.1v10.3H22.8z M19.3,5.6c0,0.6,0.5,1.1,1.1,1.1h1.4l-2.4-2.4V5.6z"/>
</svg>
