<svg xmlns="http://www.w3.org/2000/svg" viewBox="0 0 64 64"><defs><style>.a{fill:#010101;}</style></defs><title>vectors</title><path class="a" d="M54.73,51.69c-.24.1-3.73,1-53.93,1v2.85c27.92,0,41.12-.29,47.29-.52,7.26-.28,7.26-.28,7.26-1.94h-.54ZM1.07,50.82c.63,0,1.67-.84,6.62-5.55,1.51,1.44,3.31,3.16,5.47,5.24l2-2L9.75,43.3l5.48-5.25-2-2.06L7.69,41.32c-6.14-5.84-6.34-5.8-7.11-5.55l.47,1.43L.21,38.3c.09.06.83.66,5.4,5C1.12,47.56.39,48.15.31,48.21l.81,1.17L.68,50.73A1.06,1.06,0,0,0,1.07,50.82Zm62-9c-.45.5-1.34,1.5-2,2.25l-.37,0a28.64,28.64,0,0,0-5.36.93,2.28,2.28,0,0,1-2.81-1.18,17.83,17.83,0,0,0-2-3.17,4.5,4.5,0,0,0-.53-.36c-2.81-.12-5.5,2.59-7.67,4.73a29.39,29.39,0,0,1,.27-4.59c.72-4.32,1.85-8.55,2.87-12.8C46.31,24.12,47.25,20.58,48,17c0-.17.77-3.85.79-4.41a8.21,8.21,0,0,0-.22-1.3c-1.64.89-3.35,1.65-4.91,2.67-.29.19-.35.59-.52.89-.31.55-.6,1.11-.91,1.67q-2.2,4-4.53,8c-3.7,6.41-7.23,12.93-11.42,19A47.24,47.24,0,0,1,21.78,49a11.11,11.11,0,0,1-1,.92,9.12,9.12,0,0,1-.78.53l-.15,1.05c1.95-1.44,4.19-2,5.86-3.53a42.53,42.53,0,0,0,5.13-6.3c4-6.17,7.49-12.66,11.2-19,.44-.74.87-1.48,1.3-2.22-.6,3.12-1.35,6.22-2.11,9.3-1.06,4.37-2.46,8.65-3.35,13.06a36.12,36.12,0,0,0-.3,5.6c.11.66.52,1.17,1.27.76,4.59-2.55,4.52-2.44,7.24-5l.2-.19a18.53,18.53,0,0,1,1.58,2.61A3,3,0,0,0,51,48.23a42.88,42.88,0,0,1,5.41-1c1-.08.79-.87,2.27-.87s4.79-.78,5.13-1.25A5.6,5.6,0,0,1,63,41.83Z"/></svg>