<?xml version="1.0" encoding="utf-8"?>
<!-- Generator: Adobe Illustrator 16.0.4, SVG Export Plug-In . SVG Version: 6.00 Build 0)  -->
<svg version="1.2" baseProfile="tiny" xmlns="http://www.w3.org/2000/svg" xmlns:xlink="http://www.w3.org/1999/xlink"
	 x="0px" y="0px" width="64px" height="64px" viewBox="0 0 64 64" xml:space="preserve">
<path d="M57.854,32.292c0-2.506-1.435-4.673-3.526-5.736c-0.007-0.025-0.015-0.05-0.021-0.075c1.288-1.962,1.458-4.556,0.212-6.731
	c-1.258-2.197-3.616-3.366-5.983-3.222c0.169-2.366-0.974-4.735-3.158-6.017c-2.198-1.288-4.843-1.119-6.83,0.205
	c-0.053-0.014-0.104-0.03-0.157-0.044c-1.044-2.146-3.239-3.63-5.786-3.63c-2.528,0-4.709,1.461-5.763,3.581
	c-1.968-1.317-4.587-1.501-6.781-0.245c-2.197,1.258-3.365,3.615-3.221,5.982c-2.366-0.168-4.736,0.975-6.017,3.159
	c-1.268,2.163-1.125,4.76,0.143,6.735c-0.028,0.101-0.058,0.2-0.085,0.301c-2.091,1.063-3.526,3.23-3.526,5.736
	c0,2.475,1.398,4.62,3.447,5.698c0.016,0.062,0.034,0.124,0.05,0.187c-1.243,1.952-1.391,4.51-0.161,6.658
	c1.219,2.13,3.47,3.298,5.762,3.238c0.068,0.069,0.133,0.143,0.202,0.212c-0.082,2.289,1.063,4.548,3.177,5.788
	c2.101,1.232,4.613,1.137,6.565-0.03c0.188,0.054,0.375,0.111,0.566,0.16c1.095,1.99,3.21,3.339,5.642,3.339
	s4.547-1.349,5.642-3.339c0.114-0.029,0.225-0.064,0.338-0.096c1.939,1.187,4.45,1.308,6.563,0.099
	c2.127-1.218,3.295-3.466,3.237-5.756c0.07-0.069,0.141-0.139,0.21-0.209c2.29,0.083,4.55-1.062,5.79-3.177
	c1.252-2.135,1.13-4.694-0.093-6.661c0.038-0.138,0.079-0.274,0.115-0.413C56.456,36.912,57.854,34.767,57.854,32.292z
	 M27.88,47.093l-0.005-0.004l-0.002,0.004l-9.491-6.612l2.251-3.242l6.1,4.25L43.43,17.49l3.397,2.367L27.88,47.093z"/>
</svg>
