<?xml version="1.0" encoding="utf-8"?>
<!-- Generator: Adobe Illustrator 23.0.3, SVG Export Plug-In . SVG Version: 6.00 Build 0)  -->
<svg version="1.1" id="Layer_1" xmlns="http://www.w3.org/2000/svg" xmlns:xlink="http://www.w3.org/1999/xlink" x="0px" y="0px"
	 viewBox="0 0 24 24" style="enable-background:new 0 0 24 24;" xml:space="preserve">
<path d="M12,22.2c-0.8,0-1.5-0.3-2.1-0.9l-8.6-8.6C1.1,12.5,1,12.3,1,12V2c0-0.6,0.4-1,1-1h10c0.3,0,0.5,0.1,0.7,0.3l8.6,8.6
	c1.2,1.2,1.2,3.1,0,4.2c0,0,0,0,0,0l-7.2,7.2C13.5,21.9,12.8,22.2,12,22.2z M3,11.6l8.3,8.3c0.4,0.4,1,0.4,1.4,0l7.2-7.2
	c0.4-0.4,0.4-1,0-1.4L11.6,3H3V11.6z M20.6,13.4L20.6,13.4L20.6,13.4z"/>
<path d="M7,8.4C6.6,8.4,6.2,8.3,6,8C5.8,7.9,5.7,7.7,5.7,7.5C5.6,7.4,5.6,7.2,5.6,7c0-0.2,0-0.4,0.1-0.6C5.7,6.3,5.8,6.1,6,6
	c0.1-0.1,0.3-0.2,0.5-0.3c0.3-0.1,0.8-0.1,1.1,0C7.7,5.7,7.9,5.8,8,6c0.3,0.3,0.4,0.7,0.4,1c0,0.4-0.2,0.8-0.4,1
	C7.8,8.3,7.4,8.4,7,8.4z"/>
</svg>
