<?xml version="1.0" encoding="utf-8"?>
<!-- Generator: Adobe Illustrator 16.0.4, SVG Export Plug-In . SVG Version: 6.00 Build 0)  -->
<!DOCTYPE svg PUBLIC "-//W3C//DTD SVG 1.1//EN" "http://www.w3.org/Graphics/SVG/1.1/DTD/svg11.dtd">
<svg version="1.1" id="Layer_1" xmlns="http://www.w3.org/2000/svg" xmlns:xlink="http://www.w3.org/1999/xlink" x="0px" y="0px"
	 width="28px" height="28px" viewBox="0 0 28 28" enable-background="new 0 0 28 28" xml:space="preserve">
<g id="icomoon-ignore">
</g>
<path d="M6,22c0-0.271-0.099-0.505-0.297-0.703C5.505,21.1,5.271,21,5,21s-0.505,0.1-0.703,0.297C4.1,21.495,4,21.729,4,22
	s0.099,0.505,0.297,0.703C4.496,22.9,4.729,23,5,23s0.505-0.1,0.703-0.297C5.901,22.505,6,22.271,6,22z M24,13
	c0-0.531-0.203-0.997-0.609-1.398S22.521,11,22,11h-5.5c0-0.604,0.25-1.435,0.75-2.492C17.75,7.451,18,6.615,18,6
	c0-1.021-0.166-1.776-0.5-2.266C17.166,3.244,16.5,3,15.5,3c-0.271,0.271-0.469,0.713-0.594,1.328
	c-0.125,0.615-0.285,1.268-0.477,1.961C14.236,6.981,13.926,7.552,13.5,8c-0.229,0.239-0.63,0.713-1.203,1.422
	c-0.042,0.052-0.162,0.208-0.359,0.469c-0.197,0.261-0.361,0.474-0.492,0.641c-0.13,0.167-0.31,0.388-0.539,0.664
	c-0.229,0.276-0.437,0.505-0.625,0.688c-0.188,0.183-0.388,0.368-0.602,0.555c-0.214,0.187-0.422,0.328-0.625,0.422
	c-0.204,0.094-0.389,0.141-0.555,0.141H8v10h0.5c0.135,0,0.299,0.016,0.492,0.047c0.192,0.031,0.364,0.065,0.516,0.102
	c0.151,0.037,0.35,0.096,0.594,0.174c0.245,0.076,0.427,0.138,0.547,0.18s0.305,0.105,0.555,0.195
	c0.25,0.088,0.401,0.143,0.453,0.162c2.198,0.763,3.979,1.143,5.344,1.143h1.891c2,0,3-0.87,3-2.607
	c0-0.271-0.023-0.562-0.078-0.875c0.312-0.168,0.562-0.44,0.742-0.82c0.182-0.381,0.273-0.764,0.273-1.148s-0.094-0.744-0.281-1.078
	c0.553-0.521,0.828-1.141,0.828-1.857c0-0.262-0.051-0.551-0.156-0.867c-0.104-0.316-0.234-0.564-0.391-0.742
	c0.334-0.011,0.611-0.255,0.836-0.734C23.889,13.792,24,13.37,24,13.005V13z M26,12.984c0,0.927-0.256,1.776-0.766,2.547
	c0.094,0.344,0.141,0.703,0.141,1.078c0,0.802-0.197,1.552-0.594,2.25c0.031,0.219,0.047,0.441,0.047,0.672
	c0,1.052-0.312,1.979-0.938,2.781c0.01,1.446-0.434,2.59-1.328,3.43C21.666,26.58,20.484,27,19.016,27H17
	c-1,0-1.987-0.117-2.961-0.352c-0.974-0.235-2.102-0.576-3.383-1.023C9.446,25.209,8.729,25,8.5,25H4
	c-0.552,0-1.023-0.195-1.414-0.586S2,23.552,2,23V13c0-0.552,0.195-1.023,0.586-1.414S3.447,11,4,11H8.28
	c0.375-0.25,1.088-1.057,2.141-2.422c0.604-0.781,1.162-1.448,1.672-2c0.25-0.261,0.435-0.706,0.555-1.336
	c0.12-0.63,0.279-1.289,0.477-1.977s0.521-1.25,0.969-1.687C14.5,1.193,14.97,1,15.5,1c0.875,0,1.662,0.169,2.359,0.508
	c0.697,0.339,1.229,0.868,1.594,1.586C19.818,3.812,20,4.781,20,6c0,0.969-0.25,1.969-0.75,3H22c1.084,0,2.021,0.396,2.812,1.188
	S26,11.912,26,12.984L26,12.984z"/>
</svg>
