<?xml version="1.0" encoding="utf-8"?>
<!-- Generator: Adobe Illustrator 16.0.4, SVG Export Plug-In . SVG Version: 6.00 Build 0)  -->
<!DOCTYPE svg PUBLIC "-//W3C//DTD SVG 1.1//EN" "http://www.w3.org/Graphics/SVG/1.1/DTD/svg11.dtd">
<svg version="1.1" id="Layer_1" xmlns="http://www.w3.org/2000/svg" xmlns:xlink="http://www.w3.org/1999/xlink" x="0px" y="0px"
	 width="28px" height="28px" viewBox="0 0 28 28" enable-background="new 0 0 28 28" xml:space="preserve">
<g id="icomoon-ignore">
</g>
<path d="M5.999,5.999c0-0.271-0.099-0.505-0.297-0.703C5.504,5.098,5.27,4.999,4.999,4.999S4.494,5.098,4.296,5.295
	C4.098,5.494,3.999,5.728,3.999,5.999s0.099,0.505,0.297,0.703c0.198,0.197,0.432,0.297,0.703,0.297S5.504,6.9,5.702,6.702
	C5.9,6.503,5.999,6.269,5.999,5.999z M23.999,14.998c0-0.365-0.111-0.787-0.336-1.265c-0.225-0.479-0.503-0.725-0.836-0.734
	c0.156-0.177,0.285-0.425,0.391-0.742c0.105-0.317,0.156-0.606,0.156-0.867c0-0.719-0.275-1.338-0.828-1.859
	c0.188-0.333,0.281-0.693,0.281-1.078c0-0.385-0.092-0.768-0.273-1.148c-0.182-0.38-0.43-0.653-0.742-0.82
	c0.054-0.312,0.078-0.604,0.078-0.875c0-0.885-0.254-1.542-0.766-1.969C20.612,3.214,19.905,3,18.999,3h-2
	c-1.365,0-3.146,0.38-5.344,1.141c-0.052,0.02-0.203,0.075-0.453,0.164c-0.25,0.088-0.435,0.153-0.555,0.195S10.345,4.601,10.1,4.68
	C9.855,4.759,9.657,4.815,9.506,4.852C9.355,4.889,9.183,4.922,8.99,4.954C8.797,4.985,8.633,5.001,8.498,5h-0.5v10h0.5
	c0.167,0,0.352,0.047,0.555,0.141c0.203,0.094,0.412,0.236,0.625,0.422c0.213,0.188,0.414,0.373,0.602,0.558
	c0.188,0.182,0.396,0.412,0.625,0.688c0.229,0.274,0.409,0.496,0.539,0.664c0.131,0.166,0.295,0.381,0.492,0.641
	s0.317,0.418,0.359,0.469c0.573,0.709,0.974,1.182,1.203,1.422c0.427,0.449,0.737,1.02,0.93,1.711
	c0.192,0.693,0.351,1.348,0.476,1.961c0.125,0.615,0.324,1.059,0.595,1.328c1,0,1.666-0.244,2-0.734
	c0.334-0.487,0.5-1.244,0.5-2.266c0-0.615-0.25-1.451-0.75-2.508s-0.75-1.889-0.75-2.492h5.5c0.521,0,0.984-0.201,1.391-0.602
	c0.407-0.404,0.609-0.869,0.609-1.4V14.998z M25.999,15.014c0,1.074-0.396,2.006-1.188,2.797C24.019,18.604,23.081,19,21.999,19
	h-2.75c0.5,1.031,0.75,2.031,0.75,3c0,1.229-0.182,2.197-0.547,2.906c-0.365,0.717-0.896,1.246-1.594,1.586
	C17.16,26.83,16.374,27,15.499,27c-0.53,0-1-0.193-1.406-0.578c-0.354-0.344-0.636-0.771-0.844-1.281s-0.341-0.981-0.398-1.414
	c-0.057-0.434-0.148-0.873-0.273-1.319c-0.125-0.447-0.287-0.781-0.484-1c-0.5-0.521-1.058-1.183-1.672-1.984
	C9.37,18.059,8.656,17.25,8.281,17H4c-0.552,0-1.023-0.195-1.414-0.586S2,15.553,2,15V5c0-0.552,0.195-1.023,0.586-1.414
	S3.448,3,4,3h4.5c0.229,0,0.948-0.208,2.156-0.625c1.333-0.458,2.495-0.802,3.484-1.031C15.13,1.115,16.171,1.001,17.265,1h1.75
	c1.459,0,2.639,0.411,3.539,1.234c0.9,0.823,1.346,1.948,1.336,3.375v0.078c0.625,0.802,0.938,1.729,0.938,2.781
	c0,0.229-0.017,0.453-0.047,0.672c0.396,0.698,0.594,1.448,0.594,2.25c0,0.375-0.047,0.734-0.142,1.078
	C25.745,13.239,26,14.088,26,15.016L25.999,15.014z"/>
</svg>
