<?xml version="1.0" encoding="utf-8"?>
<!-- Generator: Adobe Illustrator 23.0.1, SVG Export Plug-In . SVG Version: 6.00 Build 0)  -->
<svg version="1.1" id="Layer_1" xmlns="http://www.w3.org/2000/svg" xmlns:xlink="http://www.w3.org/1999/xlink" x="0px" y="0px"
	 viewBox="0 0 20 20" style="enable-background:new 0 0 20 20;" xml:space="preserve">
<g>
	<path d="M10,12c2.8,0,5-2.2,5-5V5c0-2.8-2.2-5-5-5S5,2.2,5,5v2C5,9.8,7.2,12,10,12z"/>
	<path d="M11.7,14.1l-0.3,0.7c-0.1,0.3-0.4,0.5-0.7,0.5H9.3c-0.3,0-0.6-0.2-0.7-0.5l-0.3-0.7c-2.9,0.2-5.8,1.1-8.3,2.6V20h7.5
		l1.1-2.7c0.1-0.3,0.4-0.5,0.7-0.5h1.4c0.3,0,0.6,0.2,0.7,0.5l1.1,2.7H20v-3.3C17.5,15.2,14.7,14.3,11.7,14.1z"/>
</g>
</svg>
