<?xml version="1.0" encoding="utf-8"?>
<!-- Generator: Adobe Illustrator 16.0.4, SVG Export Plug-In . SVG Version: 6.00 Build 0)  -->
<!DOCTYPE svg PUBLIC "-//W3C//DTD SVG 1.1//EN" "http://www.w3.org/Graphics/SVG/1.1/DTD/svg11.dtd">
<svg version="1.1" id="Layer_1" xmlns="http://www.w3.org/2000/svg" xmlns:xlink="http://www.w3.org/1999/xlink" x="0px" y="0px"
	 width="32px" height="32px" viewBox="0 0 32 32" enable-background="new 0 0 32 32" xml:space="preserve">
<g>
	<path fill="#010101" d="M27.292,2.484H4.707c-1.553,0-2.823,1.271-2.823,2.822v21.385c0,1.555,1.271,2.824,2.823,2.824h22.585
		c1.554,0,2.824-1.271,2.824-2.824V5.309C30.116,3.755,28.846,2.484,27.292,2.484z M8.32,4.875c0.617,0,1.115,0.484,1.115,1.084
		S8.938,7.044,8.32,7.044c-0.616,0-1.114-0.485-1.114-1.083C7.206,5.359,7.705,4.875,8.32,4.875z M4.232,5.961
		c0-0.6,0.498-1.084,1.115-1.084s1.114,0.482,1.114,1.084c0,0.6-0.498,1.084-1.114,1.084C4.732,7.045,4.232,6.559,4.232,5.961z
		 M27.814,27.188H4.184V9.26h23.631V27.188z M27.814,7.002H10.354V4.814h17.461V7.002z"/>
	<path fill="#010101" d="M16,25.119c-3.712,0-6.721-3.01-6.721-6.723c0-3.711,3.009-6.721,6.721-6.721s6.721,3.01,6.721,6.721
		C22.721,22.109,19.712,25.119,16,25.119z M16,12.898c-3.037,0-5.5,2.461-5.5,5.498c0,3.039,2.462,5.5,5.5,5.5s5.5-2.461,5.5-5.5
		C21.499,15.359,19.037,12.898,16,12.898z M18.756,21.645l-0.158,0.096l-0.459,0.285l-0.27,0.203
		c-0.201,0.099-0.41,0.176-0.628,0.241v-0.271l-0.076-0.63c0,0-0.038-0.363-0.095-0.459c-0.059-0.094-0.191-0.229-0.325-0.286
		c-0.134-0.058-0.229-0.058-0.306-0.153c-0.078-0.095-0.135-0.268-0.229-0.42s-0.211-0.307-0.211-0.382c0-0.076,0-0.858,0-0.858
		l0.095-0.727l0.211-0.153l0.247-0.286l0.173-0.057l0.592,0.113h0.42l0.173,0.363l0.401,0.324l0.248,0.4l0.323,0.115h0.362
		l0.248,0.306l0.152,0.323l0.059,0.229v0.384l-0.04,0.225C19.422,20.979,19.115,21.338,18.756,21.645z M17.279,15.057l-0.422,0.229
		l-0.151,0.438l-0.248,0.229h-0.821l-0.382,0.153l-0.019,0.305l-0.153,0.248l-0.038,0.27l0.076,0.229l0.095,0.229
		c0,0,0.229,0.269,0,0.458c0,0-0.286,0-0.343-0.095c-0.057-0.096-0.479-0.363-0.555-0.439s-0.324-0.152-0.324-0.152l-0.307-0.115
		L13.4,17.025l0.02-0.402l-0.02-0.344l-0.114-0.247l-0.324-0.249l-0.019-0.268l0.039-0.148c0.772-0.77,1.84-1.245,3.016-1.245
		c0.665,0,1.285,0.164,1.846,0.435l-0.013,0.102L17.279,15.057z"/>
</g>
</svg>
