<?xml version="1.0" encoding="utf-8"?>
<!-- Generator: Adobe Illustrator 16.0.4, SVG Export Plug-In . SVG Version: 6.00 Build 0)  -->
<svg version="1.2" baseProfile="tiny" xmlns="http://www.w3.org/2000/svg" xmlns:xlink="http://www.w3.org/1999/xlink"
	 x="0px" y="0px" width="64px" height="64px" viewBox="0 0 64 64" xml:space="preserve">
<path fill-rule="evenodd" d="M32,63.25C14.741,63.25,0.75,49.259,0.75,32C0.75,14.742,14.741,0.75,32,0.75
	c18.461,0,31.25,13.992,31.25,31.25C63.25,49.259,49.258,63.25,32,63.25z M21.352,12.722c-3.341-0.279-4.594,0.417-4.594,0.417
	l0.278,0.976c0,0,0.278,0.277,0.278,0.834c0,0.558-1.949,0.418-1.949,0.418s-0.418-0.835-0.278-1.392s0.557-1.532,0.557-1.532
	l1.114-1.531c0,0,0.417,0,1.253,0.278c0.835,0.279,2.366-0.139,2.366-0.139l-0.696-2.924c0,0-8.723,2.978-13.92,15.729
	c0,0.696,0.417,1.948,0.278,2.645S5.761,27.615,5.9,28.312C6.04,29.007,7.014,30.4,7.014,30.4l1.252,1.392
	c0,0,0.14,1.808,0.835,2.506c0.696,0.694-0.417,1.53-0.417,1.53s-0.557,2.505-0.418,3.48c0.14,0.974,0.557,3.341,0.975,3.897
	c0.417,0.557,3.201,1.81,3.201,1.81s1.531,0.975,1.531,1.671s0.557,1.67,0.974,2.365c0.418,0.696,2.506,2.229,2.367,3.48
	s0.464,0.974,0.881,2.087c0.418,1.115,1.253,1.439,2.459,1.672c0,0,1.253-3.48,0.835-4.177c-0.417-0.696-1.113-2.228-1.113-2.228
	l0.139-2.366c0,0,0.417-0.974,1.114-1.53c0.696-0.559,0.974-0.975,1.531-2.088s1.392-2.785,1.531-3.48
	c0.139-0.696,2.088-2.785,0.975-3.898c-1.114-1.112-3.063-1.252-4.037-1.531c-0.975-0.277-3.619-0.694-3.897-1.81
	c-0.278-1.112-2.645-0.695-3.48-0.277c-0.835,0.417-3.48,1.251-3.759,0.277s-1.392-1.669-1.531-2.365
	c-0.14-0.696,0.974,0,1.252-1.113s-0.696-1.532-1.809-0.976c-1.114,0.557-1.392-0.557-0.697-0.975
	c0.697-0.417,3.202-2.506,3.48-1.81s2.088,0.279,2.645,0.14s1.392-0.557,1.67,0.836c0.278,1.392,1.949,2.924,1.949,2.365
	c0-0.557,0.557-2.505,0.139-3.341c-0.418-0.834-0.835-1.53-0.835-1.53s2.645,0,3.34-1.531c0.696-1.532,0.696-2.366,0.835-3.063
	c0.14-0.694,0-1.669-0.696-1.53c-0.696,0.14-0.418-1.67,0.974-1.391c1.392,0.275,0.557,1.252,0.557,1.252s0.835,2.506,1.392,1.392
	c0.557-1.113,3.063-3.062,1.67-3.62C23.439,15.366,24.692,12.999,21.352,12.722z M23.254,7.062
	c-0.032,0.485-0.065,0.923-0.093,1.203c-0.139,1.393,1.81,4.037,3.759,6.126c1.949,2.088,2.227-2.228,1.949-2.783
	c-0.279-0.558,1.948-2.367,2.088-3.76c0.139-1.391,1.438-0.929,2.273-2.32C32.878,4.883,26.208,4.322,23.254,7.062z M35.132,14.948
	c0,0-1.392,0.418-0.975,1.114c0.418,0.696,1.81,1.53,1.949,0.974C36.246,16.479,37.081,15.366,35.132,14.948z M40.004,16.479
	c-0.975-0.974-0.835-1.392-0.696-2.226c0.139-0.836,0.835-2.369,0.139-2.09c-0.696,0.278-1.393,0.558-1.671,1.114
	c0,0-0.974,2.366-0.278,2.923C38.194,16.759,40.978,17.453,40.004,16.479z M44.88,7.982c-0.157,1.179-0.33,2.465-0.33,2.465
	l-1.113,2.6c-0.278,1.809,1.856,1.854,1.856,1.854s2.923,0.558,4.176-4.083C47.613,8.873,45.424,7.727,44.88,7.982z M53.924,15.97
	c0.286-0.127,0.717,0.358,1.207,1.194c0.269,1.104,0.278,2.518,0.278,2.518l-2.969-0.371c0,0-1.113-2.228-2.599-1.485
	c-1.484,0.741-0.371,1.113-2.598,1.485c-2.227,0.371-3.248-2.924-4.732-1.811c-1.485,1.113-2.135-0.185-2.505,1.299
	c-0.372,1.485,0.046,3.389,0.046,3.389l-2.877-0.232c-1.949,0.974-0.928,4.129-0.928,4.129s3.155,1.16,5.011,0.047
	c1.856-1.113,3.016-3.108,3.016-3.108l3.434,4.222c1.252,0.695,1.763-1.996,1.763-1.996c-1.531-2.365,0-3.339,0-3.339l3.341,1.483
	l2.227,2.599l-0.371,1.857l-4.083,1.483c0,0-0.743,4.547-6.311,0.836c0,0-8.538-1.485-8.538,1.113c0,2.598-0.603,1.762-0.371,5.104
	c0,0-1.531,7.655,2.505,7.378c4.037-0.279,2.366-0.279,6.356-1.3c3.712-1.855,3.712,2.042,3.712,2.042l-0.231,3.758l-0.418,2.229
	c0,0-0.743,1.299,0.743,2.784c0,0,9.715-7.479,10.718-19.119c-1.527,0.098-2.599-1.483-2.599-1.483l-2.227-2.599h3.712
	c0,0,0.513,0.23,1.127,0.506c1.017-1.54-1.753-10.203-3.632-13.416C54.924,16.316,54.568,15.646,53.924,15.97z"/>
</svg>
